{"glyphs":{"0":{"ha":694,"x_min":19,"x_max":648,"o":"m 19 267 q 114 498 19 414 q 339 583 209 583 q 554 502 460 583 q 648 267 648 420 q 553 62 648 146 q 335 -22 457 -22 q 117 61 216 -22 q 19 267 19 144 m 339 555 q 204 475 255 555 q 153 267 153 395 q 205 79 153 151 q 335 8 256 8 q 467 81 415 8 q 518 267 518 153 q 339 555 518 555 z "},"1":{"ha":694,"x_min":122,"x_max":646,"o":"m 146 34 q 331 49 146 34 l 331 500 l 133 433 l 122 483 l 456 581 l 456 49 q 551 39 473 42 q 646 34 628 37 l 646 1 q 427 7 564 7 q 151 -3 235 7 l 146 34 z "},"2":{"ha":694,"x_min":60,"x_max":651,"o":"m 321 578 q 452 555 389 578 q 557 485 515 532 q 600 378 600 438 q 564 279 600 319 q 433 178 529 239 q 311 117 384 146 l 236 88 q 279 88 236 88 q 568 95 513 88 l 616 205 l 651 205 l 585 0 l 72 0 l 60 46 l 305 156 q 406 245 357 179 q 456 372 456 311 q 420 501 456 454 q 323 548 385 548 q 229 518 273 548 q 178 449 184 488 q 235 427 213 446 q 258 369 258 407 q 231 315 258 332 q 171 297 205 297 q 115 327 141 297 q 88 404 88 357 q 153 521 88 464 q 321 578 218 578 z "},"3":{"ha":694,"x_min":54,"x_max":637,"o":"m 309 167 l 301 194 q 384 225 372 218 q 463 283 425 244 q 500 358 500 321 q 458 488 500 437 q 345 538 416 538 q 206 450 240 538 q 269 425 241 448 q 296 366 296 403 q 217 285 296 285 q 147 317 172 285 q 122 391 122 349 q 193 513 122 452 q 355 574 263 574 q 532 520 456 574 q 609 393 609 467 q 569 295 609 332 q 445 217 529 258 q 575 144 513 202 q 637 8 637 85 q 541 -222 637 -138 q 292 -305 444 -305 q 144 -248 218 -305 q 54 -96 71 -190 l 85 -88 q 155 -215 96 -160 q 292 -270 213 -270 q 447 -195 395 -270 q 499 -30 499 -119 q 441 108 499 49 q 309 167 384 167 z "},"4":{"ha":694,"x_min":12,"x_max":692,"o":"m 494 -5 q 495 -258 494 -5 l 381 -258 q 382 -5 382 -258 l 56 -5 l 12 35 l 473 579 l 503 556 q 498 363 503 556 q 494 60 494 171 q 494 27 494 43 l 582 27 l 620 76 q 671 148 659 125 l 692 130 q 669 88 685 117 q 643 38 654 60 q 625 -7 632 16 q 568 -6 600 -7 q 494 -5 536 -5 m 385 416 q 241 242 377 406 q 75 30 104 79 l 382 30 q 385 416 382 365 z "},"5":{"ha":694,"x_min":31,"x_max":667,"o":"m 597 446 l 244 448 q 156 189 244 448 q 359 275 239 274 q 536 203 471 275 q 602 9 602 132 q 500 -205 602 -111 q 279 -300 399 -300 q 105 -242 179 -300 q 31 -122 31 -184 q 117 -19 31 -19 q 169 -44 152 -19 q 186 -95 186 -69 q 163 -146 186 -126 q 113 -168 140 -165 q 174 -239 118 -209 q 282 -269 229 -269 q 408 -184 350 -269 q 467 -4 467 -99 q 431 164 467 95 q 327 233 395 233 q 142 122 201 233 q 117 133 134 122 l 100 144 l 232 537 l 594 538 l 632 623 l 667 623 l 597 446 z "},"6":{"ha":694,"x_min":45,"x_max":718,"o":"m 183 355 q 277 448 233 416 q 382 480 320 479 q 388 480 385 480 q 508 452 450 480 q 607 363 566 425 q 648 218 648 301 q 565 39 648 109 q 353 -31 481 -31 q 250 -15 300 -31 q 152 36 199 1 q 75 140 104 71 q 45 305 45 210 q 64 417 45 355 q 127 544 84 479 q 226 662 170 609 q 364 749 282 715 q 536 784 446 784 q 636 765 579 784 q 718 722 693 746 l 700 697 q 613 741 666 724 q 511 758 560 758 q 403 734 456 758 q 302 663 350 709 q 223 537 255 617 q 183 355 191 457 m 361 429 q 225 368 271 429 q 178 209 179 307 q 230 60 178 125 q 359 -5 282 -5 q 470 59 429 -5 q 511 217 511 123 q 473 385 511 340 q 361 429 434 429 z "},"7":{"ha":694,"x_min":92,"x_max":670,"o":"m 602 551 l 639 591 l 670 591 l 165 -308 l 111 -283 l 532 441 q 140 446 323 446 l 119 305 l 92 316 l 106 555 l 602 551 z "},"8":{"ha":694,"x_min":47,"x_max":633,"o":"m 633 217 q 336 -24 633 -24 q 130 35 213 -24 q 47 214 47 94 q 133 361 47 304 q 294 427 218 419 q 174 489 232 439 q 115 612 115 538 q 157 715 115 673 q 249 773 198 757 q 353 789 300 789 q 456 774 407 789 q 542 716 505 758 q 579 612 579 674 q 518 486 579 534 q 389 430 457 438 q 487 397 434 422 q 587 323 540 372 q 633 217 633 274 m 479 609 q 441 723 479 677 q 349 769 404 769 q 258 726 294 769 q 218 617 221 684 q 218 601 218 609 q 342 437 218 463 q 446 497 412 450 q 479 609 479 544 m 514 222 q 467 359 514 317 q 343 416 420 401 q 283 404 307 411 q 227 376 259 396 q 179 317 195 357 q 163 221 163 278 q 209 71 163 140 q 336 3 255 3 q 514 222 514 3 z "},"9":{"ha":694,"x_min":-56,"x_max":637,"o":"m 496 262 q 495 340 496 312 q 484 413 494 368 q 458 484 475 458 q 408 528 442 509 q 326 547 373 547 q 210 486 247 547 q 172 283 172 425 q 209 123 172 179 q 311 66 245 66 q 440 119 384 66 q 496 262 496 172 m 302 38 q 123 104 203 38 q 42 285 42 171 q 120 498 42 418 q 331 578 198 578 q 433 560 382 578 q 531 505 483 543 q 608 396 579 467 q 637 229 637 326 q 513 -164 637 -5 q 176 -323 388 -323 q 47 -276 114 -323 q -56 -172 -20 -229 l -23 -136 q 75 -235 9 -191 q 206 -278 140 -278 q 332 -251 278 -278 q 418 -186 387 -224 q 469 -85 449 -148 q 497 28 488 -23 q 511 151 506 79 q 416 73 481 107 q 302 38 351 38 z "},"\u0013":{"ha":1002,"x_min":0,"x_max":0,"o":""}," ":{"ha":277,"x_min":0,"x_max":0,"o":""},"!":{"ha":576,"x_min":198,"x_max":384,"o":"m 258 267 q 217 772 216 772 q 308 811 217 811 q 368 802 351 811 q 384 773 384 792 q 308 269 384 716 q 308 267 308 269 l 258 267 m 281 152 q 342 128 320 152 q 363 68 363 104 q 340 8 363 33 q 285 -16 317 -16 q 222 3 247 -16 q 198 65 198 22 q 281 152 199 152 z "},"\"":{"ha":302,"x_min":18,"x_max":283,"o":"m 71 875 q 104 859 92 875 q 117 821 117 842 q 81 597 117 724 q 64 597 69 591 l 42 689 q 18 817 19 781 q 71 875 18 875 m 237 875 q 271 859 259 875 q 283 821 283 842 q 247 597 283 727 q 231 597 239 593 l 209 689 q 184 817 186 781 q 237 875 184 875 z "},"#":{"ha":694,"x_min":121,"x_max":543,"o":"m 388 730 l 277 722 l 277 570 l 388 576 l 388 730 m 121 738 l 221 746 l 221 845 l 277 849 l 277 750 l 388 757 l 388 857 l 444 861 l 444 761 l 543 769 l 543 742 l 444 734 l 444 581 l 543 589 l 543 562 l 444 553 l 444 454 l 388 450 l 388 548 l 277 541 l 277 442 l 221 438 l 221 537 l 121 529 l 121 557 l 221 566 l 221 718 l 121 709 l 121 738 z "},"$":{"ha":796,"x_min":156,"x_max":644,"o":"m 639 426 q 610 355 639 389 q 552 321 582 321 q 498 342 518 321 q 477 400 477 362 q 497 448 477 431 q 533 464 517 464 q 597 433 571 464 q 551 529 597 496 q 445 566 505 562 l 445 275 q 644 80 644 199 q 635 9 644 42 q 603 -56 625 -24 q 540 -109 581 -88 q 445 -137 499 -130 l 445 -244 l 380 -244 l 380 -140 q 308 -127 343 -137 q 236 -97 273 -117 q 178 -42 199 -77 q 156 39 156 -7 q 184 106 156 83 q 241 130 213 130 q 300 107 274 130 q 326 56 326 84 q 309 0 326 22 q 266 -22 292 -22 q 197 15 221 -22 q 262 -72 208 -42 q 378 -104 316 -102 l 377 186 q 254 274 307 218 q 201 384 201 330 q 245 523 201 467 q 374 593 289 579 l 373 731 l 445 731 l 445 595 q 506 582 475 593 q 568 551 537 571 q 618 499 598 532 q 639 426 639 467 m 377 307 l 374 555 q 317 506 338 540 q 296 426 296 472 q 377 307 297 357 m 445 155 l 445 -98 q 517 -43 496 -83 q 538 43 538 -3 q 445 155 540 106 z "},"%":{"ha":694,"x_min":11,"x_max":681,"o":"m 11 461 q 59 578 11 534 q 172 621 107 621 q 281 580 233 621 q 330 461 330 538 q 281 358 330 400 q 171 316 232 316 q 60 358 110 316 q 11 461 11 400 m 172 606 q 104 566 129 606 q 79 461 79 526 q 104 368 79 403 q 171 332 130 332 q 237 368 212 332 q 263 461 263 404 q 172 606 263 606 m 362 91 q 410 207 362 164 q 524 250 458 250 q 633 209 585 250 q 681 91 681 168 q 632 -13 681 30 q 522 -56 583 -56 q 412 -14 461 -56 q 362 91 362 28 m 524 236 q 455 196 480 236 q 430 91 430 156 q 456 -3 430 33 q 522 -39 481 -39 q 589 -3 563 -39 q 614 91 614 34 q 524 236 614 236 m 586 658 l 629 628 l 94 -122 l 50 -92 l 586 658 z "},"&":{"ha":850,"x_min":38,"x_max":834,"o":"m 311 517 q 415 585 391 559 q 439 682 439 612 q 411 781 439 745 q 332 817 382 817 q 258 774 286 817 q 229 671 229 731 q 311 517 229 610 m 593 33 l 540 91 q 308 -15 437 -15 q 84 69 144 -15 q 62 100 72 87 q 45 142 52 114 q 38 212 38 170 q 38 213 38 212 q 67 335 38 288 q 160 431 96 382 q 224 472 187 450 q 167 564 191 509 q 142 670 142 618 q 203 802 142 755 q 330 848 264 848 q 473 811 419 848 q 526 699 526 774 q 482 589 526 635 q 338 483 438 543 q 576 186 426 363 q 611 251 602 220 q 620 332 620 282 q 602 381 620 357 q 526 416 576 418 l 522 438 l 787 438 l 785 412 q 699 397 715 412 q 675 330 675 374 q 649 239 675 290 q 601 161 623 187 l 635 119 q 652 96 640 110 q 677 71 665 83 q 705 50 689 58 q 738 41 722 41 q 793 65 780 41 q 807 138 807 90 l 834 134 q 724 -14 834 -15 q 593 33 632 -14 m 353 42 q 438 56 406 42 q 517 113 471 71 q 351 317 448 198 q 252 435 254 435 q 184 380 209 415 q 151 317 159 345 q 144 264 144 290 q 191 134 144 202 q 353 42 258 42 z "},"'":{"ha":277,"x_min":98,"x_max":180,"o":"m 142 875 q 180 821 180 875 q 171 706 180 779 q 152 601 161 633 q 140 594 151 594 q 130 594 136 594 q 122 594 125 594 q 117 596 121 594 q 113 597 113 598 l 106 689 q 98 818 98 783 q 142 875 96 875 z "},"(":{"ha":412,"x_min":68,"x_max":468,"o":"m 431 994 l 468 951 q 398 888 452 935 q 307 801 345 842 q 245 712 270 760 q 199 579 210 646 q 187 393 187 513 q 231 11 187 119 q 318 -133 263 -68 q 420 -235 373 -198 l 382 -286 q 173 -33 278 -216 q 68 353 68 151 q 98 530 68 441 q 163 682 127 620 q 260 816 199 745 q 351 918 320 887 q 431 994 381 948 z "},")":{"ha":412,"x_min":-56,"x_max":345,"o":"m -19 994 q 62 918 31 948 q 153 816 94 887 q 249 682 213 745 q 315 530 285 620 q 345 353 345 441 q 239 -33 345 149 q 31 -286 134 -216 l -8 -235 q 95 -133 39 -198 q 182 11 151 -68 q 225 393 225 118 q 213 579 225 513 q 167 712 201 646 q 106 801 144 760 q 14 888 68 842 q -56 951 -39 935 l -19 994 z "},"*":{"ha":772,"x_min":107,"x_max":586,"o":"m 335 743 q 371 728 357 743 q 385 693 385 712 q 349 490 385 614 l 316 572 q 286 689 285 652 q 294 725 286 712 q 312 741 302 738 q 335 743 321 743 m 345 224 q 321 227 331 224 q 304 241 312 229 q 296 278 296 254 q 323 397 296 315 l 349 480 q 363 431 350 473 q 386 347 377 389 q 395 274 395 305 q 380 239 395 255 q 345 224 366 224 m 117 601 q 160 627 132 625 q 184 620 174 627 q 345 487 262 575 l 258 500 q 138 532 170 514 q 107 574 106 549 q 117 601 107 585 m 571 350 q 534 324 556 324 q 500 335 519 324 q 411 418 469 353 l 351 483 q 442 460 370 480 q 553 418 514 441 q 578 374 578 404 q 571 350 578 362 m 132 345 q 125 369 125 357 q 151 412 125 399 q 345 483 218 452 l 320 452 q 261 380 297 419 q 203 330 225 342 q 168 317 184 319 q 132 345 146 319 m 576 613 q 586 585 586 598 q 555 543 586 562 q 438 506 522 525 l 353 487 q 389 525 358 491 q 450 587 419 559 q 509 631 480 614 q 534 637 521 637 q 576 613 563 637 z "},"+":{"ha":694,"x_min":62,"x_max":644,"o":"m 312 31 l 312 279 l 62 279 l 62 362 l 311 362 l 311 613 l 395 613 l 395 362 l 644 362 l 644 279 l 396 279 l 396 31 l 312 31 z "},",":{"ha":345,"x_min":80,"x_max":267,"o":"m 159 -12 q 104 16 127 -12 q 80 76 80 43 q 109 146 80 121 q 171 171 138 171 q 236 141 205 171 q 267 62 267 111 q 220 -75 267 -9 q 126 -146 172 -140 l 118 -125 q 184 -68 152 -110 q 217 7 216 -26 q 159 -12 184 -12 z "},"-":{"ha":640,"x_min":100,"x_max":566,"o":"m 111 452 l 566 452 l 559 358 l 100 361 l 111 452 z "},".":{"ha":343,"x_min":83,"x_max":266,"o":"m 172 178 q 237 155 208 178 q 266 88 266 133 q 239 17 266 39 q 172 -5 213 -5 q 111 23 138 -5 q 83 88 83 52 q 111 154 83 130 q 172 178 140 178 z "},"/":{"ha":419,"x_min":18,"x_max":401,"o":"m 330 985 l 401 966 l 91 -197 l 18 -178 l 330 985 z "},":":{"ha":345,"x_min":80,"x_max":267,"o":"m 171 563 q 237 542 208 563 q 267 475 267 521 q 241 396 267 426 q 165 366 214 366 q 102 397 125 366 q 80 471 80 429 q 109 538 80 513 q 171 563 138 563 m 171 167 q 237 146 208 167 q 267 79 267 125 q 239 9 267 34 q 165 -16 212 -16 q 106 13 133 -16 q 80 75 80 42 q 109 142 80 117 q 171 167 138 167 z "},";":{"ha":345,"x_min":73,"x_max":267,"o":"m 165 -8 q 107 23 134 -8 q 80 83 80 54 q 109 150 80 125 q 171 175 138 175 q 236 146 205 175 q 267 71 267 118 q 222 -58 267 -3 q 130 -119 178 -114 q 130 -117 130 -118 q 126 -104 130 -111 l 121 -96 q 185 -56 155 -90 q 217 9 216 -23 q 165 -8 186 -8 m 171 557 q 237 536 208 557 q 267 469 267 515 q 241 390 267 419 q 165 361 216 361 q 96 391 118 361 q 73 467 73 420 q 105 533 73 509 q 171 557 137 557 z "},"<":{"ha":692,"x_min":84,"x_max":538,"o":"m 538 605 l 538 576 l 236 320 l 236 296 l 524 34 l 524 -4 l 84 289 l 84 334 l 538 605 z "},"=":{"ha":694,"x_min":62,"x_max":644,"o":"m 62 460 l 644 460 l 644 377 l 62 377 l 62 460 m 62 251 l 644 251 l 644 168 l 62 168 l 62 251 z "},">":{"ha":692,"x_min":84,"x_max":538,"o":"m 84 605 l 538 320 l 538 275 l 100 -4 l 100 34 l 388 282 l 388 305 l 84 576 l 84 605 z "},"?":{"ha":694,"x_min":84,"x_max":594,"o":"m 517 369 l 547 350 q 369 225 499 225 q 274 262 323 225 q 225 347 225 300 q 298 473 225 429 q 351 506 321 486 q 406 547 381 526 q 447 600 430 568 q 464 670 464 632 q 422 801 464 751 q 311 850 380 850 q 223 806 264 850 q 175 719 182 761 q 263 647 263 713 q 240 587 263 610 q 175 564 217 564 q 107 599 130 564 q 84 673 84 633 q 153 806 84 732 q 321 879 222 879 q 387 873 354 879 q 458 851 419 867 q 526 812 496 836 q 575 749 556 789 q 594 659 594 709 q 564 562 594 602 q 490 500 533 522 q 404 459 448 477 q 329 412 359 441 q 298 343 298 384 q 372 252 298 252 q 464 286 427 252 q 517 369 500 319 m 286 50 q 309 107 286 87 q 368 127 332 127 q 425 108 404 127 q 446 50 446 88 q 423 -8 446 14 q 364 -30 400 -30 q 307 -9 328 -30 q 286 50 286 12 z "},"@":{"ha":825,"x_min":68,"x_max":798,"o":"m 618 3 q 521 -9 618 3 q 538 92 521 -9 q 514 62 530 80 q 480 28 498 45 q 435 1 463 12 q 378 -9 407 -9 q 277 37 316 -9 q 237 168 237 83 q 260 281 237 232 q 316 357 282 331 q 382 394 350 382 q 441 406 414 406 q 575 365 529 406 l 581 406 l 674 406 q 629 47 661 309 q 718 102 677 53 q 758 247 758 151 q 755 315 758 286 q 736 388 753 343 q 692 462 720 433 q 606 513 663 491 q 468 536 548 536 q 328 503 389 536 q 232 416 267 469 q 180 304 197 362 q 163 186 163 245 q 173 56 163 111 q 211 -47 183 1 q 295 -122 239 -96 q 435 -148 351 -148 q 530 -136 488 -148 q 595 -109 571 -125 q 640 -73 618 -92 q 674 -37 661 -53 l 701 -75 q 662 -109 696 -79 q 610 -149 628 -138 q 543 -171 591 -159 q 431 -183 495 -183 q 170 -81 271 -183 q 68 167 68 22 q 130 384 68 290 q 285 522 191 477 q 481 567 378 567 q 718 470 637 567 q 798 250 798 373 q 741 92 798 172 q 618 3 684 11 m 545 133 l 574 336 q 449 382 503 382 q 375 326 407 382 q 343 183 343 270 q 359 86 343 115 q 418 57 374 57 q 494 81 457 57 q 545 133 530 106 z "},"A":{"ha":958,"x_min":0,"x_max":959,"o":"m 582 374 l 309 374 l 180 72 q 176 58 176 65 q 206 28 176 39 q 266 16 236 16 l 267 -5 l 0 -7 l 0 20 q 3 20 1 20 q 58 32 28 20 q 106 64 88 43 q 297 475 129 91 l 465 857 l 510 857 l 807 153 q 890 41 845 62 q 916 33 902 35 q 941 31 929 31 q 959 30 954 31 l 956 -4 q 751 0 865 0 q 585 -4 648 0 l 586 22 q 610 20 586 20 q 678 43 659 20 q 688 73 688 54 q 680 113 688 91 l 673 133 l 582 374 m 326 407 l 571 407 l 450 700 l 326 407 z "},"B":{"ha":791,"x_min":73,"x_max":728,"o":"m 320 836 l 320 467 l 408 472 q 482 493 453 475 q 524 541 511 511 q 540 595 536 571 q 544 648 544 618 q 516 755 544 703 q 441 830 488 807 q 391 838 423 838 q 355 837 380 838 q 320 836 331 836 m 728 220 q 711 146 728 183 q 661 74 694 109 q 567 18 628 39 q 426 -4 506 -4 q 372 -3 416 -4 q 247 -2 327 -3 q 73 -1 167 -1 l 73 20 l 98 24 q 149 39 122 27 q 178 65 175 50 q 178 327 178 133 q 178 610 178 521 q 178 804 178 753 q 133 830 175 819 l 92 844 l 92 867 q 288 866 172 867 q 438 865 404 865 q 541 841 490 865 q 629 766 591 817 q 667 651 667 715 q 667 648 667 650 q 616 516 666 576 q 479 453 567 456 q 728 220 728 430 m 316 430 l 317 92 q 331 36 317 47 q 378 24 345 24 q 541 67 491 24 q 591 208 591 110 q 407 429 591 411 l 316 430 z "},"C":{"ha":944,"x_min":75,"x_max":880,"o":"m 536 869 q 686 845 614 869 q 779 795 757 821 q 804 818 795 806 q 814 840 812 830 q 821 879 817 849 l 864 879 l 860 598 l 833 598 q 739 770 815 708 q 525 831 662 831 q 324 722 392 831 q 254 425 256 612 q 544 11 254 11 q 661 29 610 11 q 747 84 711 47 q 804 157 783 121 q 849 250 825 194 l 880 225 q 541 -31 774 -30 q 205 86 335 -31 q 75 415 75 203 q 106 598 75 517 q 186 728 137 680 q 298 811 235 777 q 420 857 361 845 q 536 869 479 869 z "},"D":{"ha":910,"x_min":66,"x_max":861,"o":"m 861 401 q 835 258 861 328 q 757 128 808 189 q 618 32 705 68 q 420 -4 532 -4 q 366 -3 411 -4 q 240 -2 320 -3 q 66 -1 160 -1 l 66 20 q 186 83 176 30 l 186 766 q 176 797 184 784 q 149 816 168 810 q 120 824 129 822 q 84 829 111 826 l 84 853 q 293 854 164 853 q 456 856 422 856 q 589 832 522 856 q 719 759 655 808 q 822 616 783 709 q 861 401 861 524 m 713 393 q 713 401 713 397 q 701 581 713 509 q 654 709 688 652 q 558 791 620 765 q 403 818 496 818 q 317 814 362 818 q 317 692 317 779 q 317 437 317 617 q 317 193 317 256 q 317 92 317 114 q 338 45 317 66 q 392 24 359 24 q 554 45 491 24 q 652 113 617 65 q 699 226 686 161 q 713 393 712 290 z "},"E":{"ha":791,"x_min":66,"x_max":708,"o":"m 696 0 l 66 0 l 66 22 q 104 20 66 20 q 178 53 171 20 q 190 576 190 126 q 184 793 190 774 q 133 819 182 808 l 84 829 l 84 853 q 405 849 228 849 q 693 853 582 849 l 697 656 l 671 656 q 651 722 665 690 q 605 786 637 754 q 530 818 572 818 l 317 818 l 317 449 l 518 449 q 586 556 581 449 l 618 556 l 618 312 l 591 312 q 514 418 585 418 l 317 418 l 317 94 q 365 27 317 28 l 570 27 q 638 87 605 28 q 678 206 671 146 l 708 206 l 696 0 z "},"F":{"ha":764,"x_min":66,"x_max":697,"o":"m 430 -5 q 258 0 362 0 q 66 -5 153 0 l 66 16 q 138 24 100 16 q 178 47 176 31 q 184 269 180 80 q 189 601 189 458 q 184 793 189 770 q 133 819 182 808 l 84 829 l 84 853 q 404 848 225 848 q 693 853 582 848 l 697 656 l 671 656 q 651 722 665 690 q 605 786 637 754 q 530 818 572 818 l 317 818 l 317 449 l 505 449 q 572 556 567 449 l 604 556 l 604 312 l 578 312 q 500 418 571 418 l 317 418 l 317 88 q 365 20 317 27 q 395 19 376 19 l 430 20 q 430 14 430 20 q 430 3 430 7 q 430 -5 430 -3 z "},"G":{"ha":1013,"x_min":69,"x_max":985,"o":"m 545 871 q 648 850 595 871 q 728 810 700 830 q 780 774 757 789 q 814 810 799 783 q 831 865 829 837 l 867 865 l 863 585 l 821 585 q 541 831 781 831 q 323 732 400 831 q 247 400 247 633 q 275 212 247 297 q 367 71 302 127 q 524 14 431 14 q 653 43 590 14 q 750 119 716 72 q 754 229 754 172 q 750 308 754 279 q 623 343 697 339 l 623 373 l 985 373 l 985 343 q 888 308 910 335 q 883 189 883 297 q 886 -4 883 99 l 863 -4 l 856 16 q 827 60 850 38 q 772 83 804 83 q 669 3 742 38 q 522 -31 597 -31 q 196 87 323 -31 q 69 401 69 205 q 99 589 69 506 q 177 724 129 673 q 289 809 225 774 q 416 857 353 844 q 545 871 479 871 z "},"H":{"ha":1024,"x_min":80,"x_max":949,"o":"m 694 792 q 605 825 694 822 l 602 845 q 716 842 648 842 q 929 849 853 842 l 929 829 q 880 819 929 829 q 829 793 830 808 q 827 661 827 781 q 836 47 827 90 q 941 16 841 16 l 947 16 l 949 -1 q 779 4 884 4 q 591 -3 658 4 l 593 20 q 696 60 696 20 l 696 418 l 317 418 l 317 60 q 420 20 317 20 l 422 -1 q 317 0 378 0 q 80 -5 183 0 l 80 16 q 85 16 80 16 q 178 47 171 16 q 183 296 180 64 q 186 681 186 528 q 184 793 186 785 q 138 819 180 808 l 99 829 l 99 849 q 262 844 163 844 q 423 849 365 844 l 423 822 q 317 791 319 815 l 317 449 l 696 449 l 694 792 z "},"I":{"ha":510,"x_min":80,"x_max":437,"o":"m 332 791 q 332 715 332 789 q 330 528 331 640 q 330 324 330 416 q 332 61 330 140 q 435 22 334 22 l 437 0 q 330 1 393 1 q 80 -4 183 1 l 80 18 q 85 18 80 18 q 191 49 186 18 q 198 793 198 90 q 149 819 198 808 l 99 829 l 99 849 q 263 844 163 844 q 426 849 368 844 l 426 822 q 332 791 332 815 z "},"J":{"ha":522,"x_min":-102,"x_max":435,"o":"m 343 791 q 338 359 338 709 q 338 244 338 316 q 339 141 339 172 q 326 -62 339 15 q 273 -194 312 -138 q 73 -290 203 -290 q -58 -257 -15 -290 q -102 -178 -102 -224 q -77 -115 -102 -141 q -14 -88 -52 -88 q 53 -112 28 -88 q 77 -171 77 -136 q 23 -259 77 -225 q 70 -269 41 -269 q 126 -260 99 -270 q 164 -233 153 -250 q 195 -160 187 -195 q 209 -37 203 -125 q 216 425 216 88 q 210 793 216 751 q 159 819 208 808 l 110 829 l 110 849 q 273 844 174 844 q 435 849 376 844 l 435 822 q 404 820 420 822 q 374 816 388 818 q 353 807 361 814 q 343 791 345 800 z "},"K":{"ha":909,"x_min":80,"x_max":930,"o":"m 639 739 q 646 755 640 743 q 651 772 651 768 q 627 810 650 798 q 582 825 605 823 l 579 845 q 678 842 625 842 q 846 849 772 842 l 846 829 l 826 827 q 779 815 807 825 q 734 789 750 806 q 607 654 669 728 q 475 488 545 581 q 583 342 530 416 q 677 215 636 269 q 783 90 718 161 q 846 42 814 54 q 930 24 878 30 l 928 -1 q 731 7 732 7 q 650 3 688 7 q 389 403 479 278 l 320 313 l 317 60 q 420 20 317 20 l 422 -1 q 317 0 378 0 q 80 -5 183 0 l 80 16 q 85 16 80 16 q 178 47 168 16 q 187 587 187 88 q 184 793 187 779 q 133 819 180 808 l 84 829 l 84 849 q 252 844 148 844 q 423 849 363 844 l 423 822 q 317 791 323 815 l 317 351 l 475 534 q 639 739 631 719 z "},"L":{"ha":796,"x_min":66,"x_max":713,"o":"m 332 92 q 381 31 332 31 q 556 30 381 31 q 640 83 604 30 q 684 206 675 136 l 713 206 l 692 -4 l 66 -4 l 66 18 l 98 19 q 161 31 130 22 q 194 56 193 41 q 201 524 201 129 q 198 793 201 747 q 141 819 197 811 l 84 829 l 84 853 l 433 854 l 433 833 q 335 793 338 827 q 331 403 331 469 q 332 273 331 369 q 332 92 332 176 z "},"M":{"ha":1195,"x_min":27,"x_max":1168,"o":"m 282 850 q 635 164 617 205 l 935 845 l 1168 854 l 1168 827 q 1125 822 1150 826 q 1069 806 1100 818 q 1039 779 1039 795 l 1039 80 l 1050 61 q 1080 31 1061 42 q 1133 19 1100 20 l 1165 22 l 1165 -3 q 982 0 1088 0 q 802 -4 864 0 l 802 18 q 834 20 804 18 q 879 31 864 23 q 916 75 916 47 l 916 689 l 597 -19 l 575 -19 l 218 681 q 218 324 218 681 q 218 95 218 171 q 221 62 218 71 q 234 47 224 53 q 251 34 244 41 q 324 22 281 23 q 328 22 326 22 q 332 22 331 22 l 332 -3 q 189 1 266 1 q 38 -4 103 1 l 38 18 l 92 24 q 163 47 146 33 q 178 69 172 56 l 182 83 q 184 719 184 83 q 127 788 178 760 q 27 821 77 817 l 27 845 l 282 850 z "},"N":{"ha":932,"x_min":27,"x_max":905,"o":"m 905 819 q 862 814 886 818 q 811 802 838 811 q 784 777 784 792 q 780 528 781 732 l 784 -15 l 736 -15 l 477 339 q 205 708 220 693 q 203 519 203 593 q 207 343 203 427 q 210 134 210 259 q 210 80 210 110 q 258 24 210 24 q 336 22 335 24 l 336 -3 q 186 1 270 1 q 27 -4 92 1 l 27 18 q 35 18 27 18 q 153 49 146 18 q 160 522 160 453 q 157 764 160 627 q 94 804 155 779 l 33 829 l 33 853 l 283 852 q 547 502 363 741 l 732 263 l 734 777 q 700 808 732 796 q 623 819 667 819 q 602 819 613 819 l 600 850 q 741 844 656 844 q 905 849 818 844 l 905 819 z "},"O":{"ha":1074,"x_min":66,"x_max":1008,"o":"m 564 11 q 772 127 692 11 q 853 423 853 243 q 774 749 853 637 q 553 860 696 860 q 432 841 486 860 q 330 777 378 822 q 254 642 281 732 q 228 422 228 552 q 237 322 228 373 q 270 214 245 271 q 330 113 294 157 q 427 40 366 69 q 564 11 488 11 m 564 883 q 666 872 613 883 q 783 829 719 861 q 895 749 846 798 q 975 615 943 700 q 1008 423 1008 530 q 966 233 1008 319 q 859 94 925 148 q 715 12 792 41 q 562 -16 637 -16 q 212 101 357 -16 q 66 412 66 218 q 98 609 66 524 q 180 745 130 694 q 299 828 231 796 q 432 871 368 860 q 564 883 496 883 z "},"P":{"ha":762,"x_min":81,"x_max":724,"o":"m 724 606 q 647 445 724 505 q 435 385 570 385 q 361 392 388 385 l 334 400 l 332 64 q 361 27 332 39 q 430 15 389 15 q 453 16 441 15 l 453 -4 q 81 -1 453 -1 l 81 20 q 88 20 81 20 q 193 52 190 20 q 197 406 197 92 q 193 793 197 720 q 146 819 191 811 l 100 829 l 100 853 q 307 852 180 853 q 467 850 433 850 q 642 784 559 850 q 724 606 724 718 m 587 606 q 584 677 587 648 q 569 738 581 707 q 531 789 557 769 q 464 815 505 808 q 407 819 441 819 q 370 819 395 819 q 334 818 346 818 l 334 420 q 425 414 334 414 q 545 471 503 414 q 587 606 586 529 z "},"Q":{"ha":1002,"x_min":50,"x_max":1008,"o":"m 882 -189 q 950 -159 930 -189 q 970 -73 970 -129 q 970 -66 970 -71 l 1008 -58 q 1008 -75 1008 -66 q 972 -229 1008 -165 q 865 -293 937 -293 q 751 -271 806 -293 q 659 -217 697 -248 q 583 -155 620 -186 q 508 -101 547 -123 q 430 -79 469 -79 q 376 -108 400 -79 q 344 -162 353 -137 q 334 -198 335 -187 l 308 -193 q 325 -126 308 -168 q 366 -60 342 -84 q 415 -36 381 -46 q 480 -26 449 -26 q 481 -26 480 -26 q 608 -67 537 -26 q 749 -149 678 -109 q 882 -189 821 -189 m 517 -16 q 183 102 316 -16 q 50 415 50 220 q 81 611 50 526 q 159 747 111 696 q 274 829 208 798 q 403 872 340 861 q 533 883 465 883 q 633 871 582 883 q 745 828 685 860 q 852 747 806 796 q 929 613 898 697 q 960 423 960 529 q 822 113 960 243 q 517 -16 684 -16 m 522 860 q 403 842 454 860 q 305 779 351 823 q 235 644 259 734 q 212 425 212 555 q 218 326 212 374 q 243 218 224 277 q 294 115 263 159 q 380 41 324 71 q 509 11 435 11 q 595 18 556 11 q 663 37 633 24 q 714 69 692 49 q 751 108 736 90 q 776 157 765 126 q 792 211 787 187 q 800 272 798 235 q 804 334 803 309 q 804 400 804 359 q 797 546 804 480 q 770 672 789 612 q 719 772 750 732 q 637 836 688 812 q 522 860 587 860 z "},"R":{"ha":863,"x_min":66,"x_max":854,"o":"m 854 -3 l 609 1 q 609 12 609 7 q 572 199 609 62 q 407 429 510 427 l 316 430 l 317 94 q 320 60 317 73 q 334 37 323 47 q 365 26 345 26 q 425 23 425 24 l 423 -3 q 221 3 347 3 q 66 -1 121 3 l 66 22 q 178 53 172 22 q 183 100 183 75 q 189 446 189 237 q 183 789 189 757 q 133 815 180 804 l 84 826 l 84 850 q 274 848 164 848 q 387 848 319 848 q 473 849 454 849 q 576 825 525 849 q 665 751 628 802 q 703 637 703 701 q 636 512 703 568 q 479 453 570 456 q 556 429 521 449 q 613 388 591 410 q 657 326 635 366 q 688 260 680 285 q 715 189 697 236 q 769 61 757 77 q 854 16 799 19 l 854 -3 m 467 814 q 392 821 437 821 q 317 817 351 821 l 317 463 q 411 461 410 461 q 527 514 487 461 q 567 640 567 567 q 540 753 567 703 q 467 814 513 803 z "},"S":{"ha":796,"x_min":113,"x_max":724,"o":"m 408 886 q 586 808 513 886 q 640 865 620 812 l 659 865 l 655 602 q 629 602 655 602 q 618 692 625 650 q 589 766 612 735 q 406 860 525 860 q 297 810 342 860 q 252 708 252 761 q 307 601 252 651 q 450 518 361 551 q 649 400 574 472 q 724 239 724 328 q 648 52 724 123 q 396 -20 572 -20 q 323 -12 358 -20 q 265 8 288 -4 q 222 33 243 20 q 191 54 201 46 q 141 -1 164 42 l 113 -1 l 115 245 l 142 245 q 222 73 165 134 q 391 12 278 12 q 581 195 581 12 q 380 385 581 315 q 209 493 271 423 q 146 642 146 563 q 408 886 145 886 z "},"T":{"ha":814,"x_min":47,"x_max":784,"o":"m 315 50 q 345 127 345 88 l 346 821 q 203 822 205 822 q 145 798 171 822 q 106 737 119 773 q 83 667 92 701 q 73 601 75 632 l 47 601 l 53 853 q 439 849 205 849 q 780 853 661 849 l 784 601 l 757 601 q 644 819 745 818 l 486 821 l 487 127 q 513 50 487 80 q 624 24 533 26 l 624 -1 l 208 -1 l 208 24 q 216 24 210 24 q 224 24 221 24 q 315 50 296 26 z "},"U":{"ha":1034,"x_min":71,"x_max":966,"o":"m 326 296 q 340 169 326 222 q 376 86 354 115 q 431 40 397 57 q 492 18 464 23 q 559 14 521 14 q 650 27 612 14 q 722 72 689 41 q 771 162 754 103 q 788 308 788 221 q 788 345 788 323 q 788 406 788 368 q 783 793 788 593 q 724 819 780 808 l 669 829 l 669 849 q 817 844 732 844 q 966 849 906 844 l 966 822 q 846 791 902 818 q 842 583 842 705 l 846 324 q 768 70 846 160 q 534 -26 689 -20 q 441 -17 487 -26 q 346 15 395 -8 q 261 74 297 38 q 201 169 225 110 q 178 302 178 228 q 180 347 178 307 q 184 461 182 387 q 187 627 187 536 q 184 793 187 709 q 126 819 182 808 l 71 829 l 71 849 q 248 844 134 844 q 430 849 370 844 l 430 822 q 326 791 350 815 q 324 574 324 701 l 326 296 z "},"V":{"ha":949,"x_min":0,"x_max":949,"o":"m 282 747 q 529 168 397 461 q 776 777 776 742 q 749 807 776 796 l 667 829 l 667 849 q 810 844 731 844 q 949 849 890 844 l 949 822 q 860 799 894 819 q 826 758 848 791 l 806 727 q 663 366 769 620 q 515 -19 557 111 l 461 -20 q 288 385 393 145 q 157 689 183 624 q 76 803 121 781 q 0 829 42 819 l 0 849 q 194 844 64 844 q 395 849 334 844 l 395 822 q 294 799 302 814 q 285 766 288 785 l 282 747 z "},"W":{"ha":1374,"x_min":33,"x_max":1378,"o":"m 498 -15 l 445 -15 q 189 690 445 -15 q 109 803 155 780 q 33 829 75 819 l 33 849 q 239 844 96 844 q 454 849 395 844 l 454 822 q 392 810 437 821 q 343 791 347 799 q 336 749 336 776 q 350 670 336 711 q 407 512 376 595 q 473 340 438 429 q 521 214 507 251 q 684 704 586 392 l 732 863 l 768 861 q 890 522 791 770 q 1019 187 989 273 q 1080 370 1028 218 q 1168 637 1131 521 q 1204 774 1204 754 q 1176 804 1204 793 l 1095 826 l 1095 846 q 1237 841 1158 841 q 1378 846 1317 841 l 1378 819 q 1287 796 1322 817 q 1255 755 1275 788 l 1233 724 q 1156 490 1206 639 q 1068 218 1107 340 q 997 -15 1029 96 l 951 -15 q 881 176 924 69 q 783 410 838 282 q 704 594 727 538 q 608 317 689 545 q 498 -15 528 90 z "},"X":{"ha":997,"x_min":52,"x_max":963,"o":"m 766 739 l 566 457 q 652 326 566 457 q 798 111 738 194 q 864 39 844 47 q 963 11 898 26 l 963 -8 q 768 -3 899 -3 q 568 -8 628 -3 l 568 18 q 655 39 648 24 q 659 60 659 47 q 652 94 659 81 q 535 272 608 164 q 463 378 463 380 q 370 252 412 311 q 307 163 328 193 q 269 113 285 134 q 248 85 252 92 q 241 74 243 77 q 240 68 240 71 q 267 34 240 42 l 349 11 l 349 -8 q 206 -3 285 -3 q 65 -8 126 -3 l 65 18 q 156 42 121 20 q 191 75 168 50 l 217 102 l 446 406 l 220 745 q 138 811 198 774 q 113 820 130 817 q 75 826 95 823 q 52 829 54 829 l 52 849 q 252 844 115 844 q 460 849 400 844 l 460 822 q 373 799 384 815 q 369 777 369 789 q 372 757 369 766 l 374 747 l 537 481 q 718 729 692 693 q 743 772 743 765 q 716 807 743 798 l 635 829 l 635 849 q 777 844 699 844 q 918 849 857 844 l 918 822 q 827 799 863 819 q 792 764 815 791 l 766 739 z "},"Y":{"ha":875,"x_min":18,"x_max":857,"o":"m 388 335 q 156 745 296 551 q 95 803 125 788 q 18 829 61 819 l 18 849 q 206 844 81 844 q 399 849 339 844 l 399 822 q 312 799 323 815 q 302 766 305 785 l 300 750 q 488 408 392 571 q 686 779 685 760 q 655 807 686 798 l 574 829 l 574 849 q 716 844 637 844 q 857 849 796 844 l 857 822 q 766 799 802 819 q 734 769 754 791 l 713 747 q 517 392 553 471 q 522 47 517 340 q 633 14 522 14 l 633 -12 l 264 -12 l 264 9 q 279 9 269 9 q 381 41 380 9 q 388 335 384 199 z "},"Z":{"ha":814,"x_min":69,"x_max":758,"o":"m 69 9 q 575 823 349 426 l 255 818 q 208 805 229 818 q 175 777 187 792 q 152 734 163 761 q 138 694 141 707 q 129 656 134 681 l 103 656 l 107 853 q 388 845 232 845 q 743 853 510 845 l 743 823 l 336 151 q 283 22 283 57 q 294 8 283 8 q 600 16 536 8 q 677 85 635 20 q 728 206 720 149 l 758 206 l 727 -12 q 419 -9 571 -9 q 69 -12 328 -9 l 69 9 z "},"[":{"ha":382,"x_min":140,"x_max":355,"o":"m 140 928 l 355 928 l 355 898 l 225 898 l 225 -141 l 355 -141 l 355 -178 l 140 -178 l 140 928 z "},"\\":{"ha":419,"x_min":18,"x_max":401,"o":"m 91 985 l 401 -178 l 330 -197 l 18 966 l 91 985 z "},"]":{"ha":382,"x_min":43,"x_max":258,"o":"m 258 928 l 258 -178 l 43 -178 l 43 -141 l 174 -141 l 174 898 l 43 898 l 43 928 l 258 928 z "},"^":{"ha":571,"x_min":98,"x_max":452,"o":"m 98 614 l 285 819 l 452 618 l 433 602 l 281 743 l 117 602 l 98 614 z "},"_":{"ha":720,"x_min":61,"x_max":650,"o":"m 61 -26 l 650 -26 l 650 -94 l 61 -94 l 61 -26 z "},"`":{"ha":571,"x_min":137,"x_max":389,"o":"m 137 796 l 176 842 l 389 647 l 358 627 l 137 796 z "},"a":{"ha":633,"x_min":69,"x_max":635,"o":"m 614 113 l 635 100 q 505 -9 617 -9 q 435 21 458 -9 q 408 94 412 52 q 367 49 381 62 q 313 12 353 35 q 235 -12 274 -12 q 118 26 167 -12 q 69 146 69 64 q 85 210 69 183 q 128 254 100 237 q 184 282 156 271 q 251 298 213 293 q 314 304 289 302 q 370 306 339 305 q 403 307 400 307 q 407 407 407 307 q 289 536 407 536 q 224 518 248 536 q 194 476 199 500 q 233 416 233 476 q 209 364 233 380 q 161 349 184 349 q 115 372 136 349 q 95 425 95 396 q 159 522 95 475 q 301 562 210 562 q 453 509 387 562 q 519 365 519 456 q 517 240 519 320 q 514 125 514 160 q 556 35 514 34 q 593 53 581 35 q 614 113 605 71 m 403 127 l 403 288 q 315 279 355 283 q 247 264 275 274 q 202 229 218 254 q 186 161 186 205 q 215 76 186 103 q 289 49 244 49 q 403 127 359 49 z "},"b":{"ha":708,"x_min":42,"x_max":667,"o":"m 667 278 q 589 67 667 148 q 414 -14 511 -14 q 239 85 331 -14 q 202 31 221 66 q 179 -9 183 -4 q 159 -11 168 -11 l 140 -9 q 144 423 144 170 q 140 808 144 659 q 42 837 140 831 l 42 854 q 254 894 183 861 l 248 445 q 292 500 274 481 q 348 540 311 519 q 427 560 385 560 q 600 490 532 560 q 667 278 667 420 m 538 282 q 532 361 538 324 q 513 435 526 397 q 469 495 499 472 q 397 518 439 518 q 328 491 361 518 q 279 438 294 464 l 264 411 l 254 286 l 258 117 l 270 98 q 312 57 281 77 q 385 37 343 37 q 496 106 453 37 q 538 282 538 175 z "},"c":{"ha":589,"x_min":69,"x_max":562,"o":"m 349 563 q 493 517 426 563 q 560 406 560 472 q 533 326 560 353 q 479 298 506 298 q 403 372 403 298 q 420 422 403 401 q 460 444 438 444 q 506 425 484 444 q 346 538 479 538 q 236 458 281 538 q 191 258 191 378 q 239 96 191 167 q 358 24 288 24 q 433 38 401 24 q 483 79 464 52 q 507 119 502 107 q 524 160 513 132 l 562 133 q 486 30 541 80 q 346 -20 431 -20 q 144 57 218 -20 q 69 285 69 134 q 98 414 69 358 q 171 501 126 471 q 260 547 216 532 q 349 563 305 563 z "},"d":{"ha":680,"x_min":83,"x_max":681,"o":"m 610 890 q 602 359 604 661 q 606 45 602 153 q 617 29 606 35 q 639 21 628 23 q 664 18 650 19 q 681 16 678 16 l 681 0 q 507 -14 540 -5 l 496 85 q 419 20 467 47 q 324 -8 372 -8 q 150 67 217 -8 q 83 264 83 142 q 159 476 83 393 q 353 559 235 559 q 419 545 389 559 q 463 517 449 532 q 486 488 477 502 l 494 475 l 494 812 q 396 841 488 840 l 397 864 q 610 890 536 864 m 484 178 l 494 302 l 487 425 l 480 442 q 458 477 472 457 q 416 513 445 498 q 354 529 388 529 q 221 277 221 529 q 358 37 221 37 q 446 85 407 37 q 484 178 484 133 z "},"e":{"ha":610,"x_min":69,"x_max":571,"o":"m 205 315 l 449 316 q 450 359 450 339 q 444 427 450 401 q 399 498 433 471 q 317 526 366 526 q 239 469 267 526 q 205 315 210 412 m 203 294 l 203 264 q 239 88 203 167 q 343 9 275 9 q 468 56 422 9 q 532 152 514 102 l 570 125 q 491 25 549 73 q 338 -23 433 -23 q 146 49 222 -23 q 69 258 69 121 q 96 398 69 338 q 166 490 122 458 q 255 537 210 522 q 347 552 300 552 q 484 513 420 552 q 566 385 547 473 q 571 331 571 358 q 570 296 571 316 l 203 294 z "},"f":{"ha":528,"x_min":102,"x_max":652,"o":"m 452 0 q 270 5 372 5 q 102 0 168 5 l 102 24 q 218 60 217 24 l 224 513 l 110 513 l 110 543 l 224 543 q 224 572 224 557 q 460 910 224 910 q 587 878 522 910 q 652 792 652 845 q 633 728 652 757 q 575 699 614 699 q 530 720 548 699 q 513 764 513 741 q 525 798 513 781 q 551 819 537 814 l 563 826 q 529 874 562 860 q 456 888 496 888 q 365 842 396 888 q 334 671 332 792 q 335 589 334 614 q 336 543 336 563 l 465 543 l 465 513 l 336 513 l 345 60 q 366 33 346 42 q 411 23 387 23 q 452 24 425 23 l 452 0 z "},"g":{"ha":647,"x_min":56,"x_max":640,"o":"m 600 458 q 562 484 583 458 q 536 510 541 510 q 484 488 502 510 l 500 476 q 528 431 514 464 q 541 357 541 399 q 471 207 541 262 q 326 152 401 152 q 251 164 289 152 l 214 175 l 199 170 q 172 149 186 163 q 157 121 159 134 q 245 76 159 76 q 414 66 365 76 q 544 18 499 52 q 589 -98 589 -16 q 500 -258 589 -199 q 278 -317 411 -317 q 111 -275 165 -317 q 56 -174 56 -233 q 96 -92 56 -125 q 213 -31 136 -60 q 206 -31 212 -31 q 199 -31 201 -31 q 125 -3 160 -31 q 90 77 90 26 q 107 130 90 104 q 142 165 125 155 q 186 189 159 175 q 166 210 180 193 q 136 245 152 227 q 110 293 121 263 q 99 353 99 323 q 160 488 99 429 q 313 548 221 548 q 397 538 358 548 q 452 519 435 529 l 468 510 q 576 566 530 566 q 640 514 640 566 q 600 458 640 458 m 441 354 q 403 479 441 434 q 320 525 365 525 q 243 476 279 525 q 206 357 206 427 q 238 228 206 281 q 324 175 270 175 q 408 218 374 175 q 441 354 441 262 m 499 -160 q 447 -58 499 -83 q 251 -34 395 -34 l 228 -45 q 178 -87 203 -54 q 153 -164 153 -119 q 190 -254 153 -213 q 301 -294 227 -294 q 448 -254 396 -294 q 499 -160 499 -214 z "},"h":{"ha":764,"x_min":83,"x_max":736,"o":"m 83 861 l 84 861 q 281 891 194 861 l 278 416 q 310 464 298 450 q 345 503 321 477 q 397 539 368 528 q 464 551 426 551 q 551 528 513 551 q 608 471 589 505 q 635 405 627 437 q 644 350 644 373 q 644 211 644 309 q 644 83 644 113 q 644 50 644 52 q 663 31 644 38 q 694 24 682 24 q 736 22 705 23 l 736 0 q 590 5 680 5 q 445 0 496 5 l 445 22 q 465 23 453 23 q 488 24 476 23 q 511 29 500 26 q 527 37 521 33 q 533 49 533 42 q 533 50 533 49 l 533 373 q 441 499 533 498 q 353 473 385 499 q 278 382 321 446 l 278 50 q 295 30 278 37 q 333 23 312 23 q 372 22 354 23 l 372 0 q 221 5 311 5 q 83 0 136 5 l 83 22 q 138 30 107 22 q 170 50 170 38 q 172 260 170 100 q 174 513 174 420 q 170 811 174 707 q 146 826 160 821 q 123 833 133 831 q 83 838 113 834 l 83 861 z "},"i":{"ha":425,"x_min":96,"x_max":385,"o":"m 231 869 q 288 847 262 869 q 313 795 313 825 q 290 734 313 758 q 231 711 266 711 q 180 732 205 711 q 156 787 156 754 q 180 845 156 821 q 231 869 203 869 m 293 572 q 290 50 290 338 q 385 22 296 23 l 385 0 q 237 4 330 4 q 96 0 149 4 l 96 22 q 182 50 178 24 l 182 506 q 96 519 140 519 l 96 541 q 293 572 218 548 z "},"j":{"ha":430,"x_min":-43,"x_max":331,"o":"m 302 572 q 300 -19 300 338 q 230 -208 300 -133 q 92 -283 160 -283 q 2 -256 47 -283 q -43 -187 -43 -229 q -21 -109 -43 -134 q 34 -84 1 -84 q 75 -103 58 -84 q 92 -146 92 -122 q 49 -210 92 -199 q 71 -234 53 -225 q 107 -243 90 -243 q 182 -205 161 -243 q 191 -19 191 -187 l 191 506 q 165 513 178 511 q 136 517 153 515 q 106 519 118 518 l 106 541 q 302 572 172 541 m 262 869 q 309 844 288 869 q 331 795 331 819 q 308 739 331 769 q 258 708 285 708 q 193 730 217 708 q 170 795 170 751 q 199 849 170 829 q 262 869 229 869 z "},"k":{"ha":723,"x_min":42,"x_max":682,"o":"m 270 267 l 250 244 q 247 138 247 201 q 248 71 247 99 q 262 43 250 54 q 286 28 273 33 q 345 22 298 24 l 345 0 q 203 4 293 4 q 42 0 107 4 l 42 22 q 141 50 141 27 q 146 461 145 176 q 141 825 146 693 q 42 853 125 849 l 42 875 q 49 875 45 875 q 252 906 122 875 l 248 279 l 385 435 q 404 479 404 458 q 373 507 404 502 q 374 522 373 511 q 374 536 374 532 l 602 536 l 602 510 q 445 456 490 499 l 336 323 q 429 222 381 277 q 529 113 476 167 q 615 37 583 58 q 675 16 647 16 q 682 16 678 16 l 682 -3 l 495 -5 q 436 78 479 26 q 351 176 393 130 q 270 267 309 222 z "},"l":{"ha":369,"x_min":56,"x_max":355,"o":"m 264 891 q 258 598 259 761 q 260 355 258 533 q 262 50 262 176 q 298 30 264 37 q 355 22 332 23 l 355 0 q 213 7 296 7 q 56 0 117 7 l 56 22 q 148 50 145 26 q 152 407 152 179 q 148 811 152 650 q 56 838 114 838 l 56 861 q 264 891 127 865 z "},"m":{"ha":1103,"x_min":83,"x_max":1061,"o":"m 444 551 q 614 419 583 551 q 661 486 642 463 q 715 530 681 510 q 791 551 749 551 q 970 335 970 551 l 970 57 q 986 32 970 39 q 1029 24 1002 24 q 1061 22 1055 23 l 1061 0 q 935 4 1021 4 q 769 0 841 4 l 769 22 q 859 50 859 30 q 860 359 860 50 q 840 467 860 434 q 766 499 819 499 q 693 473 728 499 q 642 422 658 448 l 625 396 l 625 50 q 658 31 625 39 q 719 22 690 23 l 719 0 q 571 4 662 4 q 414 0 472 4 l 414 22 q 503 50 503 26 l 503 361 q 487 468 503 437 q 419 499 471 499 q 341 460 385 499 q 278 368 297 422 l 278 50 q 372 22 278 26 l 372 0 q 209 4 296 4 q 83 0 132 4 l 83 22 q 137 25 104 20 q 170 50 170 30 q 174 332 174 231 q 170 506 174 445 q 119 521 168 521 q 83 519 102 521 l 83 541 q 114 540 98 540 q 266 568 198 540 l 283 423 q 307 458 296 441 q 332 493 317 476 q 363 522 347 510 q 399 543 378 534 q 444 551 420 551 z "},"n":{"ha":780,"x_min":90,"x_max":753,"o":"m 90 528 q 115 526 102 526 q 275 553 191 526 l 286 419 q 469 551 372 549 q 551 536 515 551 q 608 498 587 521 q 641 446 628 476 q 659 390 654 416 q 663 336 663 363 l 663 58 q 696 33 663 45 q 753 22 728 22 l 753 0 q 583 5 616 5 q 461 0 514 5 l 461 22 q 519 34 488 23 q 551 57 551 45 q 552 332 552 57 q 526 453 552 407 q 446 499 499 499 q 353 457 403 499 q 283 354 302 415 l 283 52 q 378 22 283 30 l 378 0 q 231 4 323 4 q 90 0 142 4 l 90 22 q 146 33 117 22 q 175 57 175 43 q 178 275 178 140 q 175 487 178 404 q 90 506 149 500 l 90 528 z "},"o":{"ha":659,"x_min":69,"x_max":632,"o":"m 358 11 q 472 79 431 11 q 513 274 513 146 q 469 459 513 380 q 355 538 426 538 q 274 513 308 538 q 224 443 240 487 q 201 355 209 399 q 194 264 194 312 q 237 81 194 152 q 358 11 281 11 m 343 566 q 548 481 464 566 q 632 289 632 397 q 562 67 632 157 q 354 -23 491 -23 q 69 288 69 -23 q 153 487 69 408 q 343 566 237 566 z "},"p":{"ha":705,"x_min":42,"x_max":663,"o":"m 267 396 l 255 255 l 256 91 q 403 30 311 30 q 490 92 460 30 q 519 263 519 153 q 491 439 519 374 q 411 503 463 503 q 267 396 320 503 m 42 540 q 245 566 148 540 l 264 441 q 342 532 301 499 q 444 564 382 564 q 597 481 532 564 q 663 288 663 397 q 594 80 663 168 q 395 -8 525 -8 q 255 54 315 -8 l 256 -244 q 305 -269 266 -259 q 377 -278 345 -278 l 374 -297 q 202 -293 307 -293 q 45 -297 98 -293 l 45 -278 q 140 -244 140 -275 q 146 190 145 -83 q 142 491 146 380 q 42 519 87 517 l 42 540 z "},"q":{"ha":705,"x_min":83,"x_max":705,"o":"m 491 419 q 347 532 435 532 q 260 456 293 532 q 228 267 228 381 q 257 96 228 159 q 342 33 286 33 q 408 49 377 33 q 454 83 439 65 q 483 123 469 102 l 499 146 l 499 300 l 491 419 m 614 551 q 612 117 614 407 q 609 -244 609 -172 q 705 -277 609 -274 l 705 -296 q 530 -289 557 -289 q 407 -296 465 -289 l 411 -277 q 498 -244 490 -277 l 499 96 q 316 -19 416 -19 q 146 60 210 -19 q 83 270 83 140 q 100 361 83 313 q 147 456 117 410 q 233 532 178 502 q 354 562 288 562 q 437 524 393 562 q 509 444 480 486 q 547 489 525 456 q 568 544 568 522 l 614 551 z "},"r":{"ha":586,"x_min":83,"x_max":567,"o":"m 460 564 q 539 534 511 564 q 567 446 567 503 q 544 384 567 412 q 491 355 521 355 q 446 374 469 355 q 422 419 423 393 q 461 476 422 449 q 447 500 457 488 q 415 513 437 513 q 342 471 377 513 q 293 389 308 430 l 278 347 l 281 57 q 374 22 282 30 l 374 0 q 227 4 317 4 q 85 0 141 4 l 85 22 q 139 35 106 23 q 172 57 172 47 l 172 506 q 85 519 155 517 l 83 541 q 267 568 160 541 l 282 406 q 349 514 304 464 q 460 564 393 564 z "},"s":{"ha":541,"x_min":83,"x_max":495,"o":"m 270 -18 q 205 -4 243 -18 q 141 22 167 9 l 118 37 l 111 -3 l 85 -3 l 83 187 l 106 184 q 155 63 113 118 q 270 8 197 8 q 397 111 397 8 q 236 244 397 186 q 130 302 167 269 q 92 395 92 336 q 148 523 92 476 q 294 570 203 570 q 366 556 334 570 q 410 530 397 543 l 422 517 l 426 557 l 452 557 l 449 387 l 425 387 q 420 416 422 406 q 414 450 419 426 q 399 487 408 473 q 374 516 389 500 q 335 539 359 532 q 281 547 311 547 q 212 520 239 547 q 186 453 186 494 q 196 412 186 430 q 224 380 206 393 q 260 360 243 368 q 305 343 278 353 q 346 328 332 334 q 495 165 495 262 q 441 25 495 68 q 270 -18 387 -18 z "},"t":{"ha":525,"x_min":71,"x_max":496,"o":"m 439 524 l 296 524 q 296 155 296 524 q 314 61 296 96 q 363 26 332 26 q 422 54 399 26 q 467 140 446 83 l 496 125 q 475 75 484 92 q 448 34 465 57 q 404 1 430 11 q 342 -9 378 -9 q 220 37 260 -9 q 193 94 201 57 q 184 203 184 132 l 184 524 l 71 524 l 71 541 q 150 559 103 541 q 214 600 197 578 q 250 665 232 623 q 267 750 267 708 l 298 750 q 293 617 293 707 q 293 587 293 608 q 293 556 293 567 l 448 559 l 439 524 z "},"u":{"ha":753,"x_min":83,"x_max":728,"o":"m 83 536 q 279 551 202 536 l 277 179 q 350 23 279 23 q 426 51 389 23 q 486 111 463 79 q 522 172 509 144 l 536 199 l 536 498 q 456 514 510 514 l 456 536 q 655 551 583 536 l 644 281 q 644 213 644 251 l 646 38 q 728 22 662 24 l 728 5 q 543 -20 625 0 l 533 127 l 517 106 q 475 57 500 84 q 410 7 449 30 q 334 -15 370 -15 q 202 34 240 -15 q 164 176 164 83 l 163 503 q 83 514 141 514 l 83 536 z "},"v":{"ha":749,"x_min":42,"x_max":708,"o":"m 353 536 l 350 517 q 277 477 277 517 q 281 458 277 469 l 427 98 l 562 458 q 566 479 566 469 q 551 503 566 494 q 524 514 537 513 q 488 517 511 515 l 491 536 q 593 532 526 532 q 708 536 665 532 l 705 517 q 640 500 659 517 q 602 442 620 484 l 430 -14 l 358 -14 l 148 461 q 112 503 134 492 q 42 517 90 514 l 45 536 q 229 529 180 529 q 353 536 300 529 z "},"w":{"ha":1073,"x_min":50,"x_max":1039,"o":"m 637 537 l 667 437 l 773 98 l 899 460 q 901 471 901 465 q 873 506 901 492 q 821 521 846 519 l 823 540 q 932 533 869 533 q 1039 540 996 533 l 1036 521 q 968 496 997 518 q 929 446 939 475 l 770 -14 l 707 -14 l 559 392 l 401 -14 l 339 -14 l 182 437 q 50 514 159 509 l 53 536 q 232 532 144 532 q 372 536 317 532 l 369 517 q 366 517 368 517 q 322 501 346 517 q 298 467 298 486 q 300 458 298 463 l 406 98 l 538 439 l 570 537 l 637 537 z "},"x":{"ha":732,"x_min":61,"x_max":713,"o":"m 416 -3 l 416 16 q 467 26 449 16 q 484 46 484 37 q 481 57 484 52 q 474 69 479 62 q 467 81 469 76 l 361 229 l 256 100 q 236 54 236 76 q 308 16 236 16 l 305 -3 q 184 1 255 1 q 61 -3 114 1 l 64 16 q 142 37 106 16 q 216 102 178 58 l 347 252 l 197 458 q 172 486 187 473 l 157 500 q 129 513 138 511 q 90 517 119 515 l 90 536 q 235 529 155 529 q 372 536 317 529 l 369 517 q 325 509 338 517 q 312 490 312 500 q 316 469 312 480 l 323 458 l 416 317 l 521 448 q 533 480 533 463 q 469 517 533 517 l 472 536 q 576 532 519 532 q 678 536 640 532 l 675 517 q 617 507 637 517 q 566 464 591 495 l 433 300 l 578 103 q 633 45 602 66 q 713 16 670 19 l 708 -3 q 547 1 631 1 q 416 -3 464 1 z "},"y":{"ha":743,"x_min":42,"x_max":730,"o":"m 353 536 l 350 517 q 304 510 317 517 q 292 481 292 503 q 300 445 292 469 l 437 98 l 583 437 q 593 476 593 460 q 585 500 593 491 q 561 513 578 510 q 532 517 544 517 q 496 518 519 518 l 499 537 q 621 532 547 532 q 730 538 696 532 l 727 519 q 662 509 674 519 q 618 427 643 491 l 374 -153 q 297 -267 345 -225 q 174 -311 244 -312 q 85 -280 127 -311 q 42 -206 42 -250 q 64 -142 42 -163 q 115 -121 85 -121 q 176 -138 149 -121 q 203 -187 203 -155 q 149 -256 203 -235 q 206 -273 168 -271 q 274 -232 228 -273 q 380 -23 327 -182 l 172 456 q 125 503 159 491 q 47 517 102 511 l 47 536 q 190 532 106 532 q 353 536 292 532 z "},"z":{"ha":631,"x_min":91,"x_max":600,"o":"m 121 541 l 594 544 l 600 517 q 227 38 248 104 l 448 42 q 524 87 492 43 q 560 213 556 132 l 585 213 l 570 0 l 95 0 l 91 56 q 307 313 144 117 q 472 511 471 509 l 206 507 q 166 480 180 507 q 150 420 152 453 q 142 357 148 387 l 114 357 l 121 541 z "},"{":{"ha":382,"x_min":31,"x_max":355,"o":"m 140 358 l 31 358 l 31 411 l 140 411 l 140 928 l 355 928 l 355 898 l 225 898 l 225 -141 l 355 -141 l 355 -178 l 140 -178 l 140 358 z "},"|":{"ha":419,"x_min":172,"x_max":247,"o":"m 172 996 l 247 996 l 247 -209 l 172 -209 l 172 996 z "},"}":{"ha":382,"x_min":43,"x_max":362,"o":"m 258 928 l 258 411 l 362 411 l 362 358 l 258 358 l 258 -178 l 43 -178 l 43 -141 l 174 -141 l 174 898 l 43 898 l 43 928 l 258 928 z "}," ":{"ha":277,"x_min":0,"x_max":0,"o":""},"¡":{"ha":576,"x_min":203,"x_max":384,"o":"m 328 528 q 369 24 328 528 q 369 22 369 23 q 278 -16 369 -18 q 219 -7 235 -16 q 203 20 203 1 q 278 525 203 84 q 278 528 278 525 l 328 528 m 305 643 q 245 670 267 643 q 222 727 222 697 q 246 783 222 754 q 301 811 270 811 q 384 727 382 811 q 305 643 382 643 z "},"£":{"ha":694,"x_min":62,"x_max":674,"o":"m 228 75 q 180 99 198 99 q 148 82 163 99 q 133 31 133 65 q 199 -31 133 -30 q 290 8 260 -31 q 228 75 248 58 m 186 294 l 75 294 l 75 339 l 163 340 q 149 414 149 376 q 223 574 149 519 q 391 628 297 628 q 545 581 487 628 q 610 452 604 534 l 566 445 q 399 585 541 585 q 300 546 336 585 q 264 435 264 507 q 304 343 264 395 l 559 347 l 559 293 l 346 293 q 391 237 377 258 l 559 239 l 559 184 l 411 186 q 412 172 412 179 q 404 103 412 132 q 380 60 395 75 q 351 24 366 46 q 484 -22 410 -23 q 586 12 545 -22 q 627 109 627 46 q 627 119 627 113 q 626 131 627 125 q 625 138 625 137 l 669 151 q 671 127 669 142 q 674 103 674 111 q 509 -127 674 -127 q 305 -12 429 -127 q 243 -65 275 -47 q 174 -84 206 -84 q 91 -47 119 -84 q 62 22 62 -11 q 93 105 62 69 q 182 141 123 141 q 320 52 250 141 q 334 104 334 72 q 325 153 334 136 q 297 187 316 171 l 75 190 l 75 235 l 239 236 q 186 294 206 264 z "},"¤":{"ha":694,"x_min":53,"x_max":631,"o":"m 304 80 q 351 14 304 14 q 472 14 351 14 q 550 81 507 15 q 600 206 593 148 l 631 206 l 598 -12 l 53 -12 l 53 9 l 109 18 q 164 41 163 26 q 174 275 170 83 l 53 275 l 53 336 l 175 336 q 175 410 175 374 l 53 410 l 53 471 l 176 471 q 176 495 176 483 q 171 682 176 665 q 119 708 168 697 l 71 718 l 71 742 q 349 738 214 738 q 595 742 484 738 l 600 545 l 574 545 q 553 611 567 579 q 507 675 540 643 q 433 707 475 707 l 304 707 l 304 471 l 547 471 l 547 410 l 304 410 l 304 336 l 547 336 l 547 275 l 304 275 l 304 80 z "},"¦":{"ha":419,"x_min":172,"x_max":247,"o":"m 172 996 l 247 996 l 247 522 l 172 522 l 172 996 m 247 285 l 247 -209 l 172 -209 l 172 285 l 247 285 z "},"§":{"ha":505,"x_min":53,"x_max":475,"o":"m 198 256 q 101 317 140 274 q 62 422 62 361 q 118 550 62 503 q 266 597 174 597 q 336 584 305 597 q 378 559 366 571 l 391 544 l 395 585 l 435 585 l 423 414 l 393 414 q 389 451 391 439 q 378 491 388 463 q 355 534 369 519 q 315 562 342 548 q 251 575 288 575 q 157 480 156 575 q 165 439 157 457 q 190 412 172 422 q 220 396 208 401 q 262 382 233 391 q 301 369 290 373 q 432 302 389 338 q 475 201 475 266 q 343 20 475 57 q 441 -41 408 -5 q 475 -132 475 -76 q 240 -326 475 -324 q 176 -311 213 -326 q 118 -283 140 -297 l 96 -270 l 80 -308 l 58 -308 l 53 -119 l 84 -121 q 133 -242 91 -187 q 247 -297 175 -297 q 374 -194 374 -297 q 203 -77 374 -127 q 102 -16 142 -60 q 62 90 62 27 q 98 198 62 155 q 198 256 134 241 m 374 138 q 247 241 374 198 q 180 214 203 240 q 157 148 157 187 q 168 101 157 121 q 197 73 179 81 q 239 56 216 64 q 285 42 262 47 q 374 138 374 54 z "},"¨":{"ha":571,"x_min":133,"x_max":425,"o":"m 133 711 q 146 745 133 731 q 175 758 159 758 q 206 745 193 758 q 220 712 220 732 q 207 678 220 692 q 178 665 194 665 q 146 678 160 665 q 133 711 133 692 m 340 711 q 353 745 340 731 q 382 758 365 758 q 412 745 400 758 q 425 712 425 732 q 412 678 425 692 q 384 665 400 665 q 353 678 366 665 q 340 711 340 692 z "},"©":{"ha":694,"x_min":19,"x_max":670,"o":"m 359 483 q 431 471 397 483 q 476 448 465 460 q 496 487 491 456 l 517 487 l 515 353 l 495 353 q 351 454 481 454 q 221 270 221 454 q 251 134 221 184 q 358 83 281 83 q 445 106 419 83 q 495 184 471 130 l 521 174 q 358 52 469 52 q 197 107 259 52 q 134 266 134 163 q 175 397 134 345 q 263 466 216 449 q 359 483 311 483 m 115 511 q 162 559 115 511 q 345 606 210 606 q 574 511 479 606 q 670 282 670 416 q 574 52 670 148 q 345 -43 479 -43 q 115 52 210 -43 q 19 282 19 148 q 115 511 19 416 m 551 488 q 508 531 551 488 q 345 574 465 574 q 138 488 224 574 q 53 282 53 403 q 138 76 53 161 q 345 -9 224 -9 q 551 76 465 -9 q 636 282 636 161 q 551 488 636 403 z "},"«":{"ha":682,"x_min":79,"x_max":621,"o":"m 621 515 l 621 491 l 416 273 l 416 254 l 609 58 l 609 27 l 316 248 l 316 283 l 621 515 m 444 515 l 444 491 l 199 273 l 199 254 l 430 58 l 430 27 l 79 248 l 79 283 l 444 515 z "},"®":{"ha":694,"x_min":19,"x_max":670,"o":"m 115 511 q 162 559 115 511 q 345 606 210 606 q 574 511 479 606 q 670 282 670 416 q 574 52 670 148 q 345 -43 479 -43 q 115 52 210 -43 q 19 282 19 148 q 115 511 19 416 m 551 488 q 508 531 551 488 q 345 574 465 574 q 138 488 224 574 q 53 282 53 403 q 138 76 53 161 q 345 -9 224 -9 q 551 76 465 -9 q 636 282 636 161 q 551 488 636 403 m 525 75 l 427 75 q 414 175 419 153 q 345 274 391 273 l 301 275 l 302 140 q 326 109 302 115 q 354 99 326 109 l 353 75 q 268 77 321 77 q 182 75 214 77 l 182 99 l 209 106 q 235 121 233 111 q 236 127 235 121 q 237 142 237 133 l 237 448 q 214 461 236 454 l 190 468 l 190 486 q 295 484 229 486 q 377 483 361 483 q 452 455 418 483 q 487 381 487 427 q 454 319 486 349 q 380 288 422 289 q 414 279 400 286 q 437 258 427 273 q 452 233 448 243 q 464 199 457 222 q 475 167 471 176 q 493 124 486 137 q 506 108 500 111 q 525 100 511 104 l 525 75 m 420 381 q 409 440 420 416 q 373 464 397 464 q 356 465 368 464 q 338 467 345 467 q 319 467 331 467 q 302 467 307 467 l 302 293 l 346 292 q 404 320 387 292 q 420 381 420 349 z "},"´":{"ha":571,"x_min":160,"x_max":431,"o":"m 160 644 l 389 841 l 431 776 l 175 620 l 160 644 z "},"»":{"ha":682,"x_min":79,"x_max":621,"o":"m 79 515 l 384 283 l 384 248 l 92 27 l 92 58 l 283 254 l 283 273 l 79 491 l 79 515 m 256 515 l 621 283 l 621 248 l 270 27 l 270 58 l 500 254 l 500 273 l 256 491 l 256 515 z "},"¿":{"ha":694,"x_min":84,"x_max":594,"o":"m 163 480 l 132 500 q 309 625 179 625 q 405 588 355 625 q 454 503 454 551 q 381 377 454 422 q 328 345 358 365 q 273 303 298 324 q 232 250 248 282 q 216 180 216 218 q 258 50 216 99 q 368 0 300 0 q 456 45 414 0 q 505 130 498 90 q 416 203 416 136 q 439 263 416 240 q 505 286 463 286 q 572 252 549 286 q 594 178 594 217 q 523 45 594 119 q 358 -30 452 -30 q 274 -19 317 -30 q 186 16 231 -8 q 113 85 141 39 q 84 191 84 130 q 213 363 84 300 q 241 376 216 365 q 285 397 266 387 q 328 424 304 407 q 367 462 353 441 q 381 507 381 483 q 307 597 381 598 q 215 564 251 597 q 163 480 179 530 m 393 800 q 370 743 393 764 q 311 722 347 722 q 254 742 275 722 q 233 800 233 762 q 256 858 233 837 q 315 879 279 879 q 372 859 351 879 q 393 800 393 838 z "},"À":{"ha":996,"x_min":0,"x_max":959,"o":"m 368 1074 l 407 1120 l 620 925 l 589 905 l 368 1074 m 582 374 l 309 374 l 180 72 q 176 58 176 65 q 206 28 176 39 q 266 16 236 16 l 267 -5 l 0 -7 l 0 20 q 3 20 1 20 q 58 32 28 20 q 106 64 88 43 q 297 475 129 91 l 465 857 l 510 857 l 807 153 q 890 41 845 62 q 916 33 902 35 q 941 31 929 31 q 959 30 954 31 l 956 -4 q 751 0 865 0 q 585 -4 648 0 l 586 22 q 610 20 586 20 q 678 43 659 20 q 688 73 688 54 q 680 113 688 91 l 673 133 l 582 374 m 326 407 l 571 407 l 450 700 l 326 407 z "},"Á":{"ha":996,"x_min":0,"x_max":959,"o":"m 366 928 l 595 1124 l 637 1059 l 381 903 l 366 928 m 582 374 l 309 374 l 180 72 q 176 58 176 65 q 206 28 176 39 q 266 16 236 16 l 267 -5 l 0 -7 l 0 20 q 3 20 1 20 q 58 32 28 20 q 106 64 88 43 q 297 475 129 91 l 465 857 l 510 857 l 807 153 q 890 41 845 62 q 916 33 902 35 q 941 31 929 31 q 959 30 954 31 l 956 -4 q 751 0 865 0 q 585 -4 648 0 l 586 22 q 610 20 586 20 q 678 43 659 20 q 688 73 688 54 q 680 113 688 91 l 673 133 l 582 374 m 326 407 l 571 407 l 450 700 l 326 407 z "},"Â":{"ha":996,"x_min":0,"x_max":959,"o":"m 317 913 l 505 1118 l 671 917 l 652 901 l 500 1042 l 336 901 l 317 913 m 582 374 l 309 374 l 180 72 q 176 58 176 65 q 206 28 176 39 q 266 16 236 16 l 267 -5 l 0 -7 l 0 20 q 3 20 1 20 q 58 32 28 20 q 106 64 88 43 q 297 475 129 91 l 465 857 l 510 857 l 807 153 q 890 41 845 62 q 916 33 902 35 q 941 31 929 31 q 959 30 954 31 l 956 -4 q 751 0 865 0 q 585 -4 648 0 l 586 22 q 610 20 586 20 q 678 43 659 20 q 688 73 688 54 q 680 113 688 91 l 673 133 l 582 374 m 326 407 l 571 407 l 450 700 l 326 407 z "},"Ã":{"ha":996,"x_min":0,"x_max":959,"o":"m 376 913 l 359 914 q 386 997 359 952 q 452 1042 412 1042 q 500 1021 476 1042 q 549 979 524 1000 q 601 958 574 958 q 656 980 643 958 q 669 1040 669 1002 l 690 1040 q 687 1001 690 1021 q 674 954 684 981 q 644 910 665 928 q 593 892 624 892 q 545 907 567 892 q 509 939 522 922 q 479 969 495 955 q 446 983 463 983 q 398 960 420 983 q 376 913 376 936 m 582 374 l 309 374 l 180 72 q 176 58 176 65 q 206 28 176 39 q 266 16 236 16 l 267 -5 l 0 -7 l 0 20 q 3 20 1 20 q 58 32 28 20 q 106 64 88 43 q 297 475 129 91 l 465 857 l 510 857 l 807 153 q 890 41 845 62 q 916 33 902 35 q 941 31 929 31 q 959 30 954 31 l 956 -4 q 751 0 865 0 q 585 -4 648 0 l 586 22 q 610 20 586 20 q 678 43 659 20 q 688 73 688 54 q 680 113 688 91 l 673 133 l 582 374 m 326 407 l 571 407 l 450 700 l 326 407 z "},"Ä":{"ha":996,"x_min":0,"x_max":959,"o":"m 351 955 q 364 989 351 975 q 393 1002 377 1002 q 425 989 411 1002 q 438 956 438 977 q 425 922 438 936 q 396 909 412 909 q 365 922 378 909 q 351 955 351 936 m 559 955 q 571 989 559 975 q 601 1002 583 1002 q 631 989 618 1002 q 643 956 643 977 q 631 922 643 936 q 602 909 618 909 q 572 922 585 909 q 559 955 559 936 m 582 374 l 309 374 l 180 72 q 176 58 176 65 q 206 28 176 39 q 266 16 236 16 l 267 -5 l 0 -7 l 0 20 q 3 20 1 20 q 58 32 28 20 q 106 64 88 43 q 297 475 129 91 l 465 857 l 510 857 l 807 153 q 890 41 845 62 q 916 33 902 35 q 941 31 929 31 q 959 30 954 31 l 956 -4 q 751 0 865 0 q 585 -4 648 0 l 586 22 q 610 20 586 20 q 678 43 659 20 q 688 73 688 54 q 680 113 688 91 l 673 133 l 582 374 m 326 407 l 571 407 l 450 700 l 326 407 z "},"Å":{"ha":996,"x_min":0,"x_max":959,"o":"m 415 1159 q 431 1175 415 1159 q 496 1191 448 1191 q 578 1160 545 1191 q 610 1080 610 1128 q 578 997 610 1031 q 496 963 545 963 q 415 997 448 963 q 382 1079 382 1031 q 415 1159 382 1127 m 427 1077 q 447 1019 427 1039 q 496 1000 467 1000 q 563 1077 563 1000 q 545 1136 563 1115 q 495 1157 526 1157 q 446 1136 464 1157 q 427 1077 427 1115 m 582 374 l 309 374 l 180 72 q 176 58 176 65 q 206 28 176 39 q 266 16 236 16 l 267 -5 l 0 -7 l 0 20 q 3 20 1 20 q 58 32 28 20 q 106 64 88 43 q 297 475 129 91 l 465 857 l 510 857 l 807 153 q 890 41 845 62 q 916 33 902 35 q 941 31 929 31 q 959 30 954 31 l 956 -4 q 751 0 865 0 q 585 -4 648 0 l 586 22 q 610 20 586 20 q 678 43 659 20 q 688 73 688 54 q 680 113 688 91 l 673 133 l 582 374 m 326 407 l 571 407 l 450 700 l 326 407 z "},"Æ":{"ha":1236,"x_min":52,"x_max":1139,"o":"m 633 435 l 636 808 q 557 678 604 753 q 419 435 510 604 l 633 435 m 511 0 l 511 22 l 537 24 q 591 36 563 26 q 623 61 620 46 q 633 403 628 91 l 404 403 l 228 100 q 219 84 227 99 q 212 68 212 69 q 353 23 212 27 l 351 -1 l 52 -7 l 52 20 q 157 64 121 20 q 616 849 184 98 q 810 846 716 846 q 1123 853 966 846 l 1127 656 l 1101 656 q 1081 722 1095 690 q 1035 786 1067 754 q 962 818 1002 818 l 762 818 q 765 435 762 594 l 948 435 q 1017 541 1010 435 l 1048 541 l 1048 298 l 1023 298 q 944 404 1016 404 l 765 404 l 764 37 q 935 27 905 28 q 1016 31 970 27 q 1076 99 1048 45 q 1108 206 1103 153 l 1139 206 l 1126 0 q 890 4 1029 4 q 511 0 821 4 z "},"Ç":{"ha":944,"x_min":75,"x_max":880,"o":"m 522 -1 l 553 -3 l 526 -72 q 624 -90 600 -72 q 648 -142 648 -107 q 594 -224 648 -187 q 460 -262 540 -262 l 463 -232 q 557 -216 526 -232 q 587 -160 587 -201 q 472 -118 587 -118 l 522 -1 m 536 869 q 686 845 614 869 q 779 795 757 821 q 804 818 795 806 q 814 840 812 830 q 821 879 817 849 l 864 879 l 860 598 l 833 598 q 739 770 815 708 q 525 831 662 831 q 324 722 392 831 q 254 425 256 612 q 544 11 254 11 q 661 29 610 11 q 747 84 711 47 q 804 157 783 121 q 849 250 825 194 l 880 225 q 541 -31 774 -30 q 205 86 335 -31 q 75 415 75 203 q 106 598 75 517 q 186 728 137 680 q 298 811 235 777 q 420 857 361 845 q 536 869 479 869 m 536 869 q 686 845 614 869 q 779 795 757 821 q 804 818 795 806 q 814 840 812 830 q 821 879 817 849 l 864 879 l 860 598 l 833 598 q 739 770 815 708 q 525 831 662 831 q 324 722 392 831 q 254 425 256 612 q 544 11 254 11 q 661 29 610 11 q 747 84 711 47 q 804 157 783 121 q 849 250 825 194 l 880 225 q 541 -31 774 -30 q 205 86 335 -31 q 75 415 75 203 q 106 598 75 517 q 186 728 137 680 q 298 811 235 777 q 420 857 361 845 q 536 869 479 869 z "},"È":{"ha":791,"x_min":66,"x_max":708,"o":"m 262 1061 l 301 1107 l 514 911 l 483 891 l 262 1061 m 696 0 l 66 0 l 66 22 q 104 20 66 20 q 178 53 171 20 q 190 576 190 126 q 184 793 190 774 q 133 819 182 808 l 84 829 l 84 853 q 405 849 228 849 q 693 853 582 849 l 697 656 l 671 656 q 651 722 665 690 q 605 786 637 754 q 530 818 572 818 l 317 818 l 317 449 l 518 449 q 586 556 581 449 l 618 556 l 618 312 l 591 312 q 514 418 585 418 l 317 418 l 317 94 q 365 27 317 28 l 570 27 q 638 87 605 28 q 678 206 671 146 l 708 206 l 696 0 z "},"É":{"ha":791,"x_min":66,"x_max":708,"o":"m 252 906 l 481 1103 l 524 1038 l 267 882 l 252 906 m 696 0 l 66 0 l 66 22 q 104 20 66 20 q 178 53 171 20 q 190 576 190 126 q 184 793 190 774 q 133 819 182 808 l 84 829 l 84 853 q 405 849 228 849 q 693 853 582 849 l 697 656 l 671 656 q 651 722 665 690 q 605 786 637 754 q 530 818 572 818 l 317 818 l 317 449 l 518 449 q 586 556 581 449 l 618 556 l 618 312 l 591 312 q 514 418 585 418 l 317 418 l 317 94 q 365 27 317 28 l 570 27 q 638 87 605 28 q 678 206 671 146 l 708 206 l 696 0 z "},"Ê":{"ha":791,"x_min":66,"x_max":708,"o":"m 248 890 l 435 1095 l 602 894 l 583 878 l 431 1019 l 267 878 l 248 890 m 696 0 l 66 0 l 66 22 q 104 20 66 20 q 178 53 171 20 q 190 576 190 126 q 184 793 190 774 q 133 819 182 808 l 84 829 l 84 853 q 405 849 228 849 q 693 853 582 849 l 697 656 l 671 656 q 651 722 665 690 q 605 786 637 754 q 530 818 572 818 l 317 818 l 317 449 l 518 449 q 586 556 581 449 l 618 556 l 618 312 l 591 312 q 514 418 585 418 l 317 418 l 317 94 q 365 27 317 28 l 570 27 q 638 87 605 28 q 678 206 671 146 l 708 206 l 696 0 z "},"Ë":{"ha":791,"x_min":66,"x_max":708,"o":"m 277 954 q 290 987 277 974 q 319 1001 302 1001 q 350 988 336 1001 q 363 955 363 975 q 351 921 363 935 q 321 907 338 907 q 290 921 304 907 q 277 954 277 935 m 484 954 q 496 987 484 974 q 526 1001 509 1001 q 556 988 544 1001 q 568 955 568 975 q 556 921 568 935 q 528 907 544 907 q 497 921 510 907 q 484 954 484 935 m 696 0 l 66 0 l 66 22 q 104 20 66 20 q 178 53 171 20 q 190 576 190 126 q 184 793 190 774 q 133 819 182 808 l 84 829 l 84 853 q 405 849 228 849 q 693 853 582 849 l 697 656 l 671 656 q 651 722 665 690 q 605 786 637 754 q 530 818 572 818 l 317 818 l 317 449 l 518 449 q 586 556 581 449 l 618 556 l 618 312 l 591 312 q 514 418 585 418 l 317 418 l 317 94 q 365 27 317 28 l 570 27 q 638 87 605 28 q 678 206 671 146 l 708 206 l 696 0 z "},"Ì":{"ha":510,"x_min":80,"x_max":437,"o":"m 153 1048 l 193 1095 l 406 899 l 374 879 l 153 1048 m 332 791 q 332 715 332 789 q 330 528 331 640 q 330 324 330 416 q 332 61 330 140 q 435 22 334 22 l 437 0 q 330 1 393 1 q 80 -4 183 1 l 80 18 q 85 18 80 18 q 191 49 186 18 q 198 793 198 90 q 149 819 198 808 l 99 829 l 99 849 q 263 844 163 844 q 426 849 368 844 l 426 822 q 332 791 332 815 z "},"Í":{"ha":510,"x_min":80,"x_max":437,"o":"m 160 901 l 389 1097 l 431 1032 l 175 876 l 160 901 m 332 791 q 332 715 332 789 q 330 528 331 640 q 330 324 330 416 q 332 61 330 140 q 435 22 334 22 l 437 0 q 330 1 393 1 q 80 -4 183 1 l 80 18 q 85 18 80 18 q 191 49 186 18 q 198 793 198 90 q 149 819 198 808 l 99 829 l 99 849 q 263 844 163 844 q 426 849 368 844 l 426 822 q 332 791 332 815 z "},"Î":{"ha":510,"x_min":80,"x_max":441,"o":"m 87 882 l 274 1086 l 441 886 l 422 869 l 270 1010 l 106 869 l 87 882 m 332 791 q 332 715 332 789 q 330 528 331 640 q 330 324 330 416 q 332 61 330 140 q 435 22 334 22 l 437 0 q 330 1 393 1 q 80 -4 183 1 l 80 18 q 85 18 80 18 q 191 49 186 18 q 198 793 198 90 q 149 819 198 808 l 99 829 l 99 849 q 263 844 163 844 q 426 849 368 844 l 426 822 q 332 791 332 815 z "},"Ï":{"ha":510,"x_min":80,"x_max":437,"o":"m 127 949 q 140 983 127 970 q 170 997 153 997 q 201 984 187 997 q 214 951 214 971 q 201 917 214 930 q 172 903 189 903 q 141 917 155 903 q 127 949 127 930 m 335 949 q 347 983 335 970 q 377 997 359 997 q 407 984 395 997 q 419 951 419 971 q 407 917 419 930 q 378 903 395 903 q 348 917 361 903 q 335 949 335 930 m 332 791 q 332 715 332 789 q 330 528 331 640 q 330 324 330 416 q 332 61 330 140 q 435 22 334 22 l 437 0 q 330 1 393 1 q 80 -4 183 1 l 80 18 q 85 18 80 18 q 191 49 186 18 q 198 793 198 90 q 149 819 198 808 l 99 829 l 99 849 q 263 844 163 844 q 426 849 368 844 l 426 822 q 332 791 332 815 z "},"Ð":{"ha":910,"x_min":0,"x_max":0,"o":""},"Ñ":{"ha":932,"x_min":27,"x_max":905,"o":"m 313 907 l 297 909 q 323 991 297 947 q 389 1036 350 1036 q 437 1015 414 1036 q 486 973 461 994 q 538 952 511 952 q 593 975 581 952 q 606 1035 606 997 l 628 1035 q 625 996 628 1016 q 612 949 621 975 q 582 905 602 922 q 530 887 562 887 q 482 902 505 887 q 446 933 460 917 q 416 964 433 949 q 384 978 400 978 q 336 954 358 978 q 313 907 313 930 m 905 819 q 862 814 886 818 q 811 802 838 811 q 784 777 784 792 q 780 528 781 732 l 784 -15 l 736 -15 l 477 339 q 205 708 220 693 q 203 519 203 593 q 207 343 203 427 q 210 134 210 259 q 210 80 210 110 q 258 24 210 24 q 336 22 335 24 l 336 -3 q 186 1 270 1 q 27 -4 92 1 l 27 18 q 35 18 27 18 q 153 49 146 18 q 160 522 160 453 q 157 764 160 627 q 94 804 155 779 l 33 829 l 33 853 l 283 852 q 547 502 363 741 l 732 263 l 734 777 q 700 808 732 796 q 623 819 667 819 q 602 819 613 819 l 600 850 q 741 844 656 844 q 905 849 818 844 l 905 819 z "},"Ò":{"ha":1074,"x_min":66,"x_max":1008,"o":"m 453 1067 l 492 1114 l 705 918 l 674 898 l 453 1067 m 564 11 q 772 127 692 11 q 853 423 853 243 q 774 749 853 637 q 553 860 696 860 q 432 841 486 860 q 330 777 378 822 q 254 642 281 732 q 228 422 228 552 q 237 322 228 373 q 270 214 245 271 q 330 113 294 157 q 427 40 366 69 q 564 11 488 11 m 564 883 q 666 872 613 883 q 783 829 719 861 q 895 749 846 798 q 975 615 943 700 q 1008 423 1008 530 q 966 233 1008 319 q 859 94 925 148 q 715 12 792 41 q 562 -16 637 -16 q 212 101 357 -16 q 66 412 66 218 q 98 609 66 524 q 180 745 130 694 q 299 828 231 796 q 432 871 368 860 q 564 883 496 883 z "},"Ó":{"ha":1074,"x_min":66,"x_max":1008,"o":"m 425 924 l 654 1120 l 696 1055 l 439 899 l 425 924 m 564 11 q 772 127 692 11 q 853 423 853 243 q 774 749 853 637 q 553 860 696 860 q 432 841 486 860 q 330 777 378 822 q 254 642 281 732 q 228 422 228 552 q 237 322 228 373 q 270 214 245 271 q 330 113 294 157 q 427 40 366 69 q 564 11 488 11 m 564 883 q 666 872 613 883 q 783 829 719 861 q 895 749 846 798 q 975 615 943 700 q 1008 423 1008 530 q 966 233 1008 319 q 859 94 925 148 q 715 12 792 41 q 562 -16 637 -16 q 212 101 357 -16 q 66 412 66 218 q 98 609 66 524 q 180 745 130 694 q 299 828 231 796 q 432 871 368 860 q 564 883 496 883 z "},"Ô":{"ha":1074,"x_min":66,"x_max":1008,"o":"m 373 899 l 560 1104 l 727 903 l 708 887 l 556 1028 l 392 887 l 373 899 m 564 11 q 772 127 692 11 q 853 423 853 243 q 774 749 853 637 q 553 860 696 860 q 432 841 486 860 q 330 777 378 822 q 254 642 281 732 q 228 422 228 552 q 237 322 228 373 q 270 214 245 271 q 330 113 294 157 q 427 40 366 69 q 564 11 488 11 m 564 883 q 666 872 613 883 q 783 829 719 861 q 895 749 846 798 q 975 615 943 700 q 1008 423 1008 530 q 966 233 1008 319 q 859 94 925 148 q 715 12 792 41 q 562 -16 637 -16 q 212 101 357 -16 q 66 412 66 218 q 98 609 66 524 q 180 745 130 694 q 299 828 231 796 q 432 871 368 860 q 564 883 496 883 z "},"Õ":{"ha":1074,"x_min":66,"x_max":1008,"o":"m 457 905 l 441 906 q 467 989 441 944 q 533 1034 494 1034 q 581 1013 557 1034 q 630 970 605 991 q 682 949 655 949 q 737 972 724 949 q 750 1032 750 994 l 772 1032 q 768 993 772 1013 q 755 946 765 972 q 726 902 746 920 q 674 884 705 884 q 626 899 648 884 q 590 930 604 914 q 560 961 576 947 q 528 975 544 975 q 479 951 502 975 q 457 905 457 928 m 564 11 q 772 127 692 11 q 853 423 853 243 q 774 749 853 637 q 553 860 696 860 q 432 841 486 860 q 330 777 378 822 q 254 642 281 732 q 228 422 228 552 q 237 322 228 373 q 270 214 245 271 q 330 113 294 157 q 427 40 366 69 q 564 11 488 11 m 564 883 q 666 872 613 883 q 783 829 719 861 q 895 749 846 798 q 975 615 943 700 q 1008 423 1008 530 q 966 233 1008 319 q 859 94 925 148 q 715 12 792 41 q 562 -16 637 -16 q 212 101 357 -16 q 66 412 66 218 q 98 609 66 524 q 180 745 130 694 q 299 828 231 796 q 432 871 368 860 q 564 883 496 883 z "},"Ö":{"ha":1074,"x_min":66,"x_max":1008,"o":"m 411 948 q 424 982 411 968 q 453 996 437 996 q 484 983 471 996 q 498 949 498 970 q 485 916 498 929 q 456 902 472 902 q 425 916 438 902 q 411 948 411 929 m 618 948 q 631 982 618 968 q 661 996 643 996 q 690 983 678 996 q 703 949 703 970 q 690 916 703 929 q 662 902 678 902 q 631 916 644 902 q 618 948 618 929 m 564 11 q 772 127 692 11 q 853 423 853 243 q 774 749 853 637 q 553 860 696 860 q 432 841 486 860 q 330 777 378 822 q 254 642 281 732 q 228 422 228 552 q 237 322 228 373 q 270 214 245 271 q 330 113 294 157 q 427 40 366 69 q 564 11 488 11 m 564 883 q 666 872 613 883 q 783 829 719 861 q 895 749 846 798 q 975 615 943 700 q 1008 423 1008 530 q 966 233 1008 319 q 859 94 925 148 q 715 12 792 41 q 562 -16 637 -16 q 212 101 357 -16 q 66 412 66 218 q 98 609 66 524 q 180 745 130 694 q 299 828 231 796 q 432 871 368 860 q 564 883 496 883 z "},"×":{"ha":694,"x_min":118,"x_max":589,"o":"m 529 85 l 353 263 l 178 85 l 118 144 l 294 321 l 118 498 l 178 556 l 353 380 l 529 556 l 589 498 l 412 321 l 589 144 l 529 85 z "},"Ø":{"ha":1074,"x_min":66,"x_max":1008,"o":"m 564 11 q 772 127 692 11 q 853 423 853 243 q 774 749 853 637 q 553 860 696 860 q 432 841 486 860 q 330 777 378 822 q 254 642 281 732 q 228 422 228 552 q 237 322 228 373 q 270 214 245 271 q 330 113 294 157 q 427 40 366 69 q 564 11 488 11 m 564 883 q 666 872 613 883 q 783 829 719 861 q 895 749 846 798 q 975 615 943 700 q 1008 423 1008 530 q 966 233 1008 319 q 859 94 925 148 q 715 12 792 41 q 562 -16 637 -16 q 212 101 357 -16 q 66 412 66 218 q 98 609 66 524 q 180 745 130 694 q 299 828 231 796 q 432 871 368 860 q 564 883 496 883 z "},"Ù":{"ha":1034,"x_min":71,"x_max":966,"o":"m 389 1053 l 429 1099 l 642 903 l 610 883 l 389 1053 m 326 296 q 340 169 326 222 q 376 86 354 115 q 431 40 397 57 q 492 18 464 23 q 559 14 521 14 q 650 27 612 14 q 722 72 689 41 q 771 162 754 103 q 788 308 788 221 q 788 345 788 323 q 788 406 788 368 q 783 793 788 593 q 724 819 780 808 l 669 829 l 669 849 q 817 844 732 844 q 966 849 906 844 l 966 822 q 846 791 902 818 q 842 583 842 705 l 846 324 q 768 70 846 160 q 534 -26 689 -20 q 441 -17 487 -26 q 346 15 395 -8 q 261 74 297 38 q 201 169 225 110 q 178 302 178 228 q 180 347 178 307 q 184 461 182 387 q 187 627 187 536 q 184 793 187 709 q 126 819 182 808 l 71 829 l 71 849 q 248 844 134 844 q 430 849 370 844 l 430 822 q 326 791 350 815 q 324 574 324 701 l 326 296 z "},"Ú":{"ha":1034,"x_min":71,"x_max":966,"o":"m 468 906 l 697 1103 l 739 1038 l 483 882 l 468 906 m 326 296 q 340 169 326 222 q 376 86 354 115 q 431 40 397 57 q 492 18 464 23 q 559 14 521 14 q 650 27 612 14 q 722 72 689 41 q 771 162 754 103 q 788 308 788 221 q 788 345 788 323 q 788 406 788 368 q 783 793 788 593 q 724 819 780 808 l 669 829 l 669 849 q 817 844 732 844 q 966 849 906 844 l 966 822 q 846 791 902 818 q 842 583 842 705 l 846 324 q 768 70 846 160 q 534 -26 689 -20 q 441 -17 487 -26 q 346 15 395 -8 q 261 74 297 38 q 201 169 225 110 q 178 302 178 228 q 180 347 178 307 q 184 461 182 387 q 187 627 187 536 q 184 793 187 709 q 126 819 182 808 l 71 829 l 71 849 q 248 844 134 844 q 430 849 370 844 l 430 822 q 326 791 350 815 q 324 574 324 701 l 326 296 z "},"Û":{"ha":1034,"x_min":71,"x_max":966,"o":"m 373 901 l 560 1105 l 727 905 l 708 888 l 556 1029 l 392 888 l 373 901 m 326 296 q 340 169 326 222 q 376 86 354 115 q 431 40 397 57 q 492 18 464 23 q 559 14 521 14 q 650 27 612 14 q 722 72 689 41 q 771 162 754 103 q 788 308 788 221 q 788 345 788 323 q 788 406 788 368 q 783 793 788 593 q 724 819 780 808 l 669 829 l 669 849 q 817 844 732 844 q 966 849 906 844 l 966 822 q 846 791 902 818 q 842 583 842 705 l 846 324 q 768 70 846 160 q 534 -26 689 -20 q 441 -17 487 -26 q 346 15 395 -8 q 261 74 297 38 q 201 169 225 110 q 178 302 178 228 q 180 347 178 307 q 184 461 182 387 q 187 627 187 536 q 184 793 187 709 q 126 819 182 808 l 71 829 l 71 849 q 248 844 134 844 q 430 849 370 844 l 430 822 q 326 791 350 815 q 324 574 324 701 l 326 296 z "},"Ü":{"ha":1034,"x_min":71,"x_max":966,"o":"m 411 948 q 424 982 411 968 q 453 996 437 996 q 484 983 471 996 q 498 949 498 970 q 485 916 498 929 q 456 902 472 902 q 425 916 438 902 q 411 948 411 929 m 618 948 q 631 982 618 968 q 661 996 643 996 q 690 983 678 996 q 703 949 703 970 q 690 916 703 929 q 662 902 678 902 q 631 916 644 902 q 618 948 618 929 m 326 296 q 340 169 326 222 q 376 86 354 115 q 431 40 397 57 q 492 18 464 23 q 559 14 521 14 q 650 27 612 14 q 722 72 689 41 q 771 162 754 103 q 788 308 788 221 q 788 345 788 323 q 788 406 788 368 q 783 793 788 593 q 724 819 780 808 l 669 829 l 669 849 q 817 844 732 844 q 966 849 906 844 l 966 822 q 846 791 902 818 q 842 583 842 705 l 846 324 q 768 70 846 160 q 534 -26 689 -20 q 441 -17 487 -26 q 346 15 395 -8 q 261 74 297 38 q 201 169 225 110 q 178 302 178 228 q 180 347 178 307 q 184 461 182 387 q 187 627 187 536 q 184 793 187 709 q 126 819 182 808 l 71 829 l 71 849 q 248 844 134 844 q 430 849 370 844 l 430 822 q 326 791 350 815 q 324 574 324 701 l 326 296 z "},"Ý":{"ha":875,"x_min":18,"x_max":857,"o":"m 385 920 l 614 1116 l 656 1051 l 400 895 l 385 920 m 388 335 q 156 745 296 551 q 95 803 125 788 q 18 829 61 819 l 18 849 q 206 844 81 844 q 399 849 339 844 l 399 822 q 312 799 323 815 q 302 766 305 785 l 300 750 q 488 408 392 571 q 686 779 685 760 q 655 807 686 798 l 574 829 l 574 849 q 716 844 637 844 q 857 849 796 844 l 857 822 q 766 799 802 819 q 734 769 754 791 l 713 747 q 517 392 553 471 q 522 47 517 340 q 633 14 522 14 l 633 -12 l 264 -12 l 264 9 q 279 9 269 9 q 381 41 380 9 q 388 335 384 199 z "},"à":{"ha":590,"x_min":69,"x_max":635,"o":"m 161 796 l 201 842 l 414 647 l 382 627 l 161 796 m 614 113 l 635 100 q 505 -9 617 -9 q 435 21 458 -9 q 408 94 412 52 q 367 49 381 62 q 313 12 353 35 q 235 -12 274 -12 q 118 26 167 -12 q 69 146 69 64 q 85 210 69 183 q 128 254 100 237 q 184 282 156 271 q 251 298 213 293 q 314 304 289 302 q 370 306 339 305 q 403 307 400 307 q 407 407 407 307 q 289 536 407 536 q 224 518 248 536 q 194 476 199 500 q 233 416 233 476 q 209 364 233 380 q 161 349 184 349 q 115 372 136 349 q 95 425 95 396 q 159 522 95 475 q 301 562 210 562 q 453 509 387 562 q 519 365 519 456 q 517 240 519 320 q 514 125 514 160 q 556 35 514 34 q 593 53 581 35 q 614 113 605 71 m 403 127 l 403 288 q 315 279 355 283 q 247 264 275 274 q 202 229 218 254 q 186 161 186 205 q 215 76 186 103 q 289 49 244 49 q 403 127 359 49 z "},"á":{"ha":590,"x_min":69,"x_max":635,"o":"m 614 113 l 635 100 q 505 -9 617 -9 q 435 21 458 -9 q 408 94 412 52 q 367 49 381 62 q 313 12 353 35 q 235 -12 274 -12 q 118 26 167 -12 q 69 146 69 64 q 85 210 69 183 q 128 254 100 237 q 184 282 156 271 q 251 298 213 293 q 314 304 289 302 q 370 306 339 305 q 403 307 400 307 q 407 407 407 307 q 289 536 407 536 q 224 518 248 536 q 194 476 199 500 q 233 416 233 476 q 209 364 233 380 q 161 349 184 349 q 115 372 136 349 q 95 425 95 396 q 159 522 95 475 q 301 562 210 562 q 453 509 387 562 q 519 365 519 456 q 517 240 519 320 q 514 125 514 160 q 556 35 514 34 q 593 53 581 35 q 614 113 605 71 m 403 127 l 403 288 q 315 279 355 283 q 247 264 275 274 q 202 229 218 254 q 186 161 186 205 q 215 76 186 103 q 289 49 244 49 q 403 127 359 49 m 184 644 l 414 841 l 456 776 l 199 620 l 184 644 z "},"â":{"ha":590,"x_min":69,"x_max":635,"o":"m 122 614 l 309 819 l 476 618 l 457 602 l 305 743 l 141 602 l 122 614 m 614 113 l 635 100 q 505 -9 617 -9 q 435 21 458 -9 q 408 94 412 52 q 367 49 381 62 q 313 12 353 35 q 235 -12 274 -12 q 118 26 167 -12 q 69 146 69 64 q 85 210 69 183 q 128 254 100 237 q 184 282 156 271 q 251 298 213 293 q 314 304 289 302 q 370 306 339 305 q 403 307 400 307 q 407 407 407 307 q 289 536 407 536 q 224 518 248 536 q 194 476 199 500 q 233 416 233 476 q 209 364 233 380 q 161 349 184 349 q 115 372 136 349 q 95 425 95 396 q 159 522 95 475 q 301 562 210 562 q 453 509 387 562 q 519 365 519 456 q 517 240 519 320 q 514 125 514 160 q 556 35 514 34 q 593 53 581 35 q 614 113 605 71 m 403 127 l 403 288 q 315 279 355 283 q 247 264 275 274 q 202 229 218 254 q 186 161 186 205 q 215 76 186 103 q 289 49 244 49 q 403 127 359 49 z "},"ã":{"ha":590,"x_min":69,"x_max":635,"o":"m 190 625 l 174 627 q 200 709 174 665 q 266 754 227 754 q 314 733 290 754 q 363 691 338 712 q 415 670 388 670 q 470 692 457 670 q 483 753 483 715 l 505 753 q 501 713 505 734 q 488 667 498 693 q 458 623 479 640 q 407 605 438 605 q 359 620 381 605 q 323 651 336 635 q 293 682 309 667 q 260 696 277 696 q 212 672 235 696 q 190 625 190 648 m 614 113 l 635 100 q 505 -9 617 -9 q 435 21 458 -9 q 408 94 412 52 q 367 49 381 62 q 313 12 353 35 q 235 -12 274 -12 q 118 26 167 -12 q 69 146 69 64 q 85 210 69 183 q 128 254 100 237 q 184 282 156 271 q 251 298 213 293 q 314 304 289 302 q 370 306 339 305 q 403 307 400 307 q 407 407 407 307 q 289 536 407 536 q 224 518 248 536 q 194 476 199 500 q 233 416 233 476 q 209 364 233 380 q 161 349 184 349 q 115 372 136 349 q 95 425 95 396 q 159 522 95 475 q 301 562 210 562 q 453 509 387 562 q 519 365 519 456 q 517 240 519 320 q 514 125 514 160 q 556 35 514 34 q 593 53 581 35 q 614 113 605 71 m 403 127 l 403 288 q 315 279 355 283 q 247 264 275 274 q 202 229 218 254 q 186 161 186 205 q 215 76 186 103 q 289 49 244 49 q 403 127 359 49 z "},"ä":{"ha":590,"x_min":69,"x_max":635,"o":"m 183 711 q 196 745 183 731 q 225 758 209 758 q 256 745 243 758 q 270 712 270 732 q 257 678 270 692 q 228 665 244 665 q 197 678 210 665 q 183 711 183 692 m 391 711 q 403 745 391 731 q 433 758 415 758 q 463 745 450 758 q 475 712 475 732 q 463 678 475 692 q 434 665 450 665 q 404 678 416 665 q 391 711 391 692 m 614 113 l 635 100 q 505 -9 617 -9 q 435 21 458 -9 q 408 94 412 52 q 367 49 381 62 q 313 12 353 35 q 235 -12 274 -12 q 118 26 167 -12 q 69 146 69 64 q 85 210 69 183 q 128 254 100 237 q 184 282 156 271 q 251 298 213 293 q 314 304 289 302 q 370 306 339 305 q 403 307 400 307 q 407 407 407 307 q 289 536 407 536 q 224 518 248 536 q 194 476 199 500 q 233 416 233 476 q 209 364 233 380 q 161 349 184 349 q 115 372 136 349 q 95 425 95 396 q 159 522 95 475 q 301 562 210 562 q 453 509 387 562 q 519 365 519 456 q 517 240 519 320 q 514 125 514 160 q 556 35 514 34 q 593 53 581 35 q 614 113 605 71 m 403 127 l 403 288 q 315 279 355 283 q 247 264 275 274 q 202 229 218 254 q 186 161 186 205 q 215 76 186 103 q 289 49 244 49 q 403 127 359 49 z "},"å":{"ha":590,"x_min":69,"x_max":635,"o":"m 233 859 q 250 875 233 859 q 315 891 266 891 q 396 860 363 891 q 429 780 429 829 q 396 697 429 731 q 315 663 363 663 q 233 697 266 663 q 201 779 201 731 q 233 859 201 827 m 245 777 q 265 720 245 739 q 315 700 285 700 q 381 777 381 700 q 363 836 381 815 q 313 857 345 857 q 264 836 282 857 q 245 777 245 815 m 614 113 l 635 100 q 505 -9 617 -9 q 435 21 458 -9 q 408 94 412 52 q 367 49 381 62 q 313 12 353 35 q 235 -12 274 -12 q 118 26 167 -12 q 69 146 69 64 q 85 210 69 183 q 128 254 100 237 q 184 282 156 271 q 251 298 213 293 q 314 304 289 302 q 370 306 339 305 q 403 307 400 307 q 407 407 407 307 q 289 536 407 536 q 224 518 248 536 q 194 476 199 500 q 233 416 233 476 q 209 364 233 380 q 161 349 184 349 q 115 372 136 349 q 95 425 95 396 q 159 522 95 475 q 301 562 210 562 q 453 509 387 562 q 519 365 519 456 q 517 240 519 320 q 514 125 514 160 q 556 35 514 34 q 593 53 581 35 q 614 113 605 71 m 403 127 l 403 288 q 315 279 355 283 q 247 264 275 274 q 202 229 218 254 q 186 161 186 205 q 215 76 186 103 q 289 49 244 49 q 403 127 359 49 z "},"æ":{"ha":944,"x_min":56,"x_max":890,"o":"m 528 315 l 768 316 q 769 359 769 339 q 762 427 769 401 q 719 498 751 471 q 637 526 686 526 q 528 315 538 526 m 430 99 q 347 15 410 53 q 221 -24 283 -23 q 105 20 155 -24 q 56 146 56 64 q 69 204 56 179 q 103 247 83 229 q 155 277 123 264 q 213 297 187 290 q 276 309 239 304 q 332 314 313 313 q 381 316 351 315 l 410 317 q 411 407 411 317 q 375 500 411 464 q 275 536 339 536 q 210 518 235 536 q 180 476 186 500 q 220 412 220 476 q 196 368 220 388 q 148 349 172 349 q 101 372 122 349 q 80 425 80 396 q 144 522 80 475 q 288 562 195 562 q 393 540 342 562 q 475 477 445 518 q 667 552 552 551 q 804 513 741 552 q 884 385 867 473 q 890 331 890 358 q 888 296 890 316 l 526 294 q 526 274 526 282 q 526 262 526 266 q 526 256 526 258 q 540 138 526 193 q 585 47 553 84 q 662 9 617 9 q 787 56 741 9 q 852 152 833 102 l 888 125 q 810 25 868 73 q 656 -23 753 -23 q 430 99 513 -23 m 415 114 q 412 189 415 140 q 410 277 410 237 q 410 298 410 288 q 357 293 382 296 q 307 286 331 290 q 262 277 283 282 q 225 260 241 271 q 197 237 209 250 q 178 205 184 225 q 172 161 172 186 q 200 68 172 99 q 275 37 228 37 q 358 62 316 37 q 415 114 400 87 z "},"ç":{"ha":589,"x_min":69,"x_max":562,"o":"m 324 -1 l 354 -3 l 328 -72 q 426 -90 401 -72 q 450 -142 450 -107 q 396 -224 450 -187 q 262 -262 342 -262 l 264 -232 q 359 -216 328 -232 q 389 -160 389 -201 q 274 -118 389 -118 l 324 -1 m 349 563 q 493 517 426 563 q 560 406 560 472 q 533 326 560 353 q 479 298 506 298 q 403 372 403 298 q 420 422 403 401 q 460 444 438 444 q 506 425 484 444 q 346 538 479 538 q 236 458 281 538 q 191 258 191 378 q 239 96 191 167 q 358 24 288 24 q 433 38 401 24 q 483 79 464 52 q 507 119 502 107 q 524 160 513 132 l 562 133 q 486 30 541 80 q 346 -20 431 -20 q 144 57 218 -20 q 69 285 69 134 q 98 414 69 358 q 171 501 126 471 q 260 547 216 532 q 349 563 305 563 z "},"è":{"ha":571,"x_min":69,"x_max":571,"o":"m 137 796 l 176 842 l 389 647 l 358 627 l 137 796 m 205 315 l 449 316 q 450 359 450 339 q 444 427 450 401 q 399 498 433 471 q 317 526 366 526 q 239 469 267 526 q 205 315 210 412 m 203 294 l 203 264 q 239 88 203 167 q 343 9 275 9 q 468 56 422 9 q 532 152 514 102 l 570 125 q 491 25 549 73 q 338 -23 433 -23 q 146 49 222 -23 q 69 258 69 121 q 96 398 69 338 q 166 490 122 458 q 255 537 210 522 q 347 552 300 552 q 484 513 420 552 q 566 385 547 473 q 571 331 571 358 q 570 296 571 316 l 203 294 z "},"é":{"ha":571,"x_min":69,"x_max":571,"o":"m 205 315 l 449 316 q 450 359 450 339 q 444 427 450 401 q 399 498 433 471 q 317 526 366 526 q 239 469 267 526 q 205 315 210 412 m 203 294 l 203 264 q 239 88 203 167 q 343 9 275 9 q 468 56 422 9 q 532 152 514 102 l 570 125 q 491 25 549 73 q 338 -23 433 -23 q 146 49 222 -23 q 69 258 69 121 q 96 398 69 338 q 166 490 122 458 q 255 537 210 522 q 347 552 300 552 q 484 513 420 552 q 566 385 547 473 q 571 331 571 358 q 570 296 571 316 l 203 294 m 201 644 l 430 841 l 472 776 l 216 620 l 201 644 z "},"ê":{"ha":571,"x_min":69,"x_max":571,"o":"m 132 614 l 319 819 l 486 618 l 467 602 l 315 743 l 151 602 l 132 614 m 205 315 l 449 316 q 450 359 450 339 q 444 427 450 401 q 399 498 433 471 q 317 526 366 526 q 239 469 267 526 q 205 315 210 412 m 203 294 l 203 264 q 239 88 203 167 q 343 9 275 9 q 468 56 422 9 q 532 152 514 102 l 570 125 q 491 25 549 73 q 338 -23 433 -23 q 146 49 222 -23 q 69 258 69 121 q 96 398 69 338 q 166 490 122 458 q 255 537 210 522 q 347 552 300 552 q 484 513 420 552 q 566 385 547 473 q 571 331 571 358 q 570 296 571 316 l 203 294 z "},"ë":{"ha":571,"x_min":69,"x_max":571,"o":"m 182 711 q 195 745 182 731 q 224 758 208 758 q 255 745 241 758 q 269 712 269 732 q 256 678 269 692 q 227 665 243 665 q 195 678 209 665 q 182 711 182 692 m 389 711 q 401 745 389 731 q 431 758 414 758 q 461 745 449 758 q 473 712 473 732 q 461 678 473 692 q 433 665 449 665 q 402 678 415 665 q 389 711 389 692 m 205 315 l 449 316 q 450 359 450 339 q 444 427 450 401 q 399 498 433 471 q 317 526 366 526 q 239 469 267 526 q 205 315 210 412 m 203 294 l 203 264 q 239 88 203 167 q 343 9 275 9 q 468 56 422 9 q 532 152 514 102 l 570 125 q 491 25 549 73 q 338 -23 433 -23 q 146 49 222 -23 q 69 258 69 121 q 96 398 69 338 q 166 490 122 458 q 255 537 210 522 q 347 552 300 552 q 484 513 420 552 q 566 385 547 473 q 571 331 571 358 q 570 296 571 316 l 203 294 z "},"ì":{"ha":355,"x_min":37,"x_max":343,"o":"m 37 796 l 76 842 l 289 647 l 258 627 l 37 796 m 251 572 q 248 50 248 338 q 343 22 254 23 l 343 0 q 195 4 288 4 q 54 0 107 4 l 54 22 q 140 50 136 24 l 140 506 q 54 519 98 519 l 54 541 q 251 572 176 548 z "},"í":{"ha":355,"x_min":53,"x_max":343,"o":"m 251 572 q 248 50 248 338 q 343 22 254 23 l 343 0 q 195 4 288 4 q 54 0 107 4 l 54 22 q 140 50 136 24 l 140 506 q 54 519 98 519 l 54 541 q 251 572 176 548 m 53 644 l 282 841 l 324 776 l 68 620 l 53 644 z "},"î":{"ha":355,"x_min":0,"x_max":354,"o":"m 0 614 l 187 819 l 354 618 l 335 602 l 183 743 l 19 602 l 0 614 m 251 572 q 248 50 248 338 q 343 22 254 23 l 343 0 q 195 4 288 4 q 54 0 107 4 l 54 22 q 140 50 136 24 l 140 506 q 54 519 98 519 l 54 541 q 251 572 176 548 z "},"ï":{"ha":355,"x_min":27,"x_max":343,"o":"m 27 711 q 40 745 27 731 q 69 758 53 758 q 100 745 87 758 q 114 712 114 732 q 101 678 114 692 q 72 665 88 665 q 41 678 54 665 q 27 711 27 692 m 235 711 q 247 745 235 731 q 277 758 259 758 q 307 745 294 758 q 319 712 319 732 q 307 678 319 692 q 278 665 294 665 q 248 678 260 665 q 235 711 235 692 m 251 572 q 248 50 248 338 q 343 22 254 23 l 343 0 q 195 4 288 4 q 54 0 107 4 l 54 22 q 140 50 136 24 l 140 506 q 54 519 98 519 l 54 541 q 251 572 176 548 z "},"ñ":{"ha":711,"x_min":90,"x_max":753,"o":"m 90 528 q 115 526 102 526 q 275 553 191 526 l 286 419 q 469 551 372 549 q 551 536 515 551 q 608 498 587 521 q 641 446 628 476 q 659 390 654 416 q 663 336 663 363 l 663 58 q 696 33 663 45 q 753 22 728 22 l 753 0 q 583 5 616 5 q 461 0 514 5 l 461 22 q 519 34 488 23 q 551 57 551 45 q 552 332 552 57 q 526 453 552 407 q 446 499 499 499 q 353 457 403 499 q 283 354 302 415 l 283 52 q 378 22 283 30 l 378 0 q 231 4 323 4 q 90 0 142 4 l 90 22 q 146 33 117 22 q 175 57 175 43 q 178 275 178 140 q 175 487 178 404 q 90 506 149 500 l 90 528 m 255 616 l 239 617 q 265 700 239 655 q 331 745 292 745 q 379 724 355 745 q 428 682 403 703 q 480 661 453 661 q 535 683 522 661 q 548 743 548 705 l 570 743 q 566 704 570 724 q 553 657 563 684 q 524 613 544 631 q 472 595 503 595 q 424 610 446 595 q 388 642 401 625 q 358 672 374 658 q 326 686 342 686 q 277 663 300 686 q 255 616 255 639 z "},"ò":{"ha":646,"x_min":69,"x_max":632,"o":"m 358 11 q 472 79 431 11 q 513 274 513 146 q 469 459 513 380 q 355 538 426 538 q 274 513 308 538 q 224 443 240 487 q 201 355 209 399 q 194 264 194 312 q 237 81 194 152 q 358 11 281 11 m 343 566 q 548 481 464 566 q 632 289 632 397 q 562 67 632 157 q 354 -23 491 -23 q 69 288 69 -23 q 153 487 69 408 q 343 566 237 566 m 220 796 l 259 842 l 472 647 l 441 627 l 220 796 z "},"ó":{"ha":646,"x_min":69,"x_max":632,"o":"m 358 11 q 472 79 431 11 q 513 274 513 146 q 469 459 513 380 q 355 538 426 538 q 274 513 308 538 q 224 443 240 487 q 201 355 209 399 q 194 264 194 312 q 237 81 194 152 q 358 11 281 11 m 343 566 q 548 481 464 566 q 632 289 632 397 q 562 67 632 157 q 354 -23 491 -23 q 69 288 69 -23 q 153 487 69 408 q 343 566 237 566 m 236 644 l 465 841 l 507 776 l 251 620 l 236 644 z "},"ô":{"ha":646,"x_min":69,"x_max":632,"o":"m 358 11 q 472 79 431 11 q 513 274 513 146 q 469 459 513 380 q 355 538 426 538 q 274 513 308 538 q 224 443 240 487 q 201 355 209 399 q 194 264 194 312 q 237 81 194 152 q 358 11 281 11 m 343 566 q 548 481 464 566 q 632 289 632 397 q 562 67 632 157 q 354 -23 491 -23 q 69 288 69 -23 q 153 487 69 408 q 343 566 237 566 m 195 614 l 382 819 l 549 618 l 530 602 l 378 743 l 214 602 l 195 614 z "},"õ":{"ha":646,"x_min":69,"x_max":632,"o":"m 358 11 q 472 79 431 11 q 513 274 513 146 q 469 459 513 380 q 355 538 426 538 q 274 513 308 538 q 224 443 240 487 q 201 355 209 399 q 194 264 194 312 q 237 81 194 152 q 358 11 281 11 m 343 566 q 548 481 464 566 q 632 289 632 397 q 562 67 632 157 q 354 -23 491 -23 q 69 288 69 -23 q 153 487 69 408 q 343 566 237 566 m 255 613 l 239 614 q 265 697 239 652 q 331 742 292 742 q 379 721 355 742 q 428 679 403 700 q 480 658 453 658 q 535 680 522 658 q 548 741 548 703 l 570 741 q 566 701 570 722 q 553 654 563 681 q 524 610 544 628 q 472 593 503 593 q 424 608 446 593 q 388 639 401 623 q 358 669 374 655 q 326 684 342 684 q 277 660 300 684 q 255 613 255 636 z "},"ö":{"ha":646,"x_min":69,"x_max":632,"o":"m 358 11 q 472 79 431 11 q 513 274 513 146 q 469 459 513 380 q 355 538 426 538 q 274 513 308 538 q 224 443 240 487 q 201 355 209 399 q 194 264 194 312 q 237 81 194 152 q 358 11 281 11 m 343 566 q 548 481 464 566 q 632 289 632 397 q 562 67 632 157 q 354 -23 491 -23 q 69 288 69 -23 q 153 487 69 408 q 343 566 237 566 m 227 711 q 239 745 227 731 q 269 758 252 758 q 300 745 286 758 q 313 712 313 732 q 300 678 313 692 q 271 665 288 665 q 240 678 254 665 q 227 711 227 692 m 434 711 q 446 745 434 731 q 476 758 458 758 q 506 745 494 758 q 518 712 518 732 q 506 678 518 692 q 477 665 494 665 q 447 678 460 665 q 434 711 434 692 z "},"÷":{"ha":694,"x_min":62,"x_max":644,"o":"m 331 536 q 395 477 395 536 q 331 410 395 410 q 288 430 304 410 q 273 475 273 450 q 292 518 273 500 q 331 536 311 536 m 62 339 l 644 339 l 644 255 l 62 255 l 62 339 m 331 195 q 395 137 395 195 q 331 69 395 69 q 288 90 304 69 q 273 134 273 110 q 292 178 273 160 q 331 195 311 195 z "},"ù":{"ha":690,"x_min":83,"x_max":728,"o":"m 83 536 q 279 551 202 536 l 277 179 q 350 23 279 23 q 426 51 389 23 q 486 111 463 79 q 522 172 509 144 l 536 199 l 536 498 q 456 514 510 514 l 456 536 q 655 551 583 536 l 644 281 q 644 213 644 251 l 646 38 q 728 22 662 24 l 728 5 q 543 -20 625 0 l 533 127 l 517 106 q 475 57 500 84 q 410 7 449 30 q 334 -15 370 -15 q 202 34 240 -15 q 164 176 164 83 l 163 503 q 83 514 141 514 l 83 536 m 277 796 l 316 842 l 529 647 l 498 627 l 277 796 z "},"ú":{"ha":690,"x_min":83,"x_max":728,"o":"m 83 536 q 279 551 202 536 l 277 179 q 350 23 279 23 q 426 51 389 23 q 486 111 463 79 q 522 172 509 144 l 536 199 l 536 498 q 456 514 510 514 l 456 536 q 655 551 583 536 l 644 281 q 644 213 644 251 l 646 38 q 728 22 662 24 l 728 5 q 543 -20 625 0 l 533 127 l 517 106 q 475 57 500 84 q 410 7 449 30 q 334 -15 370 -15 q 202 34 240 -15 q 164 176 164 83 l 163 503 q 83 514 141 514 l 83 536 m 294 644 l 524 841 l 566 776 l 309 620 l 294 644 z "},"û":{"ha":690,"x_min":83,"x_max":728,"o":"m 83 536 q 279 551 202 536 l 277 179 q 350 23 279 23 q 426 51 389 23 q 486 111 463 79 q 522 172 509 144 l 536 199 l 536 498 q 456 514 510 514 l 456 536 q 655 551 583 536 l 644 281 q 644 213 644 251 l 646 38 q 728 22 662 24 l 728 5 q 543 -20 625 0 l 533 127 l 517 106 q 475 57 500 84 q 410 7 449 30 q 334 -15 370 -15 q 202 34 240 -15 q 164 176 164 83 l 163 503 q 83 514 141 514 l 83 536 m 218 614 l 406 819 l 572 618 l 553 602 l 401 743 l 237 602 l 218 614 z "},"ü":{"ha":690,"x_min":83,"x_max":728,"o":"m 83 536 q 279 551 202 536 l 277 179 q 350 23 279 23 q 426 51 389 23 q 486 111 463 79 q 522 172 509 144 l 536 199 l 536 498 q 456 514 510 514 l 456 536 q 655 551 583 536 l 644 281 q 644 213 644 251 l 646 38 q 728 22 662 24 l 728 5 q 543 -20 625 0 l 533 127 l 517 106 q 475 57 500 84 q 410 7 449 30 q 334 -15 370 -15 q 202 34 240 -15 q 164 176 164 83 l 163 503 q 83 514 141 514 l 83 536 m 237 711 q 250 745 237 731 q 279 758 263 758 q 311 745 297 758 q 324 712 324 732 q 311 678 324 692 q 282 665 298 665 q 251 678 264 665 q 237 711 237 692 m 445 711 q 457 745 445 731 q 487 758 469 758 q 517 745 505 758 q 529 712 529 732 q 517 678 529 692 q 488 665 505 665 q 458 678 471 665 q 445 711 445 692 z "},"ý":{"ha":743,"x_min":42,"x_max":730,"o":"m 275 644 l 505 841 l 547 776 l 290 620 l 275 644 m 353 536 l 350 517 q 304 510 317 517 q 292 481 292 503 q 300 445 292 469 l 437 98 l 583 437 q 593 476 593 460 q 585 500 593 491 q 561 513 578 510 q 532 517 544 517 q 496 518 519 518 l 499 537 q 621 532 547 532 q 730 538 696 532 l 727 519 q 662 509 674 519 q 618 427 643 491 l 374 -153 q 297 -267 345 -225 q 174 -311 244 -312 q 85 -280 127 -311 q 42 -206 42 -250 q 64 -142 42 -163 q 115 -121 85 -121 q 176 -138 149 -121 q 203 -187 203 -155 q 149 -256 203 -235 q 206 -273 168 -271 q 274 -232 228 -273 q 380 -23 327 -182 l 172 456 q 125 503 159 491 q 47 517 102 511 l 47 536 q 190 532 106 532 q 353 536 292 532 z "},"ÿ":{"ha":711,"x_min":42,"x_max":730,"o":"m 353 536 l 350 517 q 304 510 317 517 q 292 481 292 503 q 300 445 292 469 l 437 98 l 583 437 q 593 476 593 460 q 585 500 593 491 q 561 513 578 510 q 532 517 544 517 q 496 518 519 518 l 499 537 q 621 532 547 532 q 730 538 696 532 l 727 519 q 662 509 674 519 q 618 427 643 491 l 374 -153 q 297 -267 345 -225 q 174 -311 244 -312 q 85 -280 127 -311 q 42 -206 42 -250 q 64 -142 42 -163 q 115 -121 85 -121 q 176 -138 149 -121 q 203 -187 203 -155 q 149 -256 203 -235 q 206 -273 168 -271 q 274 -232 228 -273 q 380 -23 327 -182 l 172 456 q 125 503 159 491 q 47 517 102 511 l 47 536 q 190 532 106 532 q 353 536 292 532 m 300 711 q 313 745 300 731 q 342 758 326 758 q 373 745 359 758 q 387 712 387 732 q 374 678 387 692 q 345 665 361 665 q 313 678 327 665 q 300 711 300 692 m 507 711 q 519 745 507 731 q 549 758 532 758 q 579 745 567 758 q 591 712 591 732 q 579 678 591 692 q 551 665 567 665 q 520 678 533 665 q 507 711 507 692 z "},"Ā":{"ha":996,"x_min":0,"x_max":959,"o":"m 582 374 l 309 374 l 180 72 q 176 58 176 65 q 206 28 176 39 q 266 16 236 16 l 267 -5 l 0 -7 l 0 20 q 3 20 1 20 q 58 32 28 20 q 106 64 88 43 q 297 475 129 91 l 465 857 l 510 857 l 807 153 q 890 41 845 62 q 916 33 902 35 q 941 31 929 31 q 959 30 954 31 l 956 -4 q 751 0 865 0 q 585 -4 648 0 l 586 22 q 610 20 586 20 q 678 43 659 20 q 688 73 688 54 q 680 113 688 91 l 673 133 l 582 374 m 326 407 l 571 407 l 450 700 l 326 407 z "},"ā":{"ha":590,"x_min":69,"x_max":635,"o":"m 614 113 l 635 100 q 505 -9 617 -9 q 435 21 458 -9 q 408 94 412 52 q 367 49 381 62 q 313 12 353 35 q 235 -12 274 -12 q 118 26 167 -12 q 69 146 69 64 q 85 210 69 183 q 128 254 100 237 q 184 282 156 271 q 251 298 213 293 q 314 304 289 302 q 370 306 339 305 q 403 307 400 307 q 407 407 407 307 q 289 536 407 536 q 224 518 248 536 q 194 476 199 500 q 233 416 233 476 q 209 364 233 380 q 161 349 184 349 q 115 372 136 349 q 95 425 95 396 q 159 522 95 475 q 301 562 210 562 q 453 509 387 562 q 519 365 519 456 q 517 240 519 320 q 514 125 514 160 q 556 35 514 34 q 593 53 581 35 q 614 113 605 71 m 403 127 l 403 288 q 315 279 355 283 q 247 264 275 274 q 202 229 218 254 q 186 161 186 205 q 215 76 186 103 q 289 49 244 49 q 403 127 359 49 z "},"Ă":{"ha":996,"x_min":0,"x_max":959,"o":"m 582 374 l 309 374 l 180 72 q 176 58 176 65 q 206 28 176 39 q 266 16 236 16 l 267 -5 l 0 -7 l 0 20 q 3 20 1 20 q 58 32 28 20 q 106 64 88 43 q 297 475 129 91 l 465 857 l 510 857 l 807 153 q 890 41 845 62 q 916 33 902 35 q 941 31 929 31 q 959 30 954 31 l 956 -4 q 751 0 865 0 q 585 -4 648 0 l 586 22 q 610 20 586 20 q 678 43 659 20 q 688 73 688 54 q 680 113 688 91 l 673 133 l 582 374 m 326 407 l 571 407 l 450 700 l 326 407 z "},"ă":{"ha":590,"x_min":69,"x_max":635,"o":"m 614 113 l 635 100 q 505 -9 617 -9 q 435 21 458 -9 q 408 94 412 52 q 367 49 381 62 q 313 12 353 35 q 235 -12 274 -12 q 118 26 167 -12 q 69 146 69 64 q 85 210 69 183 q 128 254 100 237 q 184 282 156 271 q 251 298 213 293 q 314 304 289 302 q 370 306 339 305 q 403 307 400 307 q 407 407 407 307 q 289 536 407 536 q 224 518 248 536 q 194 476 199 500 q 233 416 233 476 q 209 364 233 380 q 161 349 184 349 q 115 372 136 349 q 95 425 95 396 q 159 522 95 475 q 301 562 210 562 q 453 509 387 562 q 519 365 519 456 q 517 240 519 320 q 514 125 514 160 q 556 35 514 34 q 593 53 581 35 q 614 113 605 71 m 403 127 l 403 288 q 315 279 355 283 q 247 264 275 274 q 202 229 218 254 q 186 161 186 205 q 215 76 186 103 q 289 49 244 49 q 403 127 359 49 z "},"Ą":{"ha":996,"x_min":0,"x_max":959,"o":"m 582 374 l 309 374 l 180 72 q 176 58 176 65 q 206 28 176 39 q 266 16 236 16 l 267 -5 l 0 -7 l 0 20 q 3 20 1 20 q 58 32 28 20 q 106 64 88 43 q 297 475 129 91 l 465 857 l 510 857 l 807 153 q 890 41 845 62 q 916 33 902 35 q 941 31 929 31 q 959 30 954 31 l 956 -4 q 751 0 865 0 q 585 -4 648 0 l 586 22 q 610 20 586 20 q 678 43 659 20 q 688 73 688 54 q 680 113 688 91 l 673 133 l 582 374 m 326 407 l 571 407 l 450 700 l 326 407 z "},"ą":{"ha":621,"x_min":69,"x_max":635,"o":"m 267 -182 q 307 -90 267 -130 q 388 -33 347 -50 q 503 5 472 5 q 515 -7 511 5 q 482 -26 500 -14 q 436 -58 464 -38 q 391 -107 408 -79 q 373 -167 373 -136 q 396 -250 373 -225 q 452 -275 419 -275 q 518 -242 486 -275 q 552 -179 551 -209 q 567 -186 553 -180 q 585 -197 581 -193 q 528 -273 570 -239 q 427 -308 487 -308 q 311 -273 354 -308 q 267 -182 267 -237 m 614 113 l 635 100 q 505 -9 617 -9 q 435 21 458 -9 q 408 94 412 52 q 367 49 381 62 q 313 12 353 35 q 235 -12 274 -12 q 118 26 167 -12 q 69 146 69 64 q 85 210 69 183 q 128 254 100 237 q 184 282 156 271 q 251 298 213 293 q 314 304 289 302 q 370 306 339 305 q 403 307 400 307 q 407 407 407 307 q 289 536 407 536 q 224 518 248 536 q 194 476 199 500 q 233 416 233 476 q 209 364 233 380 q 161 349 184 349 q 115 372 136 349 q 95 425 95 396 q 159 522 95 475 q 301 562 210 562 q 453 509 387 562 q 519 365 519 456 q 517 240 519 320 q 514 125 514 160 q 556 35 514 34 q 593 53 581 35 q 614 113 605 71 m 403 127 l 403 288 q 315 279 355 283 q 247 264 275 274 q 202 229 218 254 q 186 161 186 205 q 215 76 186 103 q 289 49 244 49 q 403 127 359 49 z "},"Ć":{"ha":944,"x_min":75,"x_max":880,"o":"m 425 920 l 654 1116 l 696 1051 l 439 895 l 425 920 m 536 869 q 686 845 614 869 q 779 795 757 821 q 804 818 795 806 q 814 840 812 830 q 821 879 817 849 l 864 879 l 860 598 l 833 598 q 739 770 815 708 q 525 831 662 831 q 324 722 392 831 q 254 425 256 612 q 544 11 254 11 q 661 29 610 11 q 747 84 711 47 q 804 157 783 121 q 849 250 825 194 l 880 225 q 541 -31 774 -30 q 205 86 335 -31 q 75 415 75 203 q 106 598 75 517 q 186 728 137 680 q 298 811 235 777 q 420 857 361 845 q 536 869 479 869 z "},"ć":{"ha":616,"x_min":69,"x_max":562,"o":"m 199 644 l 429 841 l 471 776 l 214 620 l 199 644 m 349 563 q 493 517 426 563 q 560 406 560 472 q 533 326 560 353 q 479 298 506 298 q 403 372 403 298 q 420 422 403 401 q 460 444 438 444 q 506 425 484 444 q 346 538 479 538 q 236 458 281 538 q 191 258 191 378 q 239 96 191 167 q 358 24 288 24 q 433 38 401 24 q 483 79 464 52 q 507 119 502 107 q 524 160 513 132 l 562 133 q 486 30 541 80 q 346 -20 431 -20 q 144 57 218 -20 q 69 285 69 134 q 98 414 69 358 q 171 501 126 471 q 260 547 216 532 q 349 563 305 563 z "},"Ĉ":{"ha":944,"x_min":75,"x_max":880,"o":"m 370 898 l 557 1103 l 724 902 l 705 886 l 553 1027 l 389 886 l 370 898 m 536 869 q 686 845 614 869 q 779 795 757 821 q 804 818 795 806 q 814 840 812 830 q 821 879 817 849 l 864 879 l 860 598 l 833 598 q 739 770 815 708 q 525 831 662 831 q 324 722 392 831 q 254 425 256 612 q 544 11 254 11 q 661 29 610 11 q 747 84 711 47 q 804 157 783 121 q 849 250 825 194 l 880 225 q 541 -31 774 -30 q 205 86 335 -31 q 75 415 75 203 q 106 598 75 517 q 186 728 137 680 q 298 811 235 777 q 420 857 361 845 q 536 869 479 869 z "},"ĉ":{"ha":616,"x_min":69,"x_max":562,"o":"m 155 614 l 342 819 l 509 618 l 490 602 l 338 743 l 174 602 l 155 614 m 349 563 q 493 517 426 563 q 560 406 560 472 q 533 326 560 353 q 479 298 506 298 q 403 372 403 298 q 420 422 403 401 q 460 444 438 444 q 506 425 484 444 q 346 538 479 538 q 236 458 281 538 q 191 258 191 378 q 239 96 191 167 q 358 24 288 24 q 433 38 401 24 q 483 79 464 52 q 507 119 502 107 q 524 160 513 132 l 562 133 q 486 30 541 80 q 346 -20 431 -20 q 144 57 218 -20 q 69 285 69 134 q 98 414 69 358 q 171 501 126 471 q 260 547 216 532 q 349 563 305 563 z "},"Ċ":{"ha":944,"x_min":75,"x_max":880,"o":"m 536 869 q 686 845 614 869 q 779 795 757 821 q 804 818 795 806 q 814 840 812 830 q 821 879 817 849 l 864 879 l 860 598 l 833 598 q 739 770 815 708 q 525 831 662 831 q 324 722 392 831 q 254 425 256 612 q 544 11 254 11 q 661 29 610 11 q 747 84 711 47 q 804 157 783 121 q 849 250 825 194 l 880 225 q 541 -31 774 -30 q 205 86 335 -31 q 75 415 75 203 q 106 598 75 517 q 186 728 137 680 q 298 811 235 777 q 420 857 361 845 q 536 869 479 869 z "},"ċ":{"ha":616,"x_min":69,"x_max":562,"o":"m 349 563 q 493 517 426 563 q 560 406 560 472 q 533 326 560 353 q 479 298 506 298 q 403 372 403 298 q 420 422 403 401 q 460 444 438 444 q 506 425 484 444 q 346 538 479 538 q 236 458 281 538 q 191 258 191 378 q 239 96 191 167 q 358 24 288 24 q 433 38 401 24 q 483 79 464 52 q 507 119 502 107 q 524 160 513 132 l 562 133 q 486 30 541 80 q 346 -20 431 -20 q 144 57 218 -20 q 69 285 69 134 q 98 414 69 358 q 171 501 126 471 q 260 547 216 532 q 349 563 305 563 z "},"Č":{"ha":944,"x_min":75,"x_max":880,"o":"m 709 1099 l 529 901 l 358 1101 l 376 1116 l 534 972 l 692 1116 l 709 1099 m 536 869 q 686 845 614 869 q 779 795 757 821 q 804 818 795 806 q 814 840 812 830 q 821 879 817 849 l 864 879 l 860 598 l 833 598 q 739 770 815 708 q 525 831 662 831 q 324 722 392 831 q 254 425 256 612 q 544 11 254 11 q 661 29 610 11 q 747 84 711 47 q 804 157 783 121 q 849 250 825 194 l 880 225 q 541 -31 774 -30 q 205 86 335 -31 q 75 415 75 203 q 106 598 75 517 q 186 728 137 680 q 298 811 235 777 q 420 857 361 845 q 536 869 479 869 z "},"č":{"ha":616,"x_min":69,"x_max":562,"o":"m 500 808 l 320 610 l 149 811 l 167 826 l 326 682 l 483 826 l 500 808 m 349 563 q 493 517 426 563 q 560 406 560 472 q 533 326 560 353 q 479 298 506 298 q 403 372 403 298 q 420 422 403 401 q 460 444 438 444 q 506 425 484 444 q 346 538 479 538 q 236 458 281 538 q 191 258 191 378 q 239 96 191 167 q 358 24 288 24 q 433 38 401 24 q 483 79 464 52 q 507 119 502 107 q 524 160 513 132 l 562 133 q 486 30 541 80 q 346 -20 431 -20 q 144 57 218 -20 q 69 285 69 134 q 98 414 69 358 q 171 501 126 471 q 260 547 216 532 q 349 563 305 563 z "},"Ď":{"ha":910,"x_min":66,"x_max":861,"o":"m 604 1092 l 423 894 l 252 1095 l 270 1109 l 429 966 l 586 1109 l 604 1092 m 861 401 q 835 258 861 328 q 757 128 808 189 q 618 32 705 68 q 420 -4 532 -4 q 366 -3 411 -4 q 240 -2 320 -3 q 66 -1 160 -1 l 66 20 q 186 83 176 30 l 186 766 q 176 797 184 784 q 149 816 168 810 q 120 824 129 822 q 84 829 111 826 l 84 853 q 293 854 164 853 q 456 856 422 856 q 589 832 522 856 q 719 759 655 808 q 822 616 783 709 q 861 401 861 524 m 713 393 q 713 401 713 397 q 701 581 713 509 q 654 709 688 652 q 558 791 620 765 q 403 818 496 818 q 317 814 362 818 q 317 692 317 779 q 317 437 317 617 q 317 193 317 256 q 317 92 317 114 q 338 45 317 66 q 392 24 359 24 q 554 45 491 24 q 652 113 617 65 q 699 226 686 161 q 713 393 712 290 z "},"ď":{"ha":822,"x_min":83,"x_max":825,"o":"m 712 693 q 644 724 671 693 q 617 796 617 755 q 650 870 617 842 q 719 898 682 898 q 790 865 755 898 q 825 783 825 833 q 773 643 825 703 q 667 576 722 583 l 656 597 q 728 645 688 609 q 770 713 768 681 q 712 693 736 693 m 610 890 q 602 359 604 661 q 606 45 602 153 q 617 29 606 35 q 639 21 628 23 q 664 18 650 19 q 681 16 678 16 l 681 0 q 507 -14 540 -5 l 496 85 q 419 20 467 47 q 324 -8 372 -8 q 150 67 217 -8 q 83 264 83 142 q 159 476 83 393 q 353 559 235 559 q 419 545 389 559 q 463 517 449 532 q 486 488 477 502 l 494 475 l 494 812 q 396 841 488 840 l 397 864 q 610 890 536 864 m 484 178 l 494 302 l 487 425 l 480 442 q 458 477 472 457 q 416 513 445 498 q 354 529 388 529 q 221 277 221 529 q 358 37 221 37 q 446 85 407 37 q 484 178 484 133 z "},"Đ":{"ha":910,"x_min":66,"x_max":861,"o":"m 861 401 q 835 258 861 328 q 757 128 808 189 q 618 32 705 68 q 420 -4 532 -4 q 366 -3 411 -4 q 240 -2 320 -3 q 66 -1 160 -1 l 66 20 q 186 83 176 30 l 186 766 q 176 797 184 784 q 149 816 168 810 q 120 824 129 822 q 84 829 111 826 l 84 853 q 293 854 164 853 q 456 856 422 856 q 589 832 522 856 q 719 759 655 808 q 822 616 783 709 q 861 401 861 524 m 713 393 q 713 401 713 397 q 701 581 713 509 q 654 709 688 652 q 558 791 620 765 q 403 818 496 818 q 317 814 362 818 q 317 692 317 779 q 317 437 317 617 q 317 193 317 256 q 317 92 317 114 q 338 45 317 66 q 392 24 359 24 q 554 45 491 24 q 652 113 617 65 q 699 226 686 161 q 713 393 712 290 z "},"đ":{"ha":648,"x_min":83,"x_max":681,"o":"m 610 890 q 602 359 604 661 q 606 45 602 153 q 617 29 606 35 q 639 21 628 23 q 664 18 650 19 q 681 16 678 16 l 681 0 q 507 -14 540 -5 l 496 85 q 419 20 467 47 q 324 -8 372 -8 q 150 67 217 -8 q 83 264 83 142 q 159 476 83 393 q 353 559 235 559 q 419 545 389 559 q 463 517 449 532 q 486 488 477 502 l 494 475 l 494 812 q 396 841 488 840 l 397 864 q 610 890 536 864 m 484 178 l 494 302 l 487 425 l 480 442 q 458 477 472 457 q 416 513 445 498 q 354 529 388 529 q 221 277 221 529 q 358 37 221 37 q 446 85 407 37 q 484 178 484 133 z "},"Ē":{"ha":791,"x_min":66,"x_max":708,"o":"m 696 0 l 66 0 l 66 22 q 104 20 66 20 q 178 53 171 20 q 190 576 190 126 q 184 793 190 774 q 133 819 182 808 l 84 829 l 84 853 q 405 849 228 849 q 693 853 582 849 l 697 656 l 671 656 q 651 722 665 690 q 605 786 637 754 q 530 818 572 818 l 317 818 l 317 449 l 518 449 q 586 556 581 449 l 618 556 l 618 312 l 591 312 q 514 418 585 418 l 317 418 l 317 94 q 365 27 317 28 l 570 27 q 638 87 605 28 q 678 206 671 146 l 708 206 l 696 0 z "},"ē":{"ha":600,"x_min":69,"x_max":571,"o":"m 205 315 l 449 316 q 450 359 450 339 q 444 427 450 401 q 399 498 433 471 q 317 526 366 526 q 239 469 267 526 q 205 315 210 412 m 203 294 l 203 264 q 239 88 203 167 q 343 9 275 9 q 468 56 422 9 q 532 152 514 102 l 570 125 q 491 25 549 73 q 338 -23 433 -23 q 146 49 222 -23 q 69 258 69 121 q 96 398 69 338 q 166 490 122 458 q 255 537 210 522 q 347 552 300 552 q 484 513 420 552 q 566 385 547 473 q 571 331 571 358 q 570 296 571 316 l 203 294 z "},"Ĕ":{"ha":791,"x_min":66,"x_max":708,"o":"m 696 0 l 66 0 l 66 22 q 104 20 66 20 q 178 53 171 20 q 190 576 190 126 q 184 793 190 774 q 133 819 182 808 l 84 829 l 84 853 q 405 849 228 849 q 693 853 582 849 l 697 656 l 671 656 q 651 722 665 690 q 605 786 637 754 q 530 818 572 818 l 317 818 l 317 449 l 518 449 q 586 556 581 449 l 618 556 l 618 312 l 591 312 q 514 418 585 418 l 317 418 l 317 94 q 365 27 317 28 l 570 27 q 638 87 605 28 q 678 206 671 146 l 708 206 l 696 0 z "},"ĕ":{"ha":600,"x_min":69,"x_max":571,"o":"m 205 315 l 449 316 q 450 359 450 339 q 444 427 450 401 q 399 498 433 471 q 317 526 366 526 q 239 469 267 526 q 205 315 210 412 m 203 294 l 203 264 q 239 88 203 167 q 343 9 275 9 q 468 56 422 9 q 532 152 514 102 l 570 125 q 491 25 549 73 q 338 -23 433 -23 q 146 49 222 -23 q 69 258 69 121 q 96 398 69 338 q 166 490 122 458 q 255 537 210 522 q 347 552 300 552 q 484 513 420 552 q 566 385 547 473 q 571 331 571 358 q 570 296 571 316 l 203 294 z "},"Ė":{"ha":791,"x_min":66,"x_max":708,"o":"m 696 0 l 66 0 l 66 22 q 104 20 66 20 q 178 53 171 20 q 190 576 190 126 q 184 793 190 774 q 133 819 182 808 l 84 829 l 84 853 q 405 849 228 849 q 693 853 582 849 l 697 656 l 671 656 q 651 722 665 690 q 605 786 637 754 q 530 818 572 818 l 317 818 l 317 449 l 518 449 q 586 556 581 449 l 618 556 l 618 312 l 591 312 q 514 418 585 418 l 317 418 l 317 94 q 365 27 317 28 l 570 27 q 638 87 605 28 q 678 206 671 146 l 708 206 l 696 0 z "},"ė":{"ha":600,"x_min":69,"x_max":571,"o":"m 205 315 l 449 316 q 450 359 450 339 q 444 427 450 401 q 399 498 433 471 q 317 526 366 526 q 239 469 267 526 q 205 315 210 412 m 203 294 l 203 264 q 239 88 203 167 q 343 9 275 9 q 468 56 422 9 q 532 152 514 102 l 570 125 q 491 25 549 73 q 338 -23 433 -23 q 146 49 222 -23 q 69 258 69 121 q 96 398 69 338 q 166 490 122 458 q 255 537 210 522 q 347 552 300 552 q 484 513 420 552 q 566 385 547 473 q 571 331 571 358 q 570 296 571 316 l 203 294 z "},"Ę":{"ha":791,"x_min":66,"x_max":708,"o":"m 696 0 l 66 0 l 66 22 q 104 20 66 20 q 178 53 171 20 q 190 576 190 126 q 184 793 190 774 q 133 819 182 808 l 84 829 l 84 853 q 405 849 228 849 q 693 853 582 849 l 697 656 l 671 656 q 651 722 665 690 q 605 786 637 754 q 530 818 572 818 l 317 818 l 317 449 l 518 449 q 586 556 581 449 l 618 556 l 618 312 l 591 312 q 514 418 585 418 l 317 418 l 317 94 q 365 27 317 28 l 570 27 q 638 87 605 28 q 678 206 671 146 l 708 206 l 696 0 z "},"ę":{"ha":600,"x_min":69,"x_max":571,"o":"m 156 -182 q 196 -90 156 -130 q 277 -33 236 -50 q 384 -5 336 -7 q 404 -7 395 -5 q 380 -22 396 -12 q 344 -49 363 -33 q 306 -83 324 -65 q 275 -123 288 -100 q 263 -167 263 -146 q 286 -250 263 -225 q 340 -275 308 -275 q 407 -242 374 -275 q 441 -179 439 -209 q 456 -186 442 -180 q 473 -197 469 -193 q 418 -273 458 -239 q 316 -308 377 -308 q 199 -273 243 -308 q 156 -182 156 -237 m 205 315 l 449 316 q 450 359 450 339 q 444 427 450 401 q 399 498 433 471 q 317 526 366 526 q 239 469 267 526 q 205 315 210 412 m 203 294 l 203 264 q 239 88 203 167 q 343 9 275 9 q 468 56 422 9 q 532 152 514 102 l 570 125 q 491 25 549 73 q 338 -23 433 -23 q 146 49 222 -23 q 69 258 69 121 q 96 398 69 338 q 166 490 122 458 q 255 537 210 522 q 347 552 300 552 q 484 513 420 552 q 566 385 547 473 q 571 331 571 358 q 570 296 571 316 l 203 294 z "},"Ě":{"ha":791,"x_min":66,"x_max":708,"o":"m 696 0 l 66 0 l 66 22 q 104 20 66 20 q 178 53 171 20 q 190 576 190 126 q 184 793 190 774 q 133 819 182 808 l 84 829 l 84 853 q 405 849 228 849 q 693 853 582 849 l 697 656 l 671 656 q 651 722 665 690 q 605 786 637 754 q 530 818 572 818 l 317 818 l 317 449 l 518 449 q 586 556 581 449 l 618 556 l 618 312 l 591 312 q 514 418 585 418 l 317 418 l 317 94 q 365 27 317 28 l 570 27 q 638 87 605 28 q 678 206 671 146 l 708 206 l 696 0 z "},"ě":{"ha":600,"x_min":69,"x_max":571,"o":"m 484 808 l 304 610 l 133 811 l 151 826 l 309 682 l 467 826 l 484 808 m 205 315 l 449 316 q 450 359 450 339 q 444 427 450 401 q 399 498 433 471 q 317 526 366 526 q 239 469 267 526 q 205 315 210 412 m 203 294 l 203 264 q 239 88 203 167 q 343 9 275 9 q 468 56 422 9 q 532 152 514 102 l 570 125 q 491 25 549 73 q 338 -23 433 -23 q 146 49 222 -23 q 69 258 69 121 q 96 398 69 338 q 166 490 122 458 q 255 537 210 522 q 347 552 300 552 q 484 513 420 552 q 566 385 547 473 q 571 331 571 358 q 570 296 571 316 l 203 294 z "},"Ĝ":{"ha":1013,"x_min":69,"x_max":985,"o":"m 545 871 q 648 850 595 871 q 728 810 700 830 q 780 774 757 789 q 814 810 799 783 q 831 865 829 837 l 867 865 l 863 585 l 821 585 q 541 831 781 831 q 323 732 400 831 q 247 400 247 633 q 275 212 247 297 q 367 71 302 127 q 524 14 431 14 q 653 43 590 14 q 750 119 716 72 q 754 229 754 172 q 750 308 754 279 q 623 343 697 339 l 623 373 l 985 373 l 985 343 q 888 308 910 335 q 883 189 883 297 q 886 -4 883 99 l 863 -4 l 856 16 q 827 60 850 38 q 772 83 804 83 q 669 3 742 38 q 522 -31 597 -31 q 196 87 323 -31 q 69 401 69 205 q 99 589 69 506 q 177 724 129 673 q 289 809 225 774 q 416 857 353 844 q 545 871 479 871 z "},"ĝ":{"ha":647,"x_min":56,"x_max":640,"o":"m 137 614 l 324 819 l 491 618 l 472 602 l 320 743 l 156 602 l 137 614 m 600 458 q 562 484 583 458 q 536 510 541 510 q 484 488 502 510 l 500 476 q 528 431 514 464 q 541 357 541 399 q 471 207 541 262 q 326 152 401 152 q 251 164 289 152 l 214 175 l 199 170 q 172 149 186 163 q 157 121 159 134 q 245 76 159 76 q 414 66 365 76 q 544 18 499 52 q 589 -98 589 -16 q 500 -258 589 -199 q 278 -317 411 -317 q 111 -275 165 -317 q 56 -174 56 -233 q 96 -92 56 -125 q 213 -31 136 -60 q 206 -31 212 -31 q 199 -31 201 -31 q 125 -3 160 -31 q 90 77 90 26 q 107 130 90 104 q 142 165 125 155 q 186 189 159 175 q 166 210 180 193 q 136 245 152 227 q 110 293 121 263 q 99 353 99 323 q 160 488 99 429 q 313 548 221 548 q 397 538 358 548 q 452 519 435 529 l 468 510 q 576 566 530 566 q 640 514 640 566 q 600 458 640 458 m 441 354 q 403 479 441 434 q 320 525 365 525 q 243 476 279 525 q 206 357 206 427 q 238 228 206 281 q 324 175 270 175 q 408 218 374 175 q 441 354 441 262 m 499 -160 q 447 -58 499 -83 q 251 -34 395 -34 l 228 -45 q 178 -87 203 -54 q 153 -164 153 -119 q 190 -254 153 -213 q 301 -294 227 -294 q 448 -254 396 -294 q 499 -160 499 -214 z "},"Ğ":{"ha":1013,"x_min":69,"x_max":985,"o":"m 545 871 q 648 850 595 871 q 728 810 700 830 q 780 774 757 789 q 814 810 799 783 q 831 865 829 837 l 867 865 l 863 585 l 821 585 q 541 831 781 831 q 323 732 400 831 q 247 400 247 633 q 275 212 247 297 q 367 71 302 127 q 524 14 431 14 q 653 43 590 14 q 750 119 716 72 q 754 229 754 172 q 750 308 754 279 q 623 343 697 339 l 623 373 l 985 373 l 985 343 q 888 308 910 335 q 883 189 883 297 q 886 -4 883 99 l 863 -4 l 856 16 q 827 60 850 38 q 772 83 804 83 q 669 3 742 38 q 522 -31 597 -31 q 196 87 323 -31 q 69 401 69 205 q 99 589 69 506 q 177 724 129 673 q 289 809 225 774 q 416 857 353 844 q 545 871 479 871 z "},"ğ":{"ha":647,"x_min":56,"x_max":640,"o":"m 600 458 q 562 484 583 458 q 536 510 541 510 q 484 488 502 510 l 500 476 q 528 431 514 464 q 541 357 541 399 q 471 207 541 262 q 326 152 401 152 q 251 164 289 152 l 214 175 l 199 170 q 172 149 186 163 q 157 121 159 134 q 245 76 159 76 q 414 66 365 76 q 544 18 499 52 q 589 -98 589 -16 q 500 -258 589 -199 q 278 -317 411 -317 q 111 -275 165 -317 q 56 -174 56 -233 q 96 -92 56 -125 q 213 -31 136 -60 q 206 -31 212 -31 q 199 -31 201 -31 q 125 -3 160 -31 q 90 77 90 26 q 107 130 90 104 q 142 165 125 155 q 186 189 159 175 q 166 210 180 193 q 136 245 152 227 q 110 293 121 263 q 99 353 99 323 q 160 488 99 429 q 313 548 221 548 q 397 538 358 548 q 452 519 435 529 l 468 510 q 576 566 530 566 q 640 514 640 566 q 600 458 640 458 m 441 354 q 403 479 441 434 q 320 525 365 525 q 243 476 279 525 q 206 357 206 427 q 238 228 206 281 q 324 175 270 175 q 408 218 374 175 q 441 354 441 262 m 499 -160 q 447 -58 499 -83 q 251 -34 395 -34 l 228 -45 q 178 -87 203 -54 q 153 -164 153 -119 q 190 -254 153 -213 q 301 -294 227 -294 q 448 -254 396 -294 q 499 -160 499 -214 z "},"Ġ":{"ha":1013,"x_min":69,"x_max":985,"o":"m 545 871 q 648 850 595 871 q 728 810 700 830 q 780 774 757 789 q 814 810 799 783 q 831 865 829 837 l 867 865 l 863 585 l 821 585 q 541 831 781 831 q 323 732 400 831 q 247 400 247 633 q 275 212 247 297 q 367 71 302 127 q 524 14 431 14 q 653 43 590 14 q 750 119 716 72 q 754 229 754 172 q 750 308 754 279 q 623 343 697 339 l 623 373 l 985 373 l 985 343 q 888 308 910 335 q 883 189 883 297 q 886 -4 883 99 l 863 -4 l 856 16 q 827 60 850 38 q 772 83 804 83 q 669 3 742 38 q 522 -31 597 -31 q 196 87 323 -31 q 69 401 69 205 q 99 589 69 506 q 177 724 129 673 q 289 809 225 774 q 416 857 353 844 q 545 871 479 871 z "},"ġ":{"ha":647,"x_min":56,"x_max":640,"o":"m 600 458 q 562 484 583 458 q 536 510 541 510 q 484 488 502 510 l 500 476 q 528 431 514 464 q 541 357 541 399 q 471 207 541 262 q 326 152 401 152 q 251 164 289 152 l 214 175 l 199 170 q 172 149 186 163 q 157 121 159 134 q 245 76 159 76 q 414 66 365 76 q 544 18 499 52 q 589 -98 589 -16 q 500 -258 589 -199 q 278 -317 411 -317 q 111 -275 165 -317 q 56 -174 56 -233 q 96 -92 56 -125 q 213 -31 136 -60 q 206 -31 212 -31 q 199 -31 201 -31 q 125 -3 160 -31 q 90 77 90 26 q 107 130 90 104 q 142 165 125 155 q 186 189 159 175 q 166 210 180 193 q 136 245 152 227 q 110 293 121 263 q 99 353 99 323 q 160 488 99 429 q 313 548 221 548 q 397 538 358 548 q 452 519 435 529 l 468 510 q 576 566 530 566 q 640 514 640 566 q 600 458 640 458 m 441 354 q 403 479 441 434 q 320 525 365 525 q 243 476 279 525 q 206 357 206 427 q 238 228 206 281 q 324 175 270 175 q 408 218 374 175 q 441 354 441 262 m 499 -160 q 447 -58 499 -83 q 251 -34 395 -34 l 228 -45 q 178 -87 203 -54 q 153 -164 153 -119 q 190 -254 153 -213 q 301 -294 227 -294 q 448 -254 396 -294 q 499 -160 499 -214 z "},"Ģ":{"ha":1013,"x_min":69,"x_max":985,"o":"m 545 871 q 648 850 595 871 q 728 810 700 830 q 780 774 757 789 q 814 810 799 783 q 831 865 829 837 l 867 865 l 863 585 l 821 585 q 541 831 781 831 q 323 732 400 831 q 247 400 247 633 q 275 212 247 297 q 367 71 302 127 q 524 14 431 14 q 653 43 590 14 q 750 119 716 72 q 754 229 754 172 q 750 308 754 279 q 623 343 697 339 l 623 373 l 985 373 l 985 343 q 888 308 910 335 q 883 189 883 297 q 886 -4 883 99 l 863 -4 l 856 16 q 827 60 850 38 q 772 83 804 83 q 669 3 742 38 q 522 -31 597 -31 q 196 87 323 -31 q 69 401 69 205 q 99 589 69 506 q 177 724 129 673 q 289 809 225 774 q 416 857 353 844 q 545 871 479 871 z "},"ģ":{"ha":647,"x_min":56,"x_max":640,"o":"m 600 458 q 562 484 583 458 q 536 510 541 510 q 484 488 502 510 l 500 476 q 528 431 514 464 q 541 357 541 399 q 471 207 541 262 q 326 152 401 152 q 251 164 289 152 l 214 175 l 199 170 q 172 149 186 163 q 157 121 159 134 q 245 76 159 76 q 414 66 365 76 q 544 18 499 52 q 589 -98 589 -16 q 500 -258 589 -199 q 278 -317 411 -317 q 111 -275 165 -317 q 56 -174 56 -233 q 96 -92 56 -125 q 213 -31 136 -60 q 206 -31 212 -31 q 199 -31 201 -31 q 125 -3 160 -31 q 90 77 90 26 q 107 130 90 104 q 142 165 125 155 q 186 189 159 175 q 166 210 180 193 q 136 245 152 227 q 110 293 121 263 q 99 353 99 323 q 160 488 99 429 q 313 548 221 548 q 397 538 358 548 q 452 519 435 529 l 468 510 q 576 566 530 566 q 640 514 640 566 q 600 458 640 458 m 441 354 q 403 479 441 434 q 320 525 365 525 q 243 476 279 525 q 206 357 206 427 q 238 228 206 281 q 324 175 270 175 q 408 218 374 175 q 441 354 441 262 m 499 -160 q 447 -58 499 -83 q 251 -34 395 -34 l 228 -45 q 178 -87 203 -54 q 153 -164 153 -119 q 190 -254 153 -213 q 301 -294 227 -294 q 448 -254 396 -294 q 499 -160 499 -214 z "},"Ĥ":{"ha":1024,"x_min":80,"x_max":949,"o":"m 694 792 q 605 825 694 822 l 602 845 q 716 842 648 842 q 929 849 853 842 l 929 829 q 880 819 929 829 q 829 793 830 808 q 827 661 827 781 q 836 47 827 90 q 941 16 841 16 l 947 16 l 949 -1 q 779 4 884 4 q 591 -3 658 4 l 593 20 q 696 60 696 20 l 696 418 l 317 418 l 317 60 q 420 20 317 20 l 422 -1 q 317 0 378 0 q 80 -5 183 0 l 80 16 q 85 16 80 16 q 178 47 171 16 q 183 296 180 64 q 186 681 186 528 q 184 793 186 785 q 138 819 180 808 l 99 829 l 99 849 q 262 844 163 844 q 423 849 365 844 l 423 822 q 317 791 319 815 l 317 449 l 696 449 l 694 792 z "},"ĥ":{"ha":764,"x_min":83,"x_max":736,"o":"m 83 861 l 84 861 q 281 891 194 861 l 278 416 q 310 464 298 450 q 345 503 321 477 q 397 539 368 528 q 464 551 426 551 q 551 528 513 551 q 608 471 589 505 q 635 405 627 437 q 644 350 644 373 q 644 211 644 309 q 644 83 644 113 q 644 50 644 52 q 663 31 644 38 q 694 24 682 24 q 736 22 705 23 l 736 0 q 590 5 680 5 q 445 0 496 5 l 445 22 q 465 23 453 23 q 488 24 476 23 q 511 29 500 26 q 527 37 521 33 q 533 49 533 42 q 533 50 533 49 l 533 373 q 441 499 533 498 q 353 473 385 499 q 278 382 321 446 l 278 50 q 295 30 278 37 q 333 23 312 23 q 372 22 354 23 l 372 0 q 221 5 311 5 q 83 0 136 5 l 83 22 q 138 30 107 22 q 170 50 170 38 q 172 260 170 100 q 174 513 174 420 q 170 811 174 707 q 146 826 160 821 q 123 833 133 831 q 83 838 113 834 l 83 861 z "},"Ħ":{"ha":1024,"x_min":80,"x_max":949,"o":"m 694 792 q 605 825 694 822 l 602 845 q 716 842 648 842 q 929 849 853 842 l 929 829 q 880 819 929 829 q 829 793 830 808 q 827 661 827 781 q 836 47 827 90 q 941 16 841 16 l 947 16 l 949 -1 q 779 4 884 4 q 591 -3 658 4 l 593 20 q 696 60 696 20 l 696 418 l 317 418 l 317 60 q 420 20 317 20 l 422 -1 q 317 0 378 0 q 80 -5 183 0 l 80 16 q 85 16 80 16 q 178 47 171 16 q 183 296 180 64 q 186 681 186 528 q 184 793 186 785 q 138 819 180 808 l 99 829 l 99 849 q 262 844 163 844 q 423 849 365 844 l 423 822 q 317 791 319 815 l 317 449 l 696 449 l 694 792 z "},"ħ":{"ha":764,"x_min":83,"x_max":736,"o":"m 83 861 l 84 861 q 281 891 194 861 l 278 416 q 310 464 298 450 q 345 503 321 477 q 397 539 368 528 q 464 551 426 551 q 551 528 513 551 q 608 471 589 505 q 635 405 627 437 q 644 350 644 373 q 644 211 644 309 q 644 83 644 113 q 644 50 644 52 q 663 31 644 38 q 694 24 682 24 q 736 22 705 23 l 736 0 q 590 5 680 5 q 445 0 496 5 l 445 22 q 465 23 453 23 q 488 24 476 23 q 511 29 500 26 q 527 37 521 33 q 533 49 533 42 q 533 50 533 49 l 533 373 q 441 499 533 498 q 353 473 385 499 q 278 382 321 446 l 278 50 q 295 30 278 37 q 333 23 312 23 q 372 22 354 23 l 372 0 q 221 5 311 5 q 83 0 136 5 l 83 22 q 138 30 107 22 q 170 50 170 38 q 172 260 170 100 q 174 513 174 420 q 170 811 174 707 q 146 826 160 821 q 123 833 133 831 q 83 838 113 834 l 83 861 z "},"Ĩ":{"ha":510,"x_min":80,"x_max":437,"o":"m 119 910 l 103 911 q 130 994 103 949 q 195 1039 156 1039 q 243 1018 220 1039 q 292 976 267 997 q 345 955 317 955 q 399 977 387 955 q 412 1038 412 1000 l 434 1038 q 431 998 434 1019 q 418 951 427 978 q 388 907 408 925 q 336 890 368 890 q 288 905 311 890 q 252 936 266 920 q 222 966 239 952 q 190 981 206 981 q 142 957 164 981 q 119 910 119 933 m 332 791 q 332 715 332 789 q 330 528 331 640 q 330 324 330 416 q 332 61 330 140 q 435 22 334 22 l 437 0 q 330 1 393 1 q 80 -4 183 1 l 80 18 q 85 18 80 18 q 191 49 186 18 q 198 793 198 90 q 149 819 198 808 l 99 829 l 99 849 q 263 844 163 844 q 426 849 368 844 l 426 822 q 332 791 332 815 z "},"ĩ":{"ha":355,"x_min":8,"x_max":343,"o":"m 24 642 l 8 643 q 35 726 8 681 q 100 770 61 770 q 149 749 125 770 q 197 707 172 728 q 250 686 222 686 q 304 709 292 686 q 317 769 317 731 l 339 769 q 336 730 339 750 q 323 683 332 709 q 293 639 313 656 q 241 621 273 621 q 193 636 216 621 q 157 667 171 651 q 127 698 144 684 q 95 712 111 712 q 47 688 69 712 q 24 642 24 665 m 251 572 q 248 50 248 338 q 343 22 254 23 l 343 0 q 195 4 288 4 q 54 0 107 4 l 54 22 q 140 50 136 24 l 140 506 q 54 519 98 519 l 54 541 q 251 572 176 548 z "},"Ī":{"ha":510,"x_min":80,"x_max":437,"o":"m 332 791 q 332 715 332 789 q 330 528 331 640 q 330 324 330 416 q 332 61 330 140 q 435 22 334 22 l 437 0 q 330 1 393 1 q 80 -4 183 1 l 80 18 q 85 18 80 18 q 191 49 186 18 q 198 793 198 90 q 149 819 198 808 l 99 829 l 99 849 q 263 844 163 844 q 426 849 368 844 l 426 822 q 332 791 332 815 z "},"ī":{"ha":355,"x_min":54,"x_max":343,"o":"m 251 572 q 248 50 248 338 q 343 22 254 23 l 343 0 q 195 4 288 4 q 54 0 107 4 l 54 22 q 140 50 136 24 l 140 506 q 54 519 98 519 l 54 541 q 251 572 176 548 z "},"Ĭ":{"ha":510,"x_min":80,"x_max":437,"o":"m 332 791 q 332 715 332 789 q 330 528 331 640 q 330 324 330 416 q 332 61 330 140 q 435 22 334 22 l 437 0 q 330 1 393 1 q 80 -4 183 1 l 80 18 q 85 18 80 18 q 191 49 186 18 q 198 793 198 90 q 149 819 198 808 l 99 829 l 99 849 q 263 844 163 844 q 426 849 368 844 l 426 822 q 332 791 332 815 z "},"ĭ":{"ha":355,"x_min":54,"x_max":343,"o":"m 251 572 q 248 50 248 338 q 343 22 254 23 l 343 0 q 195 4 288 4 q 54 0 107 4 l 54 22 q 140 50 136 24 l 140 506 q 54 519 98 519 l 54 541 q 251 572 176 548 z "},"Į":{"ha":510,"x_min":80,"x_max":437,"o":"m 332 791 q 332 715 332 789 q 330 528 331 640 q 330 324 330 416 q 332 61 330 140 q 435 22 334 22 l 437 0 q 330 1 393 1 q 80 -4 183 1 l 80 18 q 85 18 80 18 q 191 49 186 18 q 198 793 198 90 q 149 819 198 808 l 99 829 l 99 849 q 263 844 163 844 q 426 849 368 844 l 426 822 q 332 791 332 815 z "},"į":{"ha":355,"x_min":49,"x_max":385,"o":"m 49 -182 q 89 -87 49 -130 q 167 -30 129 -45 q 245 0 236 -4 q 313 9 285 9 q 334 5 331 9 q 313 -3 334 5 q 272 -22 293 -11 q 235 -43 251 -33 q 156 -167 156 -95 q 178 -250 156 -225 q 233 -275 201 -275 q 300 -242 267 -275 q 334 -179 332 -209 q 349 -186 335 -180 q 366 -197 362 -193 q 311 -273 351 -239 q 210 -308 270 -308 q 93 -273 137 -308 q 49 -182 49 -237 m 293 572 q 290 50 290 338 q 385 22 296 23 l 385 0 q 237 4 330 4 q 96 0 149 4 l 96 22 q 182 50 178 24 l 182 506 q 96 519 140 519 l 96 541 q 293 572 218 548 m 231 869 q 288 847 262 869 q 313 795 313 825 q 290 734 313 758 q 231 711 266 711 q 180 732 205 711 q 156 787 156 754 q 180 845 156 821 q 231 869 203 869 z "},"İ":{"ha":510,"x_min":80,"x_max":437,"o":"m 332 791 q 332 715 332 789 q 330 528 331 640 q 330 324 330 416 q 332 61 330 140 q 435 22 334 22 l 437 0 q 330 1 393 1 q 80 -4 183 1 l 80 18 q 85 18 80 18 q 191 49 186 18 q 198 793 198 90 q 149 819 198 808 l 99 829 l 99 849 q 263 844 163 844 q 426 849 368 844 l 426 822 q 332 791 332 815 z "},"ı":{"ha":355,"x_min":54,"x_max":343,"o":"m 251 572 q 248 50 248 338 q 343 22 254 23 l 343 0 q 195 4 288 4 q 54 0 107 4 l 54 22 q 140 50 136 24 l 140 506 q 54 519 98 519 l 54 541 q 251 572 176 548 z "},"Ĳ":{"ha":804,"x_min":54,"x_max":768,"o":"m 675 791 q 670 359 670 709 q 671 244 670 316 q 671 141 671 172 q 658 -62 671 15 q 605 -194 644 -138 q 406 -290 536 -290 q 274 -257 317 -290 q 231 -178 231 -224 q 256 -115 231 -141 q 319 -88 281 -88 q 385 -112 361 -88 q 410 -171 410 -136 q 355 -259 410 -225 q 402 -269 373 -269 q 458 -260 431 -270 q 496 -233 486 -250 q 528 -160 519 -195 q 541 -37 536 -125 q 548 425 548 88 q 543 793 548 751 q 491 819 540 808 l 442 829 l 442 849 q 605 844 506 844 q 768 849 708 844 l 768 822 q 736 820 753 822 q 707 816 720 818 q 685 807 693 814 q 675 791 677 800 m 307 791 q 306 715 307 789 q 304 528 305 640 q 304 324 304 416 q 307 61 304 140 q 410 22 308 22 l 411 0 q 304 1 368 1 q 54 -4 157 1 l 54 18 q 60 18 54 18 q 165 49 160 18 q 172 793 172 90 q 123 819 172 808 l 73 829 l 73 849 q 237 844 137 844 q 400 849 342 844 l 400 822 q 307 791 307 815 z "},"ĳ":{"ha":658,"x_min":96,"x_max":624,"o":"m 231 869 q 288 847 262 869 q 313 795 313 825 q 290 734 313 758 q 231 711 266 711 q 180 732 205 711 q 156 787 156 754 q 180 845 156 821 q 231 869 203 869 m 293 572 q 290 50 290 338 q 385 22 296 23 l 385 0 q 237 4 330 4 q 96 0 149 4 l 96 22 q 182 50 178 24 l 182 506 q 96 519 140 519 l 96 541 q 293 572 218 548 m 595 572 q 593 -19 593 338 q 523 -208 593 -133 q 385 -283 453 -283 q 295 -256 340 -283 q 250 -187 250 -229 q 272 -109 250 -134 q 327 -84 294 -84 q 368 -103 351 -84 q 385 -146 385 -122 q 342 -210 385 -199 q 364 -234 346 -225 q 400 -243 382 -243 q 475 -205 454 -243 q 484 -19 484 -187 l 484 506 q 458 513 471 511 q 429 517 446 515 q 399 519 411 518 l 399 541 q 595 572 465 541 m 555 869 q 602 844 581 869 q 624 795 624 819 q 601 739 624 769 q 551 708 578 708 q 486 730 510 708 q 463 795 463 751 q 492 849 463 829 q 555 869 522 869 z "},"Ĵ":{"ha":522,"x_min":-102,"x_max":457,"o":"m 103 873 l 290 1078 l 457 878 l 439 863 l 286 1002 l 122 863 l 103 873 m 343 791 q 338 359 338 709 q 338 244 338 316 q 339 141 339 172 q 326 -62 339 15 q 273 -194 312 -138 q 73 -290 203 -290 q -58 -257 -15 -290 q -102 -178 -102 -224 q -77 -115 -102 -141 q -14 -88 -52 -88 q 53 -112 28 -88 q 77 -171 77 -136 q 23 -259 77 -225 q 70 -269 41 -269 q 126 -260 99 -270 q 164 -233 153 -250 q 195 -160 187 -195 q 209 -37 203 -125 q 216 425 216 88 q 210 793 216 751 q 159 819 208 808 l 110 829 l 110 849 q 273 844 174 844 q 435 849 376 844 l 435 822 q 404 820 420 822 q 374 816 388 818 q 353 807 361 814 q 343 791 345 800 z "},"ĵ":{"ha":388,"x_min":-84,"x_max":374,"o":"m 262 572 q 258 -19 259 338 q 188 -208 258 -133 q 50 -283 118 -283 q -39 -256 5 -283 q -84 -187 -84 -229 q -62 -109 -84 -134 q -8 -84 -41 -84 q 33 -103 16 -84 q 50 -146 50 -122 q 7 -210 50 -199 q 29 -234 11 -225 q 65 -243 47 -243 q 140 -205 119 -243 q 151 -19 149 -187 l 151 506 q 124 513 137 511 q 94 517 111 515 q 64 519 76 518 l 64 541 q 262 572 132 541 m 20 621 l 209 826 l 374 625 l 357 610 l 205 750 l 41 610 l 20 621 z "},"Ķ":{"ha":909,"x_min":80,"x_max":930,"o":"m 639 739 q 646 755 640 743 q 651 772 651 768 q 627 810 650 798 q 582 825 605 823 l 579 845 q 678 842 625 842 q 846 849 772 842 l 846 829 l 826 827 q 779 815 807 825 q 734 789 750 806 q 607 654 669 728 q 475 488 545 581 q 583 342 530 416 q 677 215 636 269 q 783 90 718 161 q 846 42 814 54 q 930 24 878 30 l 928 -1 q 731 7 732 7 q 650 3 688 7 q 389 403 479 278 l 320 313 l 317 60 q 420 20 317 20 l 422 -1 q 317 0 378 0 q 80 -5 183 0 l 80 16 q 85 16 80 16 q 178 47 168 16 q 187 587 187 88 q 184 793 187 779 q 133 819 180 808 l 84 829 l 84 849 q 252 844 148 844 q 423 849 363 844 l 423 822 q 317 791 323 815 l 317 351 l 475 534 q 639 739 631 719 z "},"ķ":{"ha":685,"x_min":42,"x_max":682,"o":"m 289 -218 q 234 -191 258 -218 q 210 -130 210 -163 q 239 -60 210 -85 q 301 -35 269 -35 q 366 -65 335 -35 q 397 -144 397 -95 q 350 -281 397 -216 q 256 -353 302 -346 l 248 -331 q 314 -274 282 -316 q 347 -199 346 -232 q 289 -218 315 -218 m 270 267 l 250 244 q 247 138 247 201 q 248 71 247 99 q 262 43 250 54 q 286 28 273 33 q 345 22 298 24 l 345 0 q 203 4 293 4 q 42 0 107 4 l 42 22 q 141 50 141 27 q 146 461 145 176 q 141 825 146 693 q 42 853 125 849 l 42 875 q 49 875 45 875 q 252 906 122 875 l 248 279 l 385 435 q 404 479 404 458 q 373 507 404 502 q 374 522 373 511 q 374 536 374 532 l 602 536 l 602 510 q 445 456 490 499 l 336 323 q 429 222 381 277 q 529 113 476 167 q 615 37 583 58 q 675 16 647 16 q 682 16 678 16 l 682 -3 l 495 -5 q 436 78 479 26 q 351 176 393 130 q 270 267 309 222 z "},"ĸ":{"ha":753,"x_min":66,"x_max":707,"o":"m 294 267 l 275 244 q 275 54 275 244 q 309 33 275 42 q 369 22 343 23 l 369 0 q 228 4 317 4 q 66 0 132 4 l 66 22 q 125 34 90 23 q 164 54 161 45 q 172 254 172 81 q 171 281 172 267 q 167 491 171 359 q 66 519 151 515 l 66 541 q 278 556 220 541 l 274 279 l 410 435 q 429 479 429 458 q 399 507 429 502 l 399 518 q 400 536 399 529 l 628 536 l 628 510 q 469 456 515 499 l 361 323 q 462 214 412 270 q 555 113 511 159 q 707 16 646 16 l 707 -3 l 519 -5 q 460 78 503 26 q 376 176 418 130 q 294 267 334 222 z "},"Ĺ":{"ha":796,"x_min":66,"x_max":713,"o":"m 332 92 q 381 31 332 31 q 556 30 381 31 q 640 83 604 30 q 684 206 675 136 l 713 206 l 692 -4 l 66 -4 l 66 18 l 98 19 q 161 31 130 22 q 194 56 193 41 q 201 524 201 129 q 198 793 201 747 q 141 819 197 811 l 84 829 l 84 853 l 433 854 l 433 833 q 335 793 338 827 q 331 403 331 469 q 332 273 331 369 q 332 92 332 176 z "},"ĺ":{"ha":350,"x_min":56,"x_max":355,"o":"m 264 891 q 258 598 259 761 q 260 355 258 533 q 262 50 262 176 q 298 30 264 37 q 355 22 332 23 l 355 0 q 213 7 296 7 q 56 0 117 7 l 56 22 q 148 50 145 26 q 152 407 152 179 q 148 811 152 650 q 56 838 114 838 l 56 861 q 264 891 127 865 z "},"Ļ":{"ha":796,"x_min":66,"x_max":713,"o":"m 332 92 q 381 31 332 31 q 556 30 381 31 q 640 83 604 30 q 684 206 675 136 l 713 206 l 692 -4 l 66 -4 l 66 18 l 98 19 q 161 31 130 22 q 194 56 193 41 q 201 524 201 129 q 198 793 201 747 q 141 819 197 811 l 84 829 l 84 853 l 433 854 l 433 833 q 335 793 338 827 q 331 403 331 469 q 332 273 331 369 q 332 92 332 176 z "},"ļ":{"ha":350,"x_min":56,"x_max":355,"o":"m 149 -212 q 94 -184 118 -212 q 71 -123 71 -156 q 100 -54 71 -79 q 161 -28 129 -28 q 227 -58 195 -28 q 258 -137 258 -88 q 210 -274 258 -209 q 117 -346 163 -339 l 109 -324 q 174 -267 142 -309 q 208 -193 206 -225 q 149 -212 175 -212 m 264 891 q 258 598 259 761 q 260 355 258 533 q 262 50 262 176 q 298 30 264 37 q 355 22 332 23 l 355 0 q 213 7 296 7 q 56 0 117 7 l 56 22 q 148 50 145 26 q 152 407 152 179 q 148 811 152 650 q 56 838 114 838 l 56 861 q 264 891 127 865 z "},"Ľ":{"ha":796,"x_min":66,"x_max":713,"o":"m 332 92 q 381 31 332 31 q 556 30 381 31 q 640 83 604 30 q 684 206 675 136 l 713 206 l 692 -4 l 66 -4 l 66 18 l 98 19 q 161 31 130 22 q 194 56 193 41 q 201 524 201 129 q 198 793 201 747 q 141 819 197 811 l 84 829 l 84 853 l 433 854 l 433 833 q 335 793 338 827 q 331 403 331 469 q 332 273 331 369 q 332 92 332 176 z "},"ľ":{"ha":350,"x_min":-11,"x_max":355,"o":"m 340 1130 l 160 932 l -11 1133 l 7 1147 l 165 1004 l 323 1147 l 340 1130 m 264 891 q 258 598 259 761 q 260 355 258 533 q 262 50 262 176 q 298 30 264 37 q 355 22 332 23 l 355 0 q 213 7 296 7 q 56 0 117 7 l 56 22 q 148 50 145 26 q 152 407 152 179 q 148 811 152 650 q 56 838 114 838 l 56 861 q 264 891 127 865 z "},"Ŀ":{"ha":796,"x_min":66,"x_max":713,"o":"m 332 92 q 381 31 332 31 q 556 30 381 31 q 640 83 604 30 q 684 206 675 136 l 713 206 l 692 -4 l 66 -4 l 66 18 l 98 19 q 161 31 130 22 q 194 56 193 41 q 201 524 201 129 q 198 793 201 747 q 141 819 197 811 l 84 829 l 84 853 l 433 854 l 433 833 q 335 793 338 827 q 331 403 331 469 q 332 273 331 369 q 332 92 332 176 z "},"ŀ":{"ha":350,"x_min":56,"x_max":355,"o":"m 264 891 q 258 598 259 761 q 260 355 258 533 q 262 50 262 176 q 298 30 264 37 q 355 22 332 23 l 355 0 q 213 7 296 7 q 56 0 117 7 l 56 22 q 148 50 145 26 q 152 407 152 179 q 148 811 152 650 q 56 838 114 838 l 56 861 q 264 891 127 865 z "},"Ł":{"ha":796,"x_min":66,"x_max":713,"o":"m 332 92 q 381 31 332 31 q 556 30 381 31 q 640 83 604 30 q 684 206 675 136 l 713 206 l 692 -4 l 66 -4 l 66 18 l 98 19 q 161 31 130 22 q 194 56 193 41 q 201 524 201 129 q 198 793 201 747 q 141 819 197 811 l 84 829 l 84 853 l 433 854 l 433 833 q 335 793 338 827 q 331 403 331 469 q 332 273 331 369 q 332 92 332 176 z "},"ł":{"ha":350,"x_min":56,"x_max":355,"o":"m 264 891 q 258 598 259 761 q 260 355 258 533 q 262 50 262 176 q 298 30 264 37 q 355 22 332 23 l 355 0 q 213 7 296 7 q 56 0 117 7 l 56 22 q 148 50 145 26 q 152 407 152 179 q 148 811 152 650 q 56 838 114 838 l 56 861 q 264 891 127 865 z "},"Ń":{"ha":932,"x_min":27,"x_max":905,"o":"m 366 869 l 595 1066 l 637 1001 l 381 845 l 366 869 m 905 819 q 862 814 886 818 q 811 802 838 811 q 784 777 784 792 q 780 528 781 732 l 784 -15 l 736 -15 l 477 339 q 205 708 220 693 q 203 519 203 593 q 207 343 203 427 q 210 134 210 259 q 210 80 210 110 q 258 24 210 24 q 336 22 335 24 l 336 -3 q 186 1 270 1 q 27 -4 92 1 l 27 18 q 35 18 27 18 q 153 49 146 18 q 160 522 160 453 q 157 764 160 627 q 94 804 155 779 l 33 829 l 33 853 l 283 852 q 547 502 363 741 l 732 263 l 734 777 q 700 808 732 796 q 623 819 667 819 q 602 819 613 819 l 600 850 q 741 844 656 844 q 905 849 818 844 l 905 819 z "},"ń":{"ha":780,"x_min":90,"x_max":753,"o":"m 260 643 l 490 840 l 532 774 l 275 618 l 260 643 m 90 528 q 115 526 102 526 q 275 553 191 526 l 286 419 q 469 551 372 549 q 551 536 515 551 q 608 498 587 521 q 641 446 628 476 q 659 390 654 416 q 663 336 663 363 l 663 58 q 696 33 663 45 q 753 22 728 22 l 753 0 q 583 5 616 5 q 461 0 514 5 l 461 22 q 519 34 488 23 q 551 57 551 45 q 552 332 552 57 q 526 453 552 407 q 446 499 499 499 q 353 457 403 499 q 283 354 302 415 l 283 52 q 378 22 283 30 l 378 0 q 231 4 323 4 q 90 0 142 4 l 90 22 q 146 33 117 22 q 175 57 175 43 q 178 275 178 140 q 175 487 178 404 q 90 506 149 500 l 90 528 z "},"Ņ":{"ha":932,"x_min":27,"x_max":905,"o":"m 905 819 q 862 814 886 818 q 811 802 838 811 q 784 777 784 792 q 780 528 781 732 l 784 -15 l 736 -15 l 477 339 q 205 708 220 693 q 203 519 203 593 q 207 343 203 427 q 210 134 210 259 q 210 80 210 110 q 258 24 210 24 q 336 22 335 24 l 336 -3 q 186 1 270 1 q 27 -4 92 1 l 27 18 q 35 18 27 18 q 153 49 146 18 q 160 522 160 453 q 157 764 160 627 q 94 804 155 779 l 33 829 l 33 853 l 283 852 q 547 502 363 741 l 732 263 l 734 777 q 700 808 732 796 q 623 819 667 819 q 602 819 613 819 l 600 850 q 741 844 656 844 q 905 849 818 844 l 905 819 z "},"ņ":{"ha":780,"x_min":90,"x_max":753,"o":"m 429 -218 q 374 -191 397 -218 q 350 -130 350 -163 q 379 -60 350 -85 q 441 -35 408 -35 q 506 -65 475 -35 q 537 -144 537 -95 q 490 -281 537 -216 q 396 -353 442 -346 l 388 -331 q 454 -274 422 -316 q 487 -199 486 -232 q 429 -218 454 -218 m 90 528 q 115 526 102 526 q 275 553 191 526 l 286 419 q 469 551 372 549 q 551 536 515 551 q 608 498 587 521 q 641 446 628 476 q 659 390 654 416 q 663 336 663 363 l 663 58 q 696 33 663 45 q 753 22 728 22 l 753 0 q 583 5 616 5 q 461 0 514 5 l 461 22 q 519 34 488 23 q 551 57 551 45 q 552 332 552 57 q 526 453 552 407 q 446 499 499 499 q 353 457 403 499 q 283 354 302 415 l 283 52 q 378 22 283 30 l 378 0 q 231 4 323 4 q 90 0 142 4 l 90 22 q 146 33 117 22 q 175 57 175 43 q 178 275 178 140 q 175 487 178 404 q 90 506 149 500 l 90 528 z "},"Ň":{"ha":932,"x_min":27,"x_max":905,"o":"m 647 1055 l 467 857 l 296 1058 l 313 1073 l 472 929 l 629 1073 l 647 1055 m 905 819 q 862 814 886 818 q 811 802 838 811 q 784 777 784 792 q 780 528 781 732 l 784 -15 l 736 -15 l 477 339 q 205 708 220 693 q 203 519 203 593 q 207 343 203 427 q 210 134 210 259 q 210 80 210 110 q 258 24 210 24 q 336 22 335 24 l 336 -3 q 186 1 270 1 q 27 -4 92 1 l 27 18 q 35 18 27 18 q 153 49 146 18 q 160 522 160 453 q 157 764 160 627 q 94 804 155 779 l 33 829 l 33 853 l 283 852 q 547 502 363 741 l 732 263 l 734 777 q 700 808 732 796 q 623 819 667 819 q 602 819 613 819 l 600 850 q 741 844 656 844 q 905 849 818 844 l 905 819 z "},"ň":{"ha":780,"x_min":90,"x_max":753,"o":"m 594 808 l 414 610 l 243 811 l 260 826 l 419 682 l 576 826 l 594 808 m 90 528 q 115 526 102 526 q 275 553 191 526 l 286 419 q 469 551 372 549 q 551 536 515 551 q 608 498 587 521 q 641 446 628 476 q 659 390 654 416 q 663 336 663 363 l 663 58 q 696 33 663 45 q 753 22 728 22 l 753 0 q 583 5 616 5 q 461 0 514 5 l 461 22 q 519 34 488 23 q 551 57 551 45 q 552 332 552 57 q 526 453 552 407 q 446 499 499 499 q 353 457 403 499 q 283 354 302 415 l 283 52 q 378 22 283 30 l 378 0 q 231 4 323 4 q 90 0 142 4 l 90 22 q 146 33 117 22 q 175 57 175 43 q 178 275 178 140 q 175 487 178 404 q 90 506 149 500 l 90 528 z "},"ŉ":{"ha":780,"x_min":90,"x_max":753,"o":"m 90 528 q 115 526 102 526 q 275 553 191 526 l 286 419 q 469 551 372 549 q 551 536 515 551 q 608 498 587 521 q 641 446 628 476 q 659 390 654 416 q 663 336 663 363 l 663 58 q 696 33 663 45 q 753 22 728 22 l 753 0 q 583 5 616 5 q 461 0 514 5 l 461 22 q 519 34 488 23 q 551 57 551 45 q 552 332 552 57 q 526 453 552 407 q 446 499 499 499 q 353 457 403 499 q 283 354 302 415 l 283 52 q 378 22 283 30 l 378 0 q 231 4 323 4 q 90 0 142 4 l 90 22 q 146 33 117 22 q 175 57 175 43 q 178 275 178 140 q 175 487 178 404 q 90 506 149 500 l 90 528 z "},"Ō":{"ha":1074,"x_min":66,"x_max":1008,"o":"m 564 11 q 772 127 692 11 q 853 423 853 243 q 774 749 853 637 q 553 860 696 860 q 432 841 486 860 q 330 777 378 822 q 254 642 281 732 q 228 422 228 552 q 237 322 228 373 q 270 214 245 271 q 330 113 294 157 q 427 40 366 69 q 564 11 488 11 m 564 883 q 666 872 613 883 q 783 829 719 861 q 895 749 846 798 q 975 615 943 700 q 1008 423 1008 530 q 966 233 1008 319 q 859 94 925 148 q 715 12 792 41 q 562 -16 637 -16 q 212 101 357 -16 q 66 412 66 218 q 98 609 66 524 q 180 745 130 694 q 299 828 231 796 q 432 871 368 860 q 564 883 496 883 z "},"ō":{"ha":646,"x_min":69,"x_max":632,"o":"m 358 11 q 472 79 431 11 q 513 274 513 146 q 469 459 513 380 q 355 538 426 538 q 274 513 308 538 q 224 443 240 487 q 201 355 209 399 q 194 264 194 312 q 237 81 194 152 q 358 11 281 11 m 343 566 q 548 481 464 566 q 632 289 632 397 q 562 67 632 157 q 354 -23 491 -23 q 69 288 69 -23 q 153 487 69 408 q 343 566 237 566 z "},"Ŏ":{"ha":1074,"x_min":66,"x_max":1008,"o":"m 564 11 q 772 127 692 11 q 853 423 853 243 q 774 749 853 637 q 553 860 696 860 q 432 841 486 860 q 330 777 378 822 q 254 642 281 732 q 228 422 228 552 q 237 322 228 373 q 270 214 245 271 q 330 113 294 157 q 427 40 366 69 q 564 11 488 11 m 564 883 q 666 872 613 883 q 783 829 719 861 q 895 749 846 798 q 975 615 943 700 q 1008 423 1008 530 q 966 233 1008 319 q 859 94 925 148 q 715 12 792 41 q 562 -16 637 -16 q 212 101 357 -16 q 66 412 66 218 q 98 609 66 524 q 180 745 130 694 q 299 828 231 796 q 432 871 368 860 q 564 883 496 883 z "},"ŏ":{"ha":646,"x_min":69,"x_max":632,"o":"m 358 11 q 472 79 431 11 q 513 274 513 146 q 469 459 513 380 q 355 538 426 538 q 274 513 308 538 q 224 443 240 487 q 201 355 209 399 q 194 264 194 312 q 237 81 194 152 q 358 11 281 11 m 343 566 q 548 481 464 566 q 632 289 632 397 q 562 67 632 157 q 354 -23 491 -23 q 69 288 69 -23 q 153 487 69 408 q 343 566 237 566 z "},"Ő":{"ha":1074,"x_min":66,"x_max":1008,"o":"m 444 906 l 593 1169 l 655 1123 l 467 888 l 444 906 m 605 906 l 754 1169 l 817 1123 l 628 888 l 605 906 m 564 11 q 772 127 692 11 q 853 423 853 243 q 774 749 853 637 q 553 860 696 860 q 432 841 486 860 q 330 777 378 822 q 254 642 281 732 q 228 422 228 552 q 237 322 228 373 q 270 214 245 271 q 330 113 294 157 q 427 40 366 69 q 564 11 488 11 m 564 883 q 666 872 613 883 q 783 829 719 861 q 895 749 846 798 q 975 615 943 700 q 1008 423 1008 530 q 966 233 1008 319 q 859 94 925 148 q 715 12 792 41 q 562 -16 637 -16 q 212 101 357 -16 q 66 412 66 218 q 98 609 66 524 q 180 745 130 694 q 299 828 231 796 q 432 871 368 860 q 564 883 496 883 z "},"ő":{"ha":646,"x_min":69,"x_max":632,"o":"m 195 602 l 345 865 l 407 819 l 218 585 l 195 602 m 357 602 l 506 865 l 568 819 l 380 585 l 357 602 m 358 11 q 472 79 431 11 q 513 274 513 146 q 469 459 513 380 q 355 538 426 538 q 274 513 308 538 q 224 443 240 487 q 201 355 209 399 q 194 264 194 312 q 237 81 194 152 q 358 11 281 11 m 343 566 q 548 481 464 566 q 632 289 632 397 q 562 67 632 157 q 354 -23 491 -23 q 69 288 69 -23 q 153 487 69 408 q 343 566 237 566 z "},"Œ":{"ha":1074,"x_min":66,"x_max":1008,"o":"m 564 11 q 772 127 692 11 q 853 423 853 243 q 774 749 853 637 q 553 860 696 860 q 432 841 486 860 q 330 777 378 822 q 254 642 281 732 q 228 422 228 552 q 237 322 228 373 q 270 214 245 271 q 330 113 294 157 q 427 40 366 69 q 564 11 488 11 m 564 883 q 666 872 613 883 q 783 829 719 861 q 895 749 846 798 q 975 615 943 700 q 1008 423 1008 530 q 966 233 1008 319 q 859 94 925 148 q 715 12 792 41 q 562 -16 637 -16 q 212 101 357 -16 q 66 412 66 218 q 98 609 66 524 q 180 745 130 694 q 299 828 231 796 q 432 871 368 860 q 564 883 496 883 z "},"œ":{"ha":600,"x_min":56,"x_max":972,"o":"m 541 102 q 489 41 511 64 q 427 -3 467 18 q 340 -23 387 -23 q 56 288 56 -23 q 140 487 56 408 q 330 566 224 566 q 544 427 434 566 q 749 552 644 551 q 885 513 822 552 q 967 385 948 473 q 972 331 972 358 q 971 296 972 316 l 604 294 l 604 264 q 640 88 604 167 q 745 9 677 9 q 869 56 823 9 q 933 152 916 102 l 971 125 q 892 25 951 73 q 739 -23 834 -23 q 541 102 637 -23 m 850 316 q 852 359 852 339 q 845 427 852 401 q 801 498 834 471 q 719 526 768 526 q 640 469 669 526 q 605 315 612 412 l 850 316 m 499 274 q 456 459 499 380 q 342 538 412 538 q 260 513 294 538 q 210 443 227 487 q 187 355 194 399 q 180 264 180 312 q 224 81 180 152 q 345 11 267 11 q 458 79 418 11 q 499 274 499 146 z "},"Ŕ":{"ha":863,"x_min":66,"x_max":854,"o":"m 854 -3 l 609 1 q 609 12 609 7 q 572 199 609 62 q 407 429 510 427 l 316 430 l 317 94 q 320 60 317 73 q 334 37 323 47 q 365 26 345 26 q 425 23 425 24 l 423 -3 q 221 3 347 3 q 66 -1 121 3 l 66 22 q 178 53 172 22 q 183 100 183 75 q 189 446 189 237 q 183 789 189 757 q 133 815 180 804 l 84 826 l 84 850 q 274 848 164 848 q 387 848 319 848 q 473 849 454 849 q 576 825 525 849 q 665 751 628 802 q 703 637 703 701 q 636 512 703 568 q 479 453 570 456 q 556 429 521 449 q 613 388 591 410 q 657 326 635 366 q 688 260 680 285 q 715 189 697 236 q 769 61 757 77 q 854 16 799 19 l 854 -3 m 467 814 q 392 821 437 821 q 317 817 351 821 l 317 463 q 411 461 410 461 q 527 514 487 461 q 567 640 567 567 q 540 753 567 703 q 467 814 513 803 z "},"ŕ":{"ha":586,"x_min":83,"x_max":567,"o":"m 194 644 l 423 841 l 465 776 l 209 620 l 194 644 m 460 564 q 539 534 511 564 q 567 446 567 503 q 544 384 567 412 q 491 355 521 355 q 446 374 469 355 q 422 419 423 393 q 461 476 422 449 q 447 500 457 488 q 415 513 437 513 q 342 471 377 513 q 293 389 308 430 l 278 347 l 281 57 q 374 22 282 30 l 374 0 q 227 4 317 4 q 85 0 141 4 l 85 22 q 139 35 106 23 q 172 57 172 47 l 172 506 q 85 519 155 517 l 83 541 q 267 568 160 541 l 282 406 q 349 514 304 464 q 460 564 393 564 z "},"Ŗ":{"ha":863,"x_min":66,"x_max":854,"o":"m 854 -3 l 609 1 q 609 12 609 7 q 572 199 609 62 q 407 429 510 427 l 316 430 l 317 94 q 320 60 317 73 q 334 37 323 47 q 365 26 345 26 q 425 23 425 24 l 423 -3 q 221 3 347 3 q 66 -1 121 3 l 66 22 q 178 53 172 22 q 183 100 183 75 q 189 446 189 237 q 183 789 189 757 q 133 815 180 804 l 84 826 l 84 850 q 274 848 164 848 q 387 848 319 848 q 473 849 454 849 q 576 825 525 849 q 665 751 628 802 q 703 637 703 701 q 636 512 703 568 q 479 453 570 456 q 556 429 521 449 q 613 388 591 410 q 657 326 635 366 q 688 260 680 285 q 715 189 697 236 q 769 61 757 77 q 854 16 799 19 l 854 -3 m 467 814 q 392 821 437 821 q 317 817 351 821 l 317 463 q 411 461 410 461 q 527 514 487 461 q 567 640 567 567 q 540 753 567 703 q 467 814 513 803 z "},"ŗ":{"ha":586,"x_min":83,"x_max":567,"o":"m 220 -216 q 165 -188 189 -216 q 141 -127 141 -160 q 170 -58 141 -83 q 232 -33 199 -33 q 297 -62 266 -33 q 328 -141 328 -92 q 281 -278 328 -213 q 187 -350 233 -343 l 179 -328 q 245 -271 213 -313 q 278 -197 277 -229 q 220 -216 245 -216 m 460 564 q 539 534 511 564 q 567 446 567 503 q 544 384 567 412 q 491 355 521 355 q 446 374 469 355 q 422 419 423 393 q 461 476 422 449 q 447 500 457 488 q 415 513 437 513 q 342 471 377 513 q 293 389 308 430 l 278 347 l 281 57 q 374 22 282 30 l 374 0 q 227 4 317 4 q 85 0 141 4 l 85 22 q 139 35 106 23 q 172 57 172 47 l 172 506 q 85 519 155 517 l 83 541 q 267 568 160 541 l 282 406 q 349 514 304 464 q 460 564 393 564 z "},"Ř":{"ha":863,"x_min":66,"x_max":854,"o":"m 578 1063 l 397 865 l 227 1066 l 244 1081 l 403 937 l 560 1081 l 578 1063 m 854 -3 l 609 1 q 609 12 609 7 q 572 199 609 62 q 407 429 510 427 l 316 430 l 317 94 q 320 60 317 73 q 334 37 323 47 q 365 26 345 26 q 425 23 425 24 l 423 -3 q 221 3 347 3 q 66 -1 121 3 l 66 22 q 178 53 172 22 q 183 100 183 75 q 189 446 189 237 q 183 789 189 757 q 133 815 180 804 l 84 826 l 84 850 q 274 848 164 848 q 387 848 319 848 q 473 849 454 849 q 576 825 525 849 q 665 751 628 802 q 703 637 703 701 q 636 512 703 568 q 479 453 570 456 q 556 429 521 449 q 613 388 591 410 q 657 326 635 366 q 688 260 680 285 q 715 189 697 236 q 769 61 757 77 q 854 16 799 19 l 854 -3 m 467 814 q 392 821 437 821 q 317 817 351 821 l 317 463 q 411 461 410 461 q 527 514 487 461 q 567 640 567 567 q 540 753 567 703 q 467 814 513 803 z "},"ř":{"ha":586,"x_min":83,"x_max":567,"o":"m 492 808 l 312 610 l 141 811 l 159 826 l 317 682 l 475 826 l 492 808 m 460 564 q 539 534 511 564 q 567 446 567 503 q 544 384 567 412 q 491 355 521 355 q 446 374 469 355 q 422 419 423 393 q 461 476 422 449 q 447 500 457 488 q 415 513 437 513 q 342 471 377 513 q 293 389 308 430 l 278 347 l 281 57 q 374 22 282 30 l 374 0 q 227 4 317 4 q 85 0 141 4 l 85 22 q 139 35 106 23 q 172 57 172 47 l 172 506 q 85 519 155 517 l 83 541 q 267 568 160 541 l 282 406 q 349 514 304 464 q 460 564 393 564 z "},"Ś":{"ha":796,"x_min":113,"x_max":724,"o":"m 258 928 l 487 1124 l 529 1059 l 273 903 l 258 928 m 408 886 q 586 808 513 886 q 640 865 620 812 l 659 865 l 655 602 q 629 602 655 602 q 618 692 625 650 q 589 766 612 735 q 406 860 525 860 q 297 810 342 860 q 252 708 252 761 q 307 601 252 651 q 450 518 361 551 q 649 400 574 472 q 724 239 724 328 q 648 52 724 123 q 396 -20 572 -20 q 323 -12 358 -20 q 265 8 288 -4 q 222 33 243 20 q 191 54 201 46 q 141 -1 164 42 l 113 -1 l 115 245 l 142 245 q 222 73 165 134 q 391 12 278 12 q 581 195 581 12 q 380 385 581 315 q 209 493 271 423 q 146 642 146 563 q 408 886 145 886 z "},"ś":{"ha":541,"x_min":83,"x_max":495,"o":"m 161 644 l 391 841 l 433 776 l 176 620 l 161 644 m 270 -18 q 205 -4 243 -18 q 141 22 167 9 l 118 37 l 111 -3 l 85 -3 l 83 187 l 106 184 q 155 63 113 118 q 270 8 197 8 q 397 111 397 8 q 236 244 397 186 q 130 302 167 269 q 92 395 92 336 q 148 523 92 476 q 294 570 203 570 q 366 556 334 570 q 410 530 397 543 l 422 517 l 426 557 l 452 557 l 449 387 l 425 387 q 420 416 422 406 q 414 450 419 426 q 399 487 408 473 q 374 516 389 500 q 335 539 359 532 q 281 547 311 547 q 212 520 239 547 q 186 453 186 494 q 196 412 186 430 q 224 380 206 393 q 260 360 243 368 q 305 343 278 353 q 346 328 332 334 q 495 165 495 262 q 441 25 495 68 q 270 -18 387 -18 z "},"Ŝ":{"ha":796,"x_min":113,"x_max":724,"o":"m 408 886 q 586 808 513 886 q 640 865 620 812 l 659 865 l 655 602 q 629 602 655 602 q 618 692 625 650 q 589 766 612 735 q 406 860 525 860 q 297 810 342 860 q 252 708 252 761 q 307 601 252 651 q 450 518 361 551 q 649 400 574 472 q 724 239 724 328 q 648 52 724 123 q 396 -20 572 -20 q 323 -12 358 -20 q 265 8 288 -4 q 222 33 243 20 q 191 54 201 46 q 141 -1 164 42 l 113 -1 l 115 245 l 142 245 q 222 73 165 134 q 391 12 278 12 q 581 195 581 12 q 380 385 581 315 q 209 493 271 423 q 146 642 146 563 q 408 886 145 886 z "},"ŝ":{"ha":541,"x_min":83,"x_max":495,"o":"m 270 -18 q 205 -4 243 -18 q 141 22 167 9 l 118 37 l 111 -3 l 85 -3 l 83 187 l 106 184 q 155 63 113 118 q 270 8 197 8 q 397 111 397 8 q 236 244 397 186 q 130 302 167 269 q 92 395 92 336 q 148 523 92 476 q 294 570 203 570 q 366 556 334 570 q 410 530 397 543 l 422 517 l 426 557 l 452 557 l 449 387 l 425 387 q 420 416 422 406 q 414 450 419 426 q 399 487 408 473 q 374 516 389 500 q 335 539 359 532 q 281 547 311 547 q 212 520 239 547 q 186 453 186 494 q 196 412 186 430 q 224 380 206 393 q 260 360 243 368 q 305 343 278 353 q 346 328 332 334 q 495 165 495 262 q 441 25 495 68 q 270 -18 387 -18 z "},"Ş":{"ha":796,"x_min":113,"x_max":724,"o":"m 395 -1 l 425 -3 l 399 -72 q 496 -90 472 -72 q 521 -142 521 -107 q 467 -224 521 -187 q 332 -262 412 -262 l 335 -232 q 429 -216 399 -232 q 460 -160 460 -201 q 345 -118 460 -118 l 395 -1 m 408 886 q 586 808 513 886 q 640 865 620 812 l 659 865 l 655 602 l 629 602 q 618 692 625 650 q 589 766 612 735 q 406 860 525 860 q 297 810 342 860 q 252 708 252 761 q 307 601 252 651 q 450 518 361 551 q 649 400 574 472 q 724 239 724 328 q 648 52 724 123 q 396 -20 572 -20 q 323 -12 358 -20 q 265 8 288 -4 q 222 33 243 20 q 191 54 201 46 q 141 -1 164 42 l 113 -1 l 115 245 l 142 245 q 222 73 165 134 q 391 12 278 12 q 581 195 581 12 q 380 385 581 315 q 209 493 271 423 q 146 642 146 563 q 408 886 145 886 z "},"ş":{"ha":541,"x_min":83,"x_max":495,"o":"m 262 -1 l 292 -3 l 266 -72 q 363 -90 339 -72 q 388 -142 388 -107 q 334 -224 388 -187 q 198 -262 279 -262 l 201 -232 q 296 -216 264 -232 q 327 -160 327 -201 q 212 -118 327 -118 l 262 -1 m 270 -18 q 205 -4 243 -18 q 141 22 167 9 l 118 37 l 111 -3 l 85 -3 l 83 187 l 106 184 q 155 63 113 118 q 270 8 197 8 q 397 111 397 8 q 236 244 397 186 q 130 302 167 269 q 92 395 92 336 q 148 523 92 476 q 294 570 203 570 q 366 556 334 570 q 410 530 397 543 l 422 517 l 426 557 l 452 557 l 449 387 l 425 387 q 420 416 422 406 q 414 450 419 426 q 399 487 408 473 q 374 516 389 500 q 335 539 359 532 q 281 547 311 547 q 212 520 239 547 q 186 453 186 494 q 196 412 186 430 q 224 380 206 393 q 260 360 243 368 q 305 343 278 353 q 346 328 332 334 q 495 165 495 262 q 441 25 495 68 q 270 -18 387 -18 z "},"Š":{"ha":796,"x_min":113,"x_max":724,"o":"m 601 1104 l 420 906 l 250 1107 l 267 1122 l 426 978 l 583 1122 l 601 1104 m 408 886 q 586 808 513 886 q 640 865 620 812 l 659 865 l 655 602 q 629 602 655 602 q 618 692 625 650 q 589 766 612 735 q 406 860 525 860 q 297 810 342 860 q 252 708 252 761 q 307 601 252 651 q 450 518 361 551 q 649 400 574 472 q 724 239 724 328 q 648 52 724 123 q 396 -20 572 -20 q 323 -12 358 -20 q 265 8 288 -4 q 222 33 243 20 q 191 54 201 46 q 141 -1 164 42 l 113 -1 l 115 245 l 142 245 q 222 73 165 134 q 391 12 278 12 q 581 195 581 12 q 380 385 581 315 q 209 493 271 423 q 146 642 146 563 q 408 886 145 886 z "},"š":{"ha":541,"x_min":83,"x_max":495,"o":"m 456 808 l 275 610 l 104 811 l 122 826 l 281 682 l 438 826 l 456 808 m 270 -18 q 205 -4 243 -18 q 141 22 167 9 l 118 37 l 111 -3 l 85 -3 l 83 187 l 106 184 q 155 63 113 118 q 270 8 197 8 q 397 111 397 8 q 236 244 397 186 q 130 302 167 269 q 92 395 92 336 q 148 523 92 476 q 294 570 203 570 q 366 556 334 570 q 410 530 397 543 l 422 517 l 426 557 l 452 557 l 449 387 l 425 387 q 420 416 422 406 q 414 450 419 426 q 399 487 408 473 q 374 516 389 500 q 335 539 359 532 q 281 547 311 547 q 212 520 239 547 q 186 453 186 494 q 196 412 186 430 q 224 380 206 393 q 260 360 243 368 q 305 343 278 353 q 346 328 332 334 q 495 165 495 262 q 441 25 495 68 q 270 -18 387 -18 z "},"Ţ":{"ha":814,"x_min":47,"x_max":784,"o":"m 315 50 q 345 127 345 88 l 346 821 q 203 822 205 822 q 145 798 171 822 q 106 737 119 773 q 83 667 92 701 q 73 601 75 632 l 47 601 l 53 853 q 439 849 205 849 q 780 853 661 849 l 784 601 l 757 601 q 644 819 745 818 l 486 821 l 487 127 q 513 50 487 80 q 624 24 533 26 l 624 -1 l 208 -1 l 208 24 q 216 24 210 24 q 224 24 221 24 q 315 50 296 26 z "},"ţ":{"ha":525,"x_min":71,"x_max":496,"o":"m 286 -216 q 231 -188 255 -216 q 208 -127 208 -160 q 237 -58 208 -83 q 298 -33 266 -33 q 363 -62 332 -33 q 395 -141 395 -92 q 347 -278 395 -213 q 254 -350 300 -343 l 245 -328 q 311 -271 279 -313 q 345 -197 343 -229 q 286 -216 312 -216 m 439 524 l 296 524 q 296 155 296 524 q 314 61 296 96 q 363 26 332 26 q 422 54 399 26 q 467 140 446 83 l 496 125 q 475 75 484 92 q 448 34 465 57 q 404 1 430 11 q 342 -9 378 -9 q 220 37 260 -9 q 193 94 201 57 q 184 203 184 132 l 184 524 l 71 524 l 71 541 q 150 559 103 541 q 214 600 197 578 q 250 665 232 623 q 267 750 267 708 l 298 750 q 293 617 293 707 q 293 587 293 608 q 293 556 293 567 l 448 559 l 439 524 z "},"Ť":{"ha":814,"x_min":47,"x_max":784,"o":"m 597 1104 l 416 906 l 245 1107 l 263 1122 l 422 978 l 579 1122 l 597 1104 m 315 50 q 345 127 345 88 l 346 821 q 203 822 205 822 q 145 798 171 822 q 106 737 119 773 q 83 667 92 701 q 73 601 75 632 l 47 601 l 53 853 q 439 849 205 849 q 780 853 661 849 l 784 601 l 757 601 q 644 819 745 818 l 486 821 l 487 127 q 513 50 487 80 q 624 24 533 26 l 624 -1 l 208 -1 l 208 24 q 216 24 210 24 q 224 24 221 24 q 315 50 296 26 z "},"ť":{"ha":525,"x_min":71,"x_max":496,"o":"m 456 974 l 275 776 l 104 977 l 122 991 l 281 848 l 438 991 l 456 974 m 439 524 l 296 524 q 296 155 296 524 q 314 61 296 96 q 363 26 332 26 q 422 54 399 26 q 467 140 446 83 l 496 125 q 475 75 484 92 q 448 34 465 57 q 404 1 430 11 q 342 -9 378 -9 q 220 37 260 -9 q 193 94 201 57 q 184 203 184 132 l 184 524 l 71 524 l 71 541 q 150 559 103 541 q 214 600 197 578 q 250 665 232 623 q 267 750 267 708 l 298 750 q 293 617 293 707 q 293 587 293 608 q 293 556 293 567 l 448 559 l 439 524 z "},"Ŧ":{"ha":814,"x_min":47,"x_max":784,"o":"m 315 50 q 345 127 345 88 l 346 821 q 203 822 205 822 q 145 798 171 822 q 106 737 119 773 q 83 667 92 701 q 73 601 75 632 l 47 601 l 53 853 q 439 849 205 849 q 780 853 661 849 l 784 601 l 757 601 q 644 819 745 818 l 486 821 l 487 127 q 513 50 487 80 q 624 24 533 26 l 624 -1 l 208 -1 l 208 24 q 216 24 210 24 q 224 24 221 24 q 315 50 296 26 z "},"ŧ":{"ha":525,"x_min":71,"x_max":496,"o":"m 439 524 l 296 524 q 296 155 296 524 q 314 61 296 96 q 363 26 332 26 q 422 54 399 26 q 467 140 446 83 l 496 125 q 475 75 484 92 q 448 34 465 57 q 404 1 430 11 q 342 -9 378 -9 q 220 37 260 -9 q 193 94 201 57 q 184 203 184 132 l 184 524 l 71 524 l 71 541 q 150 559 103 541 q 214 600 197 578 q 250 665 232 623 q 267 750 267 708 l 298 750 q 293 617 293 707 q 293 587 293 608 q 293 556 293 567 l 448 559 l 439 524 z "},"Ũ":{"ha":1034,"x_min":71,"x_max":966,"o":"m 387 899 l 370 901 q 397 983 370 939 q 463 1028 423 1028 q 511 1007 487 1028 q 559 965 534 986 q 612 944 585 944 q 667 966 654 944 q 680 1027 680 989 l 701 1027 q 698 987 701 1008 q 685 941 694 967 q 655 897 675 914 q 604 879 635 879 q 555 894 578 879 q 519 925 533 909 q 490 956 506 941 q 457 970 473 970 q 409 946 431 970 q 387 899 387 922 m 326 296 q 340 169 326 222 q 376 86 354 115 q 431 40 397 57 q 492 18 464 23 q 559 14 521 14 q 650 27 612 14 q 722 72 689 41 q 771 162 754 103 q 788 308 788 221 q 788 345 788 323 q 788 406 788 368 q 783 793 788 593 q 724 819 780 808 l 669 829 l 669 849 q 817 844 732 844 q 966 849 906 844 l 966 822 q 846 791 902 818 q 842 583 842 705 l 846 324 q 768 70 846 160 q 534 -26 689 -20 q 441 -17 487 -26 q 346 15 395 -8 q 261 74 297 38 q 201 169 225 110 q 178 302 178 228 q 180 347 178 307 q 184 461 182 387 q 187 627 187 536 q 184 793 187 709 q 126 819 182 808 l 71 829 l 71 849 q 248 844 134 844 q 430 849 370 844 l 430 822 q 326 791 350 815 q 324 574 324 701 l 326 296 z "},"ũ":{"ha":753,"x_min":83,"x_max":728,"o":"m 255 617 l 239 618 q 265 701 239 656 q 331 746 292 746 q 379 725 355 746 q 428 683 403 704 q 480 662 453 662 q 535 684 522 662 q 548 745 548 707 l 570 745 q 566 705 570 726 q 553 659 563 685 q 524 614 544 632 q 472 597 503 597 q 424 612 446 597 q 388 643 401 627 q 358 673 374 659 q 326 688 342 688 q 277 664 300 688 q 255 617 255 640 m 83 536 q 279 551 202 536 l 277 179 q 350 23 279 23 q 426 51 389 23 q 486 111 463 79 q 522 172 509 144 l 536 199 l 536 498 q 456 514 510 514 l 456 536 q 655 551 583 536 l 644 281 q 644 213 644 251 l 646 38 q 728 22 662 24 l 728 5 q 543 -20 625 0 l 533 127 l 517 106 q 475 57 500 84 q 410 7 449 30 q 334 -15 370 -15 q 202 34 240 -15 q 164 176 164 83 l 163 503 q 83 514 141 514 l 83 536 z "},"Ū":{"ha":1034,"x_min":71,"x_max":966,"o":"m 326 296 q 340 169 326 222 q 376 86 354 115 q 431 40 397 57 q 492 18 464 23 q 559 14 521 14 q 650 27 612 14 q 722 72 689 41 q 771 162 754 103 q 788 308 788 221 q 788 345 788 323 q 788 406 788 368 q 783 793 788 593 q 724 819 780 808 l 669 829 l 669 849 q 817 844 732 844 q 966 849 906 844 l 966 822 q 846 791 902 818 q 842 583 842 705 l 846 324 q 768 70 846 160 q 534 -26 689 -20 q 441 -17 487 -26 q 346 15 395 -8 q 261 74 297 38 q 201 169 225 110 q 178 302 178 228 q 180 347 178 307 q 184 461 182 387 q 187 627 187 536 q 184 793 187 709 q 126 819 182 808 l 71 829 l 71 849 q 248 844 134 844 q 430 849 370 844 l 430 822 q 326 791 350 815 q 324 574 324 701 l 326 296 z "},"ū":{"ha":753,"x_min":83,"x_max":728,"o":"m 83 536 q 279 551 202 536 l 277 179 q 350 23 279 23 q 426 51 389 23 q 486 111 463 79 q 522 172 509 144 l 536 199 l 536 498 q 456 514 510 514 l 456 536 q 655 551 583 536 l 644 281 q 644 213 644 251 l 646 38 q 728 22 662 24 l 728 5 q 543 -20 625 0 l 533 127 l 517 106 q 475 57 500 84 q 410 7 449 30 q 334 -15 370 -15 q 202 34 240 -15 q 164 176 164 83 l 163 503 q 83 514 141 514 l 83 536 z "},"Ŭ":{"ha":1034,"x_min":71,"x_max":966,"o":"m 326 296 q 340 169 326 222 q 376 86 354 115 q 431 40 397 57 q 492 18 464 23 q 559 14 521 14 q 650 27 612 14 q 722 72 689 41 q 771 162 754 103 q 788 308 788 221 q 788 345 788 323 q 788 406 788 368 q 783 793 788 593 q 724 819 780 808 l 669 829 l 669 849 q 817 844 732 844 q 966 849 906 844 l 966 822 q 846 791 902 818 q 842 583 842 705 l 846 324 q 768 70 846 160 q 534 -26 689 -20 q 441 -17 487 -26 q 346 15 395 -8 q 261 74 297 38 q 201 169 225 110 q 178 302 178 228 q 180 347 178 307 q 184 461 182 387 q 187 627 187 536 q 184 793 187 709 q 126 819 182 808 l 71 829 l 71 849 q 248 844 134 844 q 430 849 370 844 l 430 822 q 326 791 350 815 q 324 574 324 701 l 326 296 z "},"ŭ":{"ha":753,"x_min":83,"x_max":728,"o":"m 83 536 q 279 551 202 536 l 277 179 q 350 23 279 23 q 426 51 389 23 q 486 111 463 79 q 522 172 509 144 l 536 199 l 536 498 q 456 514 510 514 l 456 536 q 655 551 583 536 l 644 281 q 644 213 644 251 l 646 38 q 728 22 662 24 l 728 5 q 543 -20 625 0 l 533 127 l 517 106 q 475 57 500 84 q 410 7 449 30 q 334 -15 370 -15 q 202 34 240 -15 q 164 176 164 83 l 163 503 q 83 514 141 514 l 83 536 z "},"Ů":{"ha":1034,"x_min":71,"x_max":966,"o":"m 326 296 q 340 169 326 222 q 376 86 354 115 q 431 40 397 57 q 492 18 464 23 q 559 14 521 14 q 650 27 612 14 q 722 72 689 41 q 771 162 754 103 q 788 308 788 221 q 788 345 788 323 q 788 406 788 368 q 783 793 788 593 q 724 819 780 808 l 669 829 l 669 849 q 817 844 732 844 q 966 849 906 844 l 966 822 q 846 791 902 818 q 842 583 842 705 l 846 324 q 768 70 846 160 q 534 -26 689 -20 q 441 -17 487 -26 q 346 15 395 -8 q 261 74 297 38 q 201 169 225 110 q 178 302 178 228 q 180 347 178 307 q 184 461 182 387 q 187 627 187 536 q 184 793 187 709 q 126 819 182 808 l 71 829 l 71 849 q 248 844 134 844 q 430 849 370 844 l 430 822 q 326 791 350 815 q 324 574 324 701 l 326 296 z "},"ů":{"ha":753,"x_min":83,"x_max":728,"o":"m 327 859 q 343 875 327 859 q 408 891 359 891 q 490 860 457 891 q 522 780 522 829 q 490 697 522 731 q 408 663 457 663 q 327 697 359 663 q 294 779 294 731 q 327 859 294 827 m 339 777 q 359 720 339 739 q 408 700 378 700 q 475 777 475 700 q 456 836 475 815 q 407 857 438 857 q 357 836 376 857 q 339 777 339 815 m 83 536 q 279 551 202 536 l 277 179 q 350 23 279 23 q 426 51 389 23 q 486 111 463 79 q 522 172 509 144 l 536 199 l 536 498 q 456 514 510 514 l 456 536 q 655 551 583 536 l 644 281 q 644 213 644 251 l 646 38 q 728 22 662 24 l 728 5 q 543 -20 625 0 l 533 127 l 517 106 q 475 57 500 84 q 410 7 449 30 q 334 -15 370 -15 q 202 34 240 -15 q 164 176 164 83 l 163 503 q 83 514 141 514 l 83 536 z "},"Ű":{"ha":1034,"x_min":71,"x_max":966,"o":"m 439 878 l 589 1141 l 651 1095 l 463 860 l 439 878 m 601 878 l 750 1141 l 812 1095 l 624 860 l 601 878 m 326 296 q 340 169 326 222 q 376 86 354 115 q 431 40 397 57 q 492 18 464 23 q 559 14 521 14 q 650 27 612 14 q 722 72 689 41 q 771 162 754 103 q 788 308 788 221 q 788 345 788 323 q 788 406 788 368 q 783 793 788 593 q 724 819 780 808 l 669 829 l 669 849 q 817 844 732 844 q 966 849 906 844 l 966 822 q 846 791 902 818 q 842 583 842 705 l 846 324 q 768 70 846 160 q 534 -26 689 -20 q 441 -17 487 -26 q 346 15 395 -8 q 261 74 297 38 q 201 169 225 110 q 178 302 178 228 q 180 347 178 307 q 184 461 182 387 q 187 627 187 536 q 184 793 187 709 q 126 819 182 808 l 71 829 l 71 849 q 248 844 134 844 q 430 849 370 844 l 430 822 q 326 791 350 815 q 324 574 324 701 l 326 296 z "},"ű":{"ha":753,"x_min":83,"x_max":728,"o":"m 286 602 l 435 865 l 498 819 l 309 585 l 286 602 m 448 602 l 597 865 l 659 819 l 471 585 l 448 602 m 83 536 q 279 551 202 536 l 277 179 q 350 23 279 23 q 426 51 389 23 q 486 111 463 79 q 522 172 509 144 l 536 199 l 536 498 q 456 514 510 514 l 456 536 q 655 551 583 536 l 644 281 q 644 213 644 251 l 646 38 q 728 22 662 24 l 728 5 q 543 -20 625 0 l 533 127 l 517 106 q 475 57 500 84 q 410 7 449 30 q 334 -15 370 -15 q 202 34 240 -15 q 164 176 164 83 l 163 503 q 83 514 141 514 l 83 536 z "},"Ų":{"ha":1034,"x_min":71,"x_max":966,"o":"m 326 296 q 340 169 326 222 q 376 86 354 115 q 431 40 397 57 q 492 18 464 23 q 559 14 521 14 q 650 27 612 14 q 722 72 689 41 q 771 162 754 103 q 788 308 788 221 q 788 345 788 323 q 788 406 788 368 q 783 793 788 593 q 724 819 780 808 l 669 829 l 669 849 q 817 844 732 844 q 966 849 906 844 l 966 822 q 846 791 902 818 q 842 583 842 705 l 846 324 q 768 70 846 160 q 534 -26 689 -20 q 441 -17 487 -26 q 346 15 395 -8 q 261 74 297 38 q 201 169 225 110 q 178 302 178 228 q 180 347 178 307 q 184 461 182 387 q 187 627 187 536 q 184 793 187 709 q 126 819 182 808 l 71 829 l 71 849 q 248 844 134 844 q 430 849 370 844 l 430 822 q 326 791 350 815 q 324 574 324 701 l 326 296 z "},"ų":{"ha":753,"x_min":83,"x_max":728,"o":"m 384 -182 q 424 -90 384 -130 q 505 -33 464 -50 q 563 -13 526 -23 q 620 -3 600 -3 q 632 -7 631 -3 q 583 -36 612 -16 q 522 -94 555 -56 q 490 -167 490 -132 q 513 -250 490 -225 q 568 -275 536 -275 q 635 -242 602 -275 q 669 -179 667 -209 q 684 -186 670 -180 q 701 -197 697 -193 q 645 -273 686 -239 q 544 -308 604 -308 q 427 -273 471 -308 q 384 -182 384 -237 m 83 536 q 279 551 202 536 l 277 179 q 350 23 279 23 q 426 51 389 23 q 486 111 463 79 q 522 172 509 144 l 536 199 l 536 498 q 456 514 510 514 l 456 536 q 655 551 583 536 l 644 281 q 644 213 644 251 l 646 38 q 728 22 662 24 l 728 5 q 543 -20 625 0 l 533 127 l 517 106 q 475 57 500 84 q 410 7 449 30 q 334 -15 370 -15 q 202 34 240 -15 q 164 176 164 83 l 163 503 q 83 514 141 514 l 83 536 z "},"Ŵ":{"ha":1374,"x_min":33,"x_max":1378,"o":"m 576 906 l 764 1111 l 930 910 l 911 894 l 760 1035 l 595 894 l 576 906 m 498 -15 l 445 -15 q 189 690 445 -15 q 109 803 155 780 q 33 829 75 819 l 33 849 q 239 844 96 844 q 454 849 395 844 l 454 822 q 392 810 437 821 q 343 791 347 799 q 336 749 336 776 q 350 670 336 711 q 407 512 376 595 q 473 340 438 429 q 521 214 507 251 q 684 704 586 392 l 732 863 l 768 861 q 890 522 791 770 q 1019 187 989 273 q 1080 370 1028 218 q 1168 637 1131 521 q 1204 774 1204 754 q 1176 804 1204 793 l 1095 826 l 1095 846 q 1237 841 1158 841 q 1378 846 1317 841 l 1378 819 q 1287 796 1322 817 q 1255 755 1275 788 l 1233 724 q 1156 490 1206 639 q 1068 218 1107 340 q 997 -15 1029 96 l 951 -15 q 881 176 924 69 q 783 410 838 282 q 704 594 727 538 q 608 317 689 545 q 498 -15 528 90 z "},"ŵ":{"ha":1073,"x_min":50,"x_max":1039,"o":"m 406 614 l 593 819 l 760 618 l 741 602 l 589 743 l 425 602 l 406 614 m 637 537 l 667 437 l 773 98 l 899 460 q 901 471 901 465 q 873 506 901 492 q 821 521 846 519 l 823 540 q 932 533 869 533 q 1039 540 996 533 l 1036 521 q 968 496 997 518 q 929 446 939 475 l 770 -14 l 707 -14 l 559 392 l 401 -14 l 339 -14 l 182 437 q 50 514 159 509 l 53 536 q 232 532 144 532 q 372 536 317 532 l 369 517 q 366 517 368 517 q 322 501 346 517 q 298 467 298 486 q 300 458 298 463 l 406 98 l 538 439 l 570 537 l 637 537 z "},"Ŷ":{"ha":875,"x_min":18,"x_max":857,"o":"m 301 906 l 488 1111 l 655 910 l 636 894 l 484 1035 l 320 894 l 301 906 m 388 335 q 156 745 296 551 q 95 803 125 788 q 18 829 61 819 l 18 849 q 206 844 81 844 q 399 849 339 844 l 399 822 q 312 799 323 815 q 302 766 305 785 l 300 750 q 488 408 392 571 q 686 779 685 760 q 655 807 686 798 l 574 829 l 574 849 q 716 844 637 844 q 857 849 796 844 l 857 822 q 766 799 802 819 q 734 769 754 791 l 713 747 q 517 392 553 471 q 522 47 517 340 q 633 14 522 14 l 633 -12 l 264 -12 l 264 9 q 279 9 269 9 q 381 41 380 9 q 388 335 384 199 z "},"ŷ":{"ha":743,"x_min":42,"x_max":730,"o":"m 236 614 l 423 819 l 590 618 l 571 602 l 419 743 l 255 602 l 236 614 m 353 536 l 350 517 q 304 510 317 517 q 292 481 292 503 q 300 445 292 469 l 437 98 l 583 437 q 593 476 593 460 q 585 500 593 491 q 561 513 578 510 q 532 517 544 517 q 496 518 519 518 l 499 537 q 621 532 547 532 q 730 538 696 532 l 727 519 q 662 509 674 519 q 618 427 643 491 l 374 -153 q 297 -267 345 -225 q 174 -311 244 -312 q 85 -280 127 -311 q 42 -206 42 -250 q 64 -142 42 -163 q 115 -121 85 -121 q 176 -138 149 -121 q 203 -187 203 -155 q 149 -256 203 -235 q 206 -273 168 -271 q 274 -232 228 -273 q 380 -23 327 -182 l 172 456 q 125 503 159 491 q 47 517 102 511 l 47 536 q 190 532 106 532 q 353 536 292 532 z "},"Ÿ":{"ha":875,"x_min":18,"x_max":857,"o":"m 339 949 q 352 983 339 970 q 381 997 365 997 q 412 984 399 997 q 426 951 426 971 q 413 917 426 930 q 384 903 400 903 q 353 917 366 903 q 339 949 339 930 m 547 949 q 559 983 547 970 q 589 997 571 997 q 618 984 606 997 q 631 951 631 971 q 618 917 631 930 q 590 903 606 903 q 559 917 572 903 q 547 949 547 930 m 388 335 q 156 745 296 551 q 95 803 125 788 q 18 829 61 819 l 18 849 q 206 844 81 844 q 399 849 339 844 l 399 822 q 312 799 323 815 q 302 766 305 785 l 300 750 q 488 408 392 571 q 686 779 685 760 q 655 807 686 798 l 574 829 l 574 849 q 716 844 637 844 q 857 849 796 844 l 857 822 q 766 799 802 819 q 734 769 754 791 l 713 747 q 517 392 553 471 q 522 47 517 340 q 633 14 522 14 l 633 -12 l 264 -12 l 264 9 q 279 9 269 9 q 381 41 380 9 q 388 335 384 199 z "},"Ź":{"ha":814,"x_min":69,"x_max":758,"o":"m 339 917 l 568 1114 l 610 1048 l 354 892 l 339 917 m 69 9 q 575 823 349 426 l 255 818 q 208 805 229 818 q 175 777 187 792 q 152 734 163 761 q 138 694 141 707 q 129 656 134 681 l 103 656 l 107 853 q 388 845 232 845 q 743 853 510 845 l 743 823 l 336 151 q 283 22 283 57 q 294 8 283 8 q 600 16 536 8 q 677 85 635 20 q 728 206 720 149 l 758 206 l 727 -12 q 419 -9 571 -9 q 69 -12 328 -9 l 69 9 z "},"ź":{"ha":631,"x_min":91,"x_max":600,"o":"m 202 644 l 431 841 l 473 776 l 217 620 l 202 644 m 121 541 l 594 544 l 600 517 q 227 38 248 104 l 448 42 q 524 87 492 43 q 560 213 556 132 l 585 213 l 570 0 l 95 0 l 91 56 q 307 313 144 117 q 472 511 471 509 l 206 507 q 166 480 180 507 q 150 420 152 453 q 142 357 148 387 l 114 357 l 121 541 z "},"Ż":{"ha":814,"x_min":69,"x_max":758,"o":"m 69 9 q 575 823 349 426 l 255 818 q 208 805 229 818 q 175 777 187 792 q 152 734 163 761 q 138 694 141 707 q 129 656 134 681 l 103 656 l 107 853 q 388 845 232 845 q 743 853 510 845 l 743 823 l 336 151 q 283 22 283 57 q 294 8 283 8 q 600 16 536 8 q 677 85 635 20 q 728 206 720 149 l 758 206 l 727 -12 q 419 -9 571 -9 q 69 -12 328 -9 l 69 9 z "},"ż":{"ha":631,"x_min":91,"x_max":600,"o":"m 121 541 l 594 544 l 600 517 q 227 38 248 104 l 448 42 q 524 87 492 43 q 560 213 556 132 l 585 213 l 570 0 l 95 0 l 91 56 q 307 313 144 117 q 472 511 471 509 l 206 507 q 166 480 180 507 q 150 420 152 453 q 142 357 148 387 l 114 357 l 121 541 z "},"Ž":{"ha":814,"x_min":69,"x_max":758,"o":"m 643 1103 l 463 905 l 292 1105 l 309 1120 l 468 977 l 625 1120 l 643 1103 m 69 9 q 575 823 349 426 l 255 818 q 208 805 229 818 q 175 777 187 792 q 152 734 163 761 q 138 694 141 707 q 129 656 134 681 l 103 656 l 107 853 q 388 845 232 845 q 743 853 510 845 l 743 823 l 336 151 q 283 22 283 57 q 294 8 283 8 q 600 16 536 8 q 677 85 635 20 q 728 206 720 149 l 758 206 l 727 -12 q 419 -9 571 -9 q 69 -12 328 -9 l 69 9 z "},"ž":{"ha":631,"x_min":91,"x_max":600,"o":"m 526 808 l 346 610 l 175 811 l 193 826 l 351 682 l 509 826 l 526 808 m 121 541 l 594 544 l 600 517 q 227 38 248 104 l 448 42 q 524 87 492 43 q 560 213 556 132 l 585 213 l 570 0 l 95 0 l 91 56 q 307 313 144 117 q 472 511 471 509 l 206 507 q 166 480 180 507 q 150 420 152 453 q 142 357 148 387 l 114 357 l 121 541 z "},"ˆ":{"ha":571,"x_min":103,"x_max":457,"o":"m 103 621 l 290 826 l 457 625 l 439 610 l 286 750 l 122 610 l 103 621 z "},"ˇ":{"ha":571,"x_min":99,"x_max":450,"o":"m 450 808 l 270 610 l 99 811 l 117 826 l 275 682 l 433 826 l 450 808 z "},"˚":{"ha":294,"x_min":50,"x_max":278,"o":"m 83 859 q 99 875 83 859 q 164 891 115 891 q 245 860 213 891 q 278 780 278 829 q 245 697 278 731 q 164 663 213 663 q 83 697 115 663 q 50 779 50 731 q 83 859 50 827 m 95 777 q 115 720 95 739 q 164 700 134 700 q 231 777 231 700 q 212 836 231 815 q 163 857 194 857 q 113 836 132 857 q 95 777 95 815 z "},"˜":{"ha":347,"x_min":8,"x_max":339,"o":"m 24 372 l 8 373 q 35 456 8 411 q 100 500 61 500 q 149 479 125 500 q 197 437 172 458 q 250 416 222 416 q 304 439 292 416 q 317 499 317 461 l 339 499 q 336 460 339 480 q 323 413 332 439 q 293 369 313 387 q 241 351 273 351 q 193 366 216 351 q 157 397 171 381 q 127 428 144 414 q 95 442 111 442 q 47 418 69 442 q 24 372 24 395 z "},"˝":{"ha":623,"x_min":144,"x_max":517,"o":"m 144 602 l 293 865 l 355 819 l 167 585 l 144 602 m 305 602 l 454 865 l 517 819 l 328 585 l 305 602 z "},"π":{"ha":694,"x_min":19,"x_max":670,"o":"m 115 511 q 162 559 115 511 q 345 606 210 606 q 574 511 479 606 q 670 282 670 416 q 574 52 670 148 q 345 -43 479 -43 q 115 52 210 -43 q 19 282 19 148 q 115 511 19 416 m 551 488 q 508 531 551 488 q 345 574 465 574 q 138 488 224 574 q 53 282 53 403 q 138 76 53 161 q 345 -9 224 -9 q 551 76 465 -9 q 636 282 636 161 q 551 488 636 403 m 529 373 q 492 290 529 323 q 391 258 454 258 q 355 262 369 258 l 342 266 q 342 188 342 217 q 342 148 342 159 q 342 134 342 137 q 357 115 342 123 q 399 106 372 106 l 399 80 l 221 80 l 221 109 l 247 114 q 275 130 273 119 q 277 209 277 141 q 276 347 277 260 q 275 437 275 433 q 251 452 274 445 l 229 458 l 229 479 q 329 478 269 479 q 406 477 389 477 q 490 451 452 477 q 529 373 529 425 m 464 373 q 452 432 464 412 q 404 452 441 452 q 374 452 395 452 q 342 453 353 453 l 342 283 q 387 281 342 281 q 444 308 425 281 q 464 373 463 335 z "},"–":{"ha":722,"x_min":47,"x_max":675,"o":"m 47 334 l 675 334 l 675 262 l 47 262 l 47 334 z "},"—":{"ha":1416,"x_min":46,"x_max":1370,"o":"m 46 336 l 1370 336 l 1370 264 l 46 264 l 46 336 z "},"‘":{"ha":345,"x_min":77,"x_max":285,"o":"m 190 780 q 258 749 231 780 q 285 678 285 718 q 252 604 285 632 q 184 576 220 576 q 113 608 148 576 q 77 692 77 640 q 129 831 77 772 q 235 898 180 890 l 245 876 q 174 829 214 864 q 132 760 134 793 q 190 780 165 780 z "},"’":{"ha":345,"x_min":77,"x_max":285,"o":"m 172 693 q 104 724 132 693 q 77 796 77 755 q 110 870 77 842 q 179 898 142 898 q 250 865 216 898 q 285 783 285 833 q 233 643 285 703 q 127 576 182 583 l 117 597 q 188 645 148 609 q 231 713 228 681 q 172 693 197 693 z "},"‚":{"ha":345,"x_min":77,"x_max":285,"o":"m 172 -18 q 104 14 132 -18 q 77 84 77 45 q 110 158 77 130 q 179 186 142 186 q 250 154 216 186 q 285 71 285 122 q 233 -68 285 -9 q 127 -134 182 -127 l 117 -114 q 188 -66 148 -102 q 231 3 228 -31 q 172 -18 197 -18 z "},"“":{"ha":632,"x_min":77,"x_max":564,"o":"m 469 780 q 537 749 510 780 q 564 678 564 718 q 532 604 564 632 q 463 576 499 576 q 391 608 426 576 q 357 692 357 640 q 408 831 357 772 q 514 898 460 890 l 525 876 q 454 829 494 864 q 411 760 414 793 q 469 780 445 780 m 190 780 q 258 749 231 780 q 285 678 285 718 q 252 604 285 632 q 184 576 220 576 q 113 608 148 576 q 77 692 77 640 q 129 831 77 772 q 235 898 180 890 l 245 876 q 174 829 214 864 q 132 760 134 793 q 190 780 165 780 z "},"”":{"ha":632,"x_min":77,"x_max":564,"o":"m 172 693 q 104 724 132 693 q 77 796 77 755 q 110 870 77 842 q 179 898 142 898 q 250 865 216 898 q 285 783 285 833 q 233 643 285 703 q 127 576 182 583 l 117 597 q 188 645 148 609 q 231 713 228 681 q 172 693 197 693 m 452 693 q 384 724 411 693 q 357 796 357 755 q 389 870 357 842 q 458 898 422 898 q 530 865 495 898 q 564 783 564 833 q 513 643 564 703 q 407 576 461 583 l 396 597 q 467 645 427 609 q 510 713 507 681 q 452 693 476 693 z "},"„":{"ha":632,"x_min":72,"x_max":559,"o":"m 167 -16 q 99 15 126 -16 q 72 85 72 46 q 104 159 72 132 q 174 187 137 187 q 245 155 210 187 q 279 72 279 123 q 228 -67 279 -8 q 122 -133 176 -126 l 111 -113 q 182 -65 142 -100 q 225 4 222 -30 q 167 -16 191 -16 m 446 -16 q 378 15 406 -16 q 351 85 351 46 q 384 159 351 132 q 452 187 416 187 q 524 155 488 187 q 559 72 559 123 q 507 -67 559 -8 q 401 -133 456 -126 l 391 -113 q 462 -65 422 -100 q 505 4 502 -30 q 446 -16 471 -16 z "},"…":{"ha":901,"x_min":81,"x_max":818,"o":"m 712 187 q 785 163 751 187 q 818 91 818 140 q 716 -16 818 -16 q 642 14 670 -16 q 613 85 613 45 q 644 159 613 132 q 712 187 675 187 m 182 187 q 254 163 221 187 q 288 91 288 140 q 186 -16 288 -16 q 111 14 140 -16 q 81 85 81 45 q 113 159 81 132 q 182 187 145 187 m 449 187 q 522 163 488 187 q 555 91 555 140 q 453 -16 555 -16 q 378 14 407 -16 q 349 85 349 45 q 380 159 349 132 q 449 187 412 187 z "},"‰":{"ha":791,"x_min":0,"x_max":0,"o":""},"∂":{"ha":1135,"x_min":46,"x_max":1092,"o":"m 747 903 q 676 877 708 903 q 631 817 644 850 q 612 656 612 772 q 612 639 612 650 q 612 624 612 628 q 613 587 612 612 q 614 543 614 562 l 785 543 l 785 513 l 614 513 l 623 64 q 634 45 623 53 q 663 35 646 38 q 697 28 680 31 q 730 24 715 26 l 730 0 q 351 5 552 5 q 46 0 164 5 l 46 24 q 127 35 92 24 q 163 61 163 45 l 168 513 l 54 513 l 54 543 l 168 543 q 168 566 168 553 q 179 703 168 640 q 208 796 190 766 q 418 924 282 924 q 498 902 456 924 q 574 842 541 880 q 751 924 648 924 q 903 869 842 924 q 1000 891 968 882 q 994 598 994 761 q 996 355 994 533 q 997 50 997 176 q 1034 30 1000 37 q 1092 22 1067 23 l 1092 0 q 948 7 1032 7 q 792 0 852 7 l 792 22 q 883 50 882 26 q 887 407 887 179 q 883 811 887 650 q 827 876 871 849 q 747 903 784 903 m 559 823 q 498 878 548 853 q 414 903 448 903 q 342 877 374 903 q 297 817 311 850 q 278 659 278 772 q 278 641 278 652 q 278 624 278 629 q 279 587 278 612 q 281 543 281 562 l 502 543 q 502 566 502 553 q 513 703 502 640 q 540 796 524 766 q 559 823 545 804 m 502 513 l 281 513 l 289 61 q 319 34 289 45 q 380 23 349 23 q 456 32 415 23 q 496 60 496 41 l 502 513 z "},"−":{"ha":694,"x_min":62,"x_max":644,"o":"m 62 362 l 644 362 l 644 279 l 62 279 l 62 362 z "},"∞":{"ha":694,"x_min":7,"x_max":688,"o":"m 503 472 q 382 336 382 472 q 418 204 382 264 q 500 144 454 144 q 572 186 548 144 q 595 300 595 229 q 574 432 595 392 q 503 472 552 472 m 7 300 q 64 437 7 385 q 198 490 121 490 q 284 457 240 490 q 349 381 328 425 q 413 460 370 430 q 503 490 456 490 q 631 441 575 490 q 688 300 688 393 q 631 177 688 228 q 500 126 574 126 q 415 159 458 126 q 349 235 372 191 q 288 159 334 191 q 195 126 241 126 q 65 176 123 126 q 7 300 7 227 m 198 472 q 100 300 99 472 q 125 186 100 228 q 195 144 151 144 q 309 269 309 144 q 279 416 309 361 q 198 472 248 472 z "},"ﬀ":{"ha":791,"x_min":46,"x_max":930,"o":"m 46 0 l 46 24 q 163 64 157 33 l 168 513 l 54 513 l 54 543 l 168 543 q 168 566 168 553 q 179 703 168 640 q 208 796 190 766 q 286 874 232 838 q 418 910 339 910 q 574 842 518 910 q 738 910 636 910 q 865 878 800 910 q 930 792 930 845 q 911 728 930 757 q 853 699 891 699 q 808 720 826 699 q 791 764 791 741 q 803 798 791 781 q 827 819 815 814 l 841 826 q 806 874 840 860 q 734 888 773 888 q 631 817 663 888 q 612 650 612 772 q 612 635 612 644 q 612 624 612 627 q 613 587 612 612 q 614 543 614 562 l 743 543 l 743 513 l 614 513 l 623 64 q 730 24 624 30 l 730 0 q 351 5 552 5 q 46 0 164 5 m 281 513 l 289 64 q 380 23 294 23 q 496 64 490 23 l 502 513 l 281 513 m 414 888 q 342 868 373 888 q 297 817 311 848 q 278 650 278 772 q 278 635 278 644 q 278 624 278 627 q 279 587 278 612 q 281 543 281 562 l 502 543 q 502 566 502 553 q 513 703 502 640 q 540 796 524 766 q 559 823 544 804 q 500 869 549 850 q 414 888 452 888 z "},"ﬁ":{"ha":770,"x_min":46,"x_max":753,"o":"m 667 792 q 589 685 667 685 q 537 710 562 685 q 513 764 513 735 q 525 798 513 781 q 551 819 537 814 l 563 826 q 521 882 562 860 q 442 903 480 903 q 380 894 407 903 q 336 868 353 884 q 308 830 320 852 q 291 783 296 808 q 283 730 286 757 q 279 675 279 703 q 278 624 279 648 q 279 587 278 612 q 281 543 281 562 l 490 543 q 661 572 578 543 q 658 56 658 338 q 694 32 659 42 q 753 22 730 22 l 753 0 q 605 4 697 4 q 464 0 517 4 l 464 22 q 551 56 547 24 l 551 506 q 528 513 532 511 l 281 513 l 289 64 q 325 35 289 46 q 396 24 361 24 l 396 0 q 214 5 316 5 q 46 0 113 5 l 46 24 q 126 36 90 24 q 163 61 163 47 l 168 513 l 54 513 l 54 543 l 168 543 q 168 566 168 553 q 446 924 168 924 q 534 907 484 924 q 625 859 583 890 q 667 792 667 829 z "},"ﬂ":{"ha":811,"x_min":46,"x_max":772,"o":"m 556 833 q 427 903 492 902 q 345 875 377 903 q 299 795 312 846 q 283 709 286 745 q 278 624 279 673 q 279 587 278 612 q 281 543 281 562 l 438 543 l 438 513 l 281 513 l 289 65 q 326 37 289 49 q 396 24 363 24 l 396 0 q 214 5 316 5 q 46 0 113 5 l 46 24 q 125 37 90 24 q 163 65 161 49 l 168 513 l 54 513 l 54 543 l 168 543 q 168 562 168 552 q 175 663 168 614 q 201 760 182 711 q 249 844 220 808 q 325 901 278 879 q 431 924 372 924 q 514 905 464 924 q 595 863 564 886 q 635 876 612 865 q 681 891 658 886 q 675 656 675 769 q 677 463 675 620 q 678 156 678 305 q 678 50 678 104 q 715 30 681 37 q 772 22 749 23 l 772 0 q 629 7 712 7 q 472 0 533 7 l 472 22 q 532 33 502 23 q 564 58 563 43 q 570 423 570 201 q 564 798 570 654 q 556 833 564 799 z "},"ﬃ":{"ha":1116,"x_min":46,"x_max":1073,"o":"m 972 792 q 953 728 972 757 q 894 699 933 699 q 849 720 867 699 q 831 764 831 741 q 844 798 831 781 q 869 819 857 814 l 882 826 q 840 882 880 860 q 761 903 800 903 q 696 890 723 903 q 654 854 670 876 q 629 802 639 831 q 618 743 620 773 q 613 681 616 712 q 612 624 610 650 q 613 587 612 612 q 614 543 614 562 l 869 543 q 981 572 920 549 q 978 58 978 338 q 1013 33 982 42 q 1073 22 1044 23 l 1073 0 q 925 4 1017 4 q 784 0 837 4 l 784 22 q 842 34 815 23 q 869 58 869 45 l 869 506 q 848 513 852 511 l 614 513 l 623 62 q 730 24 625 30 l 730 0 q 351 5 552 5 q 46 0 164 5 l 46 24 q 163 61 153 26 l 168 513 l 54 513 l 54 543 l 168 543 q 168 566 168 553 q 179 703 168 640 q 208 796 190 766 q 287 883 233 842 q 418 924 340 924 q 498 902 456 924 q 574 842 541 880 q 654 899 601 873 q 765 924 708 924 q 899 884 826 924 q 972 792 972 845 m 559 823 q 498 878 548 853 q 414 903 448 903 q 361 892 384 903 q 326 864 339 882 q 302 823 312 846 q 288 772 292 799 q 281 720 283 746 q 279 669 278 693 q 278 624 279 644 q 279 587 278 612 q 281 543 281 562 l 502 543 q 502 578 502 560 q 559 823 502 747 m 502 513 l 281 513 l 289 61 q 319 33 290 43 q 380 23 347 23 q 496 61 487 23 l 502 513 z "}}}
